<svg id="Layer_1" data-name="Layer 1" xmlns="http://www.w3.org/2000/svg" viewBox="0 0 23 10"><g id="Group_832" data-name="Group 832"><path id="Rectangle_1503" data-name="Rectangle 1503" d="M268.19,396.53h21a1,1,0,0,1,1,1h0a1,1,0,0,1-1,1h-21a1,1,0,0,1-1-1h0A1,1,0,0,1,268.19,396.53Z" transform="translate(-267.19 -396.53)"/><path id="Rectangle_1505" data-name="Rectangle 1505" d="M268.19,400.53h21a1,1,0,0,1,1,1h0a1,1,0,0,1-1,1h-21a1,1,0,0,1-1-1h0A1,1,0,0,1,268.19,400.53Z" transform="translate(-267.19 -396.53)"/><path id="Rectangle_1507" data-name="Rectangle 1507" d="M268.19,404.53h21a1,1,0,0,1,1,1h0a1,1,0,0,1-1,1h-21a1,1,0,0,1-1-1h0A1,1,0,0,1,268.19,404.53Z" transform="translate(-267.19 -396.53)"/></g></svg>