<svg id="Layer_1" data-name="Layer 1" xmlns="http://www.w3.org/2000/svg" viewBox="0 0 36.95 41.22"><g id="Group_3" data-name="Group 3"><path id="Path_72" data-name="Path 72" d="M321.79,305.55h-7.25v-3.26a8.83,8.83,0,0,1-1.15-.67l-2.83,1.63L306.94,297l2.8-1.62a7.61,7.61,0,0,1,0-1.35l-2.8-1.62,3.62-6.27,2.83,1.63a10.14,10.14,0,0,1,1.15-.67v-3.26h7.24v3.26a9.33,9.33,0,0,1,1.15.67l2.83-1.63,3.62,6.27-2.8,1.62a6.18,6.18,0,0,1,0,1.36l2.8,1.61-3.62,6.28-2.83-1.64a8.72,8.72,0,0,1-1.14.67ZM317,303.14h2.41v-2.5l.8-.29a5.72,5.72,0,0,0,1.88-1.09l.65-.56,2.18,1.26,1.2-2.09-2.15-1.25.16-.84a5.43,5.43,0,0,0,0-2.2l-.16-.84,2.16-1.24-1.21-2.09-2.18,1.25-.64-.55a6.26,6.26,0,0,0-1.89-1.09l-.8-.29v-2.5H317v2.5l-.8.29a6.08,6.08,0,0,0-1.89,1.1l-.65.55-2.17-1.25-1.21,2.09,2.15,1.24-.15.84a5.43,5.43,0,0,0,0,2.2l.15.84-2.15,1.24,1.2,2.09,2.18-1.25.65.55a5.72,5.72,0,0,0,1.88,1.09l.8.29v2.5Z" transform="translate(-302.48 -278.99)"/></g><g id="Group_4" data-name="Group 4"><path id="Path_73" data-name="Path 73" d="M318.16,298.31a3.63,3.63,0,1,1,3.63-3.62h0A3.63,3.63,0,0,1,318.16,298.31Zm0-4.83a1.21,1.21,0,1,0,1.21,1.21,1.21,1.21,0,0,0-1.21-1.21Z" transform="translate(-302.48 -278.99)"/></g><g id="Group_5" data-name="Group 5"><path id="Path_74" data-name="Path 74" d="M324.2,320.2H307.3V306a15.69,15.69,0,1,1,26.56-11.59l5.57,11.15h-5.57v9.66H324.2v5Zm-14.49-2.41h12.08v-5h9.65v-9.66h4.09L331.44,295v-.28a13.28,13.28,0,1,0-22.13,9.88l.4.36Z" transform="translate(-302.48 -278.99)"/></g></svg>