<svg id="Layer_1" data-name="Layer 1" xmlns="http://www.w3.org/2000/svg" viewBox="0 0 17 17"><g id="Group_806" data-name="Group 806"><g id="Group_805" data-name="Group 805"><circle id="Ellipse_735" data-name="Ellipse 735" cx="12.8" cy="6.8" r="0.6"/><path id="Path_6351" data-name="Path 6351" d="M282.73,297.81h-.86v-.67a.67.67,0,0,0-1.33,0v.67h-3v-.67a.67.67,0,0,0-1.33,0v.67h-3v-.67a.66.66,0,1,0-1.32,0v.67h-.83a2.66,2.66,0,0,0-2.66,2.65v10.36a2.66,2.66,0,0,0,2.66,2.66h5.08a.67.67,0,0,0,0-1.33h-5.08a1.32,1.32,0,0,1-1.33-1.33V300.46a1.34,1.34,0,0,1,1.33-1.33h.83v.67a.66.66,0,0,0,1.32,0v-.67h3v.67a.67.67,0,0,0,1.33,0v-.67h3v.67a.67.67,0,0,0,1.33,0v-.67h.86a1.34,1.34,0,0,1,1.33,1.33v3.79a.67.67,0,0,0,1.33,0v-3.79A2.66,2.66,0,0,0,282.73,297.81Z" transform="translate(-268.39 -296.48)"/><path id="Path_6352" data-name="Path 6352" d="M281.37,305.44a4,4,0,1,0,4,4A4,4,0,0,0,281.37,305.44Zm0,6.71a2.69,2.69,0,1,1,2.69-2.69h0A2.68,2.68,0,0,1,281.37,312.15Z" transform="translate(-268.39 -296.48)"/><path id="Path_6353" data-name="Path 6353" d="M282.33,308.8H282v-.7a.66.66,0,1,0-1.32,0v1.36a.66.66,0,0,0,.66.66h1a.67.67,0,1,0,0-1.33Z" transform="translate(-268.39 -296.48)"/><circle id="Ellipse_736" data-name="Ellipse 736" cx="9.8" cy="6.8" r="0.6"/><circle id="Ellipse_737" data-name="Ellipse 737" cx="6.8" cy="9.8" r="0.6"/><ellipse id="Ellipse_738" data-name="Ellipse 738" cx="4.1" cy="6.8" rx="0.9" ry="0.6"/><ellipse id="Ellipse_739" data-name="Ellipse 739" cx="4.1" cy="9.8" rx="0.9" ry="0.6"/><ellipse id="Ellipse_740" data-name="Ellipse 740" cx="4.1" cy="12.8" rx="0.9" ry="0.6"/><circle id="Ellipse_741" data-name="Ellipse 741" cx="6.8" cy="12.8" r="0.6"/><circle id="Ellipse_742" data-name="Ellipse 742" cx="6.8" cy="6.8" r="0.6"/></g></g></svg>