<svg id="Layer_1" data-name="Layer 1" xmlns="http://www.w3.org/2000/svg" viewBox="0 0 15.56 17.27"><path id="Calendar-2" d="M286.71,536.6c-3.23,0-4.86-1.45-4.86-4.33v-7.13a3.91,3.91,0,0,1,1.79-3.67.58.58,0,0,1,.63,0,.62.62,0,0,1,.22.84.67.67,0,0,1-.28.25,2.7,2.7,0,0,0-1.18,2.6v.23h11a.6.6,0,1,1,0,1.2H283v5.7c0,2.19,1.07,3.1,3.67,3.12h5.83c2.57,0,3.66-.93,3.66-3.12v-7.14a2.67,2.67,0,0,0-2.28-3l-.45,0v.58a.6.6,0,0,1-1.19,0v-2.69a.57.57,0,0,1,.19-.42.58.58,0,0,1,.43-.16.61.61,0,0,1,.57.63v.9c2.6.25,3.93,1.68,3.93,4.26v7.14c0,2.87-1.64,4.33-4.86,4.33Zm5.78-4.24a.74.74,0,0,1,.75-.76h0a.67.67,0,0,1,.53.22.74.74,0,0,1,.23.54.75.75,0,1,1-1.5.08Zm-3.6,0a.74.74,0,0,1,.76-.74.75.75,0,0,1,0,1.5.76.76,0,0,1-.76-.76h0Zm-3.6,0a.74.74,0,0,1,.75-.76h0a.71.71,0,0,1,.54.22.77.77,0,0,1,.22.54.75.75,0,1,1-1.5.08v-.08Zm7.2-3.09a.76.76,0,0,1,.75-.77h0a.75.75,0,0,1,.53.22.79.79,0,0,1-.48,1.34.75.75,0,0,1-.79-.72Zm-3.6,0a.75.75,0,1,1,1.5,0,.76.76,0,0,1-1.51,0h0Zm-3.6,0a.76.76,0,0,1,.75-.77h0a.75.75,0,0,1,.76.77.76.76,0,0,1-.71.79.75.75,0,0,1-.79-.72v-.07Zm1.06-6a.6.6,0,0,1-.58-.61V520a.6.6,0,0,1,.66-.53.6.6,0,0,1,.53.53v.84h3.4a.6.6,0,1,1,0,1.2H287v.6a.58.58,0,0,1-.18.43.6.6,0,0,1-.42.18Z" transform="translate(-281.83 -519.34)"/></svg>