<svg id="Layer_1" data-name="Layer 1" xmlns="http://www.w3.org/2000/svg" viewBox="0 0 9.86 11.18"><defs><style>.cls-1{isolation:isolate;}</style></defs><g id="_" data-name=" " class="cls-1"><g class="cls-1"><path d="M302.75,310.32a2.44,2.44,0,0,1-.28-.31.37.37,0,0,1-.11-.23.25.25,0,0,1,.1-.2,1,1,0,0,1,.23-.14l.3-.08a1.37,1.37,0,0,1,.27,0,.29.29,0,0,1,.19.05l.18.16a11,11,0,0,1,1.25,1.48c.37.53.72,1.05,1,1.57a43,43,0,0,1,2.13-4.92,32.25,32.25,0,0,1,2.74-4.46.84.84,0,0,1,.46-.31,1.89,1.89,0,0,1,.69-.11.37.37,0,0,1,.2,0,.17.17,0,0,1,.08.14.33.33,0,0,1,0,.15.5.5,0,0,1-.1.16c-.54.72-1.07,1.47-1.58,2.26s-1,1.62-1.46,2.49-.9,1.78-1.32,2.74-.79,2-1.14,3c0,0,0,.05-.08.07a.59.59,0,0,1-.16.06l-.21,0h-.24a1.55,1.55,0,0,1-.31,0,.3.3,0,0,1-.2-.14c-.23-.4-.45-.76-.65-1.06s-.41-.59-.61-.85-.42-.52-.64-.77S303,310.6,302.75,310.32Z" transform="translate(-302.36 -302.8)"/></g></g></svg>