<svg id="Layer_1" data-name="Layer 1" xmlns="http://www.w3.org/2000/svg" viewBox="0 0 28 34.23"><defs><style>.cls-1{fill-rule:evenodd;}</style></defs><g id="Core"><g id="content-paste"><path id="Shape" class="cls-1" d="M246.11,321.1h-6.53a4.61,4.61,0,0,0-8.72,0h-6.53a3.12,3.12,0,0,0-3.11,3.12V349.1a3.12,3.12,0,0,0,3.11,3.12h21.78a3.13,3.13,0,0,0,3.11-3.12V324.22A3.13,3.13,0,0,0,246.11,321.1Zm-10.89,0a1.48,1.48,0,0,1,1.56,1.38v.18a1.48,1.48,0,0,1-1.38,1.56h-.18a1.48,1.48,0,0,1-1.56-1.38v-.18A1.48,1.48,0,0,1,235,321.1Zm10.89,28H224.33V324.22h3.11v4.66H243v-4.66h3.11Z" transform="translate(-221.22 -317.98)"/></g></g></svg>