<svg id="Layer_1" data-name="Layer 1" xmlns="http://www.w3.org/2000/svg" viewBox="0 0 23 10"><line x1="0.07" y1="0.55" x2="22.93" y2="9.45"/><path d="M370.75,411l-21.12-8.22a.87.87,0,0,1-.51-1.16h0a1,1,0,0,1,1.23-.48l21.12,8.22a.87.87,0,0,1,.51,1.16h0A1,1,0,0,1,370.75,411Z" transform="translate(-349.05 -401.11)"/><line x1="0.07" y1="9.45" x2="22.93" y2="0.55"/><path d="M349.12,410.56h0a.87.87,0,0,1,.51-1.16l21.12-8.22a1,1,0,0,1,1.23.48h0a.87.87,0,0,1-.51,1.16L350.35,411A1,1,0,0,1,349.12,410.56Z" transform="translate(-349.05 -401.11)"/></svg>