<svg id="Layer_1" data-name="Layer 1" xmlns="http://www.w3.org/2000/svg" viewBox="0 0 14.21 13.5"><path id="Swap-2" d="M299.24,414.63a.63.63,0,0,1-.39-.58V403.83a.62.62,0,0,1,1.24,0v8.7l1.53-1.56a.62.62,0,0,1,.87,0h0a.64.64,0,0,1,0,.89l-2.59,2.63a.62.62,0,0,1-.68.13Zm-2-2-1.2-1.22a.64.64,0,0,1,0-.89.62.62,0,0,1,.87,0h0l1.2,1.23a.62.62,0,0,1-.87.89Zm-5.72-.63V401.8a.64.64,0,0,1,.38-.58.62.62,0,0,1,.68.14l3,3.07a.63.63,0,0,1,0,.88.62.62,0,0,1-.87,0h0l-2-2V412a.62.62,0,0,1-1.24,0Zm-2.84-6.7a.63.63,0,0,1,0-.88l1.2-1.22a.62.62,0,0,1,.87,0h0a.63.63,0,0,1,0,.88l-1.2,1.22a.6.6,0,0,1-.86,0Z" transform="translate(-288.47 -401.17)"/></svg>