<svg id="Layer_1" data-name="Layer 1" xmlns="http://www.w3.org/2000/svg" viewBox="0 0 24 24"><path id="Path_6469" data-name="Path 6469" d="M217.46,375.4a.75.75,0,0,1-.53-.22l-4.75-4.75a.74.74,0,0,1,0-1.06.71.71,0,0,1,.53-.22H215v-4.5a1.25,1.25,0,0,1,1.25-1.25h2.5a1.25,1.25,0,0,1,1.25,1.25v4.5h2.25a.75.75,0,0,1,.53,1.28L218,375.18A.75.75,0,0,1,217.46,375.4Z" transform="translate(-198.96 -351.4)"/><path id="Path_6470" data-name="Path 6470" d="M216,353.41l-.08-.4a2,2,0,0,0-2-1.61H204a2,2,0,0,0-2,1.59l-3,14.08a1.76,1.76,0,0,0,0,.33,2,2,0,0,0,2,2h9a2.05,2.05,0,0,1,.16-.55,2.65,2.65,0,0,1,1.4-1.45H201l3-14h10l1.72,8a1.87,1.87,0,0,1,.53-.05h1.51Z" transform="translate(-198.96 -351.4)"/><path id="Path_6471" data-name="Path 6471" d="M221.79,361.74a4,4,0,0,0-2.31-1.26L218,353.41h-5a1,1,0,0,1,0-2h5a2,2,0,0,1,2,1.61Z" transform="translate(-198.96 -351.4)"/><path id="Path_6472" data-name="Path 6472" d="M209,362.4a4,4,0,0,1-4-4v-2a1,1,0,0,1,2,0v2a2,2,0,0,0,4,0v-2a1,1,0,0,1,2,0v2A4,4,0,0,1,209,362.4Z" transform="translate(-198.96 -351.4)"/></svg>