<svg id="Layer_1" data-name="Layer 1" xmlns="http://www.w3.org/2000/svg" viewBox="0 0 41.6 34.38"><path id="Path_38" data-name="Path 38" d="M239.58,329.08a2.3,2.3,0,0,1-2.3,2.29H216.66a2.29,2.29,0,1,1-.1-4.58h20.72A2.3,2.3,0,0,1,239.58,329.08Zm-25.21-9.17a2.3,2.3,0,0,0,2.29,2.3h20.62a2.3,2.3,0,0,0,.1-4.59H216.66A2.3,2.3,0,0,0,214.37,319.91Zm16,18.34a2.3,2.3,0,0,0-2.29-2.29H216.66a2.29,2.29,0,0,0-.1,4.58h11.56A2.31,2.31,0,0,0,230.41,338.25Zm18.36-4.88,1.62-1.63a2.29,2.29,0,0,1,3.23,0h0l1.62,1.63a2.28,2.28,0,0,1,0,3.22h0l-1.63,1.62ZM247.14,335l-11.83,11.83a1.14,1.14,0,0,0-.32.8v3.23a1.15,1.15,0,0,0,1.13,1.15h3.25a1.1,1.1,0,0,0,.8-.34L252,339.83Z" transform="translate(-214.32 -317.62)"/></svg>