<svg id="Layer_1" data-name="Layer 1" xmlns="http://www.w3.org/2000/svg" viewBox="0 0 15.13 11.52"><g id="email"><g id="Group_33" data-name="Group 33"><g id="Group_32" data-name="Group 32"><path id="Path_121" data-name="Path 121" d="M316,304.63H303.53a1.4,1.4,0,0,0-.57.13l6.78,6.78,1.52-1.46h0l5.31-5.32A1.4,1.4,0,0,0,316,304.63Z" transform="translate(-302.2 -304.63)"/></g></g><g id="Group_35" data-name="Group 35"><g id="Group_34" data-name="Group 34"><path id="Path_122" data-name="Path 122" d="M317.19,305.39l-5,5,5,5a1.26,1.26,0,0,0,.14-.57V306A1.26,1.26,0,0,0,317.19,305.39Z" transform="translate(-302.2 -304.63)"/></g></g><g id="Group_37" data-name="Group 37"><g id="Group_36" data-name="Group 36"><path id="Path_123" data-name="Path 123" d="M302.33,305.39a1.4,1.4,0,0,0-.13.57v8.86a1.36,1.36,0,0,0,.13.57l5-5Z" transform="translate(-302.2 -304.63)"/></g></g><g id="Group_39" data-name="Group 39"><g id="Group_38" data-name="Group 38"><path id="Path_124" data-name="Path 124" d="M311.57,311,310,312.48a.44.44,0,0,1-.62,0h0L308,311l-5,5a1.4,1.4,0,0,0,.57.13H316a1.4,1.4,0,0,0,.57-.13Z" transform="translate(-302.2 -304.63)"/></g></g></g></svg>