<svg id="Layer_1" data-name="Layer 1" xmlns="http://www.w3.org/2000/svg" viewBox="0 0 15.63 15.63"><path id="Path_129" data-name="Path 129" d="M238,309.59h-6.77a4.44,4.44,0,0,0-4.43,4.44v6.76a4.43,4.43,0,0,0,4.43,4.43H238a4.43,4.43,0,0,0,4.43-4.43V314A4.43,4.43,0,0,0,238,309.59Zm-3.38,12.34a4.69,4.69,0,1,1,4.69-4.69,4.7,4.7,0,0,1-4.69,4.69Zm5.74-9.3a.73.73,0,0,1-.7.75.71.71,0,0,1-.75-.7v-.05h0a.72.72,0,0,1,.75-.7.73.73,0,0,1,.7.7Z" transform="translate(-226.81 -309.59)"/><circle id="Ellipse_27" data-name="Ellipse 27" cx="7.82" cy="7.65" r="3.24"/></svg>