<svg id="Layer_1" data-name="Layer 1" xmlns="http://www.w3.org/2000/svg" viewBox="0 0 9.95 9.6"><g id="telephone"><g id="Group_657" data-name="Group 657"><g id="Group_656" data-name="Group 656"><path id="Path_2497" data-name="Path 2497" d="M307.07,290.71a4.27,4.27,0,0,0-1.89-1.33,7.33,7.33,0,0,0-5.41,0,4.27,4.27,0,0,0-1.89,1.33,1.71,1.71,0,0,0-.31,1.57.83.83,0,0,0,.79.57h1.25a.83.83,0,0,0,.81-1v0l-.06-.25a5,5,0,0,1,2.12-.5,5.2,5.2,0,0,1,2.12.51l-.07.25v0a.83.83,0,0,0,.82,1h1.23a.83.83,0,0,0,.79-.57A1.71,1.71,0,0,0,307.07,290.71Z" transform="translate(-297.5 -288.86)"/></g></g><g id="Group_659" data-name="Group 659"><g id="Group_658" data-name="Group 658"><path id="Path_2498" data-name="Path 2498" d="M305.28,294.12l-.92-1a.36.36,0,0,0-.22-.09h-.6v-.4a.31.31,0,0,0-.25-.34.3.3,0,0,0-.34.26.11.11,0,0,0,0,.08v.4H302v-.4a.3.3,0,0,0-.6-.08v.48h-.6a.31.31,0,0,0-.21.09l-.93,1a4.11,4.11,0,0,0-1.13,2.82v1.22a.3.3,0,0,0,.3.3h7.29a.3.3,0,0,0,.3-.3h0v-1.22A4.07,4.07,0,0,0,305.28,294.12Zm-2.81,3.25a1.56,1.56,0,1,1,1.56-1.56h0a1.56,1.56,0,0,1-1.56,1.56Z" transform="translate(-297.5 -288.86)"/></g></g><g id="Group_661" data-name="Group 661"><g id="Group_660" data-name="Group 660"><path id="Path_2499" data-name="Path 2499" d="M302.47,294.85a1,1,0,1,0,1,1h0A1,1,0,0,0,302.47,294.85Z" transform="translate(-297.5 -288.86)"/></g></g></g></svg>