<svg id="Layer_1" data-name="Layer 1" xmlns="http://www.w3.org/2000/svg" viewBox="0 0 13.49 13.48"><path id="Path_130" data-name="Path 130" d="M241.37,324.15h0v-4.94c0-2.42-.52-4.29-3.34-4.29a2.94,2.94,0,0,0-2.65,1.46h0v-1.23h-2.68v9h2.8v-4.46c0-1.17.22-2.3,1.67-2.3s1.45,1.33,1.45,2.38v4.38Z" transform="translate(-227.88 -310.67)"/><path id="Path_131" data-name="Path 131" d="M228.12,315.15h2.8v9h-2.8Z" transform="translate(-227.88 -310.67)"/><path id="Path_132" data-name="Path 132" d="M229.51,310.67a1.63,1.63,0,1,0,1.62,1.63h0a1.61,1.61,0,0,0-1.62-1.62Z" transform="translate(-227.88 -310.67)"/></svg>