<svg id="Layer_1" data-name="Layer 1" xmlns="http://www.w3.org/2000/svg" viewBox="0 0 18.47 24.25"><path id="Path_119" data-name="Path 119" d="M234.63,309.55a5,5,0,1,0,5,5h0A5,5,0,0,0,234.63,309.55Zm2.84,5.68h-2.13v2.13h-1.42v-2.13h-2.13v-1.42h2.13v-2.13h1.42v2.13h2.13Z" transform="translate(-225.39 -305.28)"/><path id="Path_120" data-name="Path 120" d="M234.63,305.28a9.26,9.26,0,0,0-9.24,9.24,9.15,9.15,0,0,0,2,5.67l7.29,9.34,7.28-9.34a9.09,9.09,0,0,0,2-5.67A9.25,9.25,0,0,0,234.63,305.28Zm0,15.63a6.39,6.39,0,1,1,6.39-6.39A6.4,6.4,0,0,1,234.63,320.91Z" transform="translate(-225.39 -305.28)"/></svg>