<svg id="Layer_1" data-name="Layer 1" xmlns="http://www.w3.org/2000/svg" viewBox="0 0 9.57 9.57"><g id="_003---Call" data-name=" 003---Call"><path id="Shape" d="M301.64,294.4a3.79,3.79,0,0,1-1.16-2.19.3.3,0,0,1,.09-.27l.74-.74a.33.33,0,0,0,.05-.41L300.18,289a.33.33,0,0,0-.42-.12l-1.9.89a.34.34,0,0,0-.18.33,9.86,9.86,0,0,0,8.3,8.3.32.32,0,0,0,.33-.18l.89-1.89a.34.34,0,0,0-.12-.43l-1.82-1.17a.35.35,0,0,0-.41,0l-.74.74a.32.32,0,0,1-.28.1A3.87,3.87,0,0,1,301.64,294.4Z" transform="translate(-297.68 -288.8)"/><path id="Shape-2" d="M305.27,293.91a.33.33,0,0,1-.33-.33,2.48,2.48,0,0,0-2.48-2.47.33.33,0,0,1-.33-.33.33.33,0,0,1,.33-.33,3.14,3.14,0,0,1,3.14,3.13A.33.33,0,0,1,305.27,293.91Z" transform="translate(-297.68 -288.8)"/><path id="Shape-3" d="M306.92,293.91a.33.33,0,0,1-.33-.33h0a4.13,4.13,0,0,0-4.13-4.12.33.33,0,1,1,0-.66,4.79,4.79,0,0,1,4.79,4.78.33.33,0,0,1-.33.33Z" transform="translate(-297.68 -288.8)"/></g></svg>