<svg id="Layer_1" data-name="Layer 1" xmlns="http://www.w3.org/2000/svg" viewBox="0 0 62.25 58.95"><g id="magic-wand"><path id="Path_97" data-name="Path 97" d="M305.85,520.72l2.5-9.85A2.35,2.35,0,0,0,308,509a1.15,1.15,0,0,0-1.42-.44l-2.05,1a1.24,1.24,0,0,0-.52,1.43c.15.59.62.9,1.06.7l1.48-.68-2.35,9.25a2.45,2.45,0,0,0,.14,1.58l3.95,8.52-7.61-.8a1.29,1.29,0,0,0-1.26.84l-3.86,8-2-8.75a1.68,1.68,0,0,0-.92-1.24l-6.5-2.64,6-5.19a2.12,2.12,0,0,0,.62-1.7l-.6-10.26,6.33,5.33a1.07,1.07,0,0,0,1.17.18l2-.93a1.26,1.26,0,0,0,.52-1.43c-.15-.59-.63-.9-1.06-.7l-1.88.87-6.7-5.65a1.08,1.08,0,0,0-1.44,0,2.08,2.08,0,0,0-.66,1.73l.63,10.8-6.36,5.54a2.1,2.1,0,0,0-.61,1.81,1.76,1.76,0,0,0,1,1.51l3.74,1.52L269,555.85a1.42,1.42,0,0,0,0,1.6.7.7,0,0,0,1,.22.58.58,0,0,0,.22-.22l20.46-27.57,1.41.57.42,1.9-6.24,8.42a1.4,1.4,0,0,0,0,1.59.69.69,0,0,0,.95.23.72.72,0,0,0,.23-.23L293,534.8l1.13,5a1.56,1.56,0,0,0,1.12,1.3.68.68,0,0,0,.2,0,1.32,1.32,0,0,0,1.15-.84l4.1-8.57,8,.85a1.32,1.32,0,0,0,1.28-.89,2.42,2.42,0,0,0,0-1.94Z" transform="translate(-258.27 -498.83)"/><path id="Path_98" data-name="Path 98" d="M288.92,529.6l-25.35,25.34a1.75,1.75,0,1,1-2.47-2.46l6.2-6.2a1.12,1.12,0,0,0-1.59-1.59l-6.2,6.2a4.07,4.07,0,0,0-.1,5.75,4,4,0,0,0,2.79,1.14,4.17,4.17,0,0,0,3-1.24l25.35-25.35a1.12,1.12,0,0,0,0-1.59,1.14,1.14,0,0,0-1.6,0l0,0Z" transform="translate(-258.27 -498.83)"/><path id="Path_99" data-name="Path 99" d="M277.59,518.41a1.85,1.85,0,0,0,1.42.12l4.43-1.49a1.79,1.79,0,0,0,.73-2.93l-3.31-3.49a1.79,1.79,0,0,0-2.44-.15h0c-2.4,2-2.26,4.81-1.71,6.82a1.83,1.83,0,0,0,.88,1.12Zm2-5.91,2.5,2.64-3.27,1.1a3.91,3.91,0,0,1,.77-3.74Z" transform="translate(-258.27 -498.83)"/><path id="Path_100" data-name="Path 100" d="M297.47,506.47a1.78,1.78,0,0,0,1.47.77H299a1.79,1.79,0,0,0,1.48-.89l2.42-4.17a1.79,1.79,0,0,0-.55-2.38h0c-2.59-1.74-5.25-.81-7,.28a1.79,1.79,0,0,0-.59,2.46.41.41,0,0,0,.05.09Zm3.26-5-1.83,3.14-2-2.84A3.93,3.93,0,0,1,300.73,501.45Z" transform="translate(-258.27 -498.83)"/><path id="Path_101" data-name="Path 101" d="M288.17,506a1.13,1.13,0,0,0,1.75-1.42L287.87,502a1.13,1.13,0,0,0-1.79,1.37l0,0Z" transform="translate(-258.27 -498.83)"/><path id="Path_102" data-name="Path 102" d="M304.52,533a1.8,1.8,0,0,0-2.93.73l-1.48,4.44a1.79,1.79,0,0,0,1.13,2.27l.1,0a8.83,8.83,0,0,0,2.35.33,5.55,5.55,0,0,0,4.47-2,1.79,1.79,0,0,0-.14-2.44Zm-2.12,5.41,1.1-3.28,2.64,2.51a3.91,3.91,0,0,1-3.74.77Z" transform="translate(-258.27 -498.83)"/><path id="Path_103" data-name="Path 103" d="M319.55,515.94h0a1.8,1.8,0,0,0-2.38-.54L313,517.82a1.8,1.8,0,0,0-.65,2.45,2.06,2.06,0,0,0,.53.57l3.84,2.67a1.79,1.79,0,0,0,2.49-.45l.06-.09C321.25,519.75,320.51,517.37,319.55,515.94Zm-1.95,5.44-2.84-2,3.15-1.83a4,4,0,0,1-.31,3.81Z" transform="translate(-258.27 -498.83)"/><path id="Path_104" data-name="Path 104" d="M317.31,529.79l-2.53-2a1.13,1.13,0,0,0-1.46,1.72l0,0,2.54,2a1.12,1.12,0,0,0,1.41-1.75Z" transform="translate(-258.27 -498.83)"/><path id="Path_105" data-name="Path 105" d="M314.64,505.19a1.13,1.13,0,0,0-1.59-.05h0l-2.81,2.64a1.13,1.13,0,0,0,1.54,1.64l2.81-2.63a1.12,1.12,0,0,0,.06-1.59Z" transform="translate(-258.27 -498.83)"/></g></svg>