<svg id="Layer_1" data-name="Layer 1" xmlns="http://www.w3.org/2000/svg" viewBox="0 0 17.81 14.67"><g id="message"><path id="Path_5731" data-name="Path 5731" d="M325.4,291.42H314.89a3.66,3.66,0,0,0-3.65,3.65v5.65a3.6,3.6,0,0,0,2.58,3.45l1.77,1.76a.51.51,0,0,0,.74,0l1.61-1.61h7.45a3.65,3.65,0,0,0,3.66-3.65v-5.6A3.66,3.66,0,0,0,325.4,291.42Zm2.61,9.24a2.61,2.61,0,0,1-2.61,2.61h-7.67a.52.52,0,0,0-.37.16l-1.4,1.4-1.5-1.5a.51.51,0,0,0-.24-.13,2.56,2.56,0,0,1-1.94-2.48v-5.65a2.62,2.62,0,0,1,2.61-2.61H325.4a2.62,2.62,0,0,1,2.61,2.61Z" transform="translate(-311.24 -291.42)"/><path id="Path_5732" data-name="Path 5732" d="M323.46,296.42h-6.63a.53.53,0,0,0-.52.53.52.52,0,0,0,.52.52h6.63A.52.52,0,0,0,324,297,.52.52,0,0,0,323.46,296.42Z" transform="translate(-311.24 -291.42)"/><path id="Path_5733" data-name="Path 5733" d="M323.46,298.27h-6.63a.52.52,0,0,0,0,1h6.63a.52.52,0,0,0,0-1Z" transform="translate(-311.24 -291.42)"/></g></svg>