<svg id="Layer_1" data-name="Layer 1" xmlns="http://www.w3.org/2000/svg" viewBox="0 0 39.6 34.19"><g id="Group_7" data-name="Group 7"><g id="Group_6" data-name="Group 6"><path id="Path_75" data-name="Path 75" d="M338.12,300.58a.85.85,0,0,0-.9.79v11.81a.85.85,0,0,1-.8.9H303.93a.85.85,0,0,1-.9-.8v-11.8a.9.9,0,0,0-1.8,0v11.7a2.65,2.65,0,0,0,2.6,2.7h32.49a2.66,2.66,0,0,0,2.7-2.6v-11.8a.85.85,0,0,0-.8-.9Z" transform="translate(-300.33 -281.68)"/></g></g><g id="Group_9" data-name="Group 9"><g id="Group_8" data-name="Group 8"><path id="Path_76" data-name="Path 76" d="M337.22,288H303a2.65,2.65,0,0,0-2.7,2.6v5.86a2.7,2.7,0,0,0,2.07,2.61l14.13,3.15v2.88a.86.86,0,0,0,.8.9h5.5a.86.86,0,0,0,.9-.8v-3l14.13-3.15a2.7,2.7,0,0,0,2.07-2.61v-5.76a2.66,2.66,0,0,0-2.6-2.7Zm-15.3,16.2h-3.6v-3.6h3.6Zm16.2-7.74a.87.87,0,0,1-.72.9l-13.68,3.06v-.72a.84.84,0,0,0-.79-.9h-5.51a.86.86,0,0,0-.9.79v.83l-13.67-3.06a.88.88,0,0,1-.72-.9v-5.76a.85.85,0,0,1,.8-.9h34.29a.85.85,0,0,1,.9.8v5.86Z" transform="translate(-300.33 -281.68)"/></g></g><g id="Group_11" data-name="Group 11"><g id="Group_10" data-name="Group 10"><path id="Path_77" data-name="Path 77" d="M324.62,281.68h-9a2.66,2.66,0,0,0-2.7,2.6v1a.9.9,0,1,0,1.8,0v-.9a.86.86,0,0,1,.8-.9h9.1a.84.84,0,0,1,.9.8.17.17,0,0,1,0,.1v.9a.9.9,0,0,0,1.8,0v-.9a2.65,2.65,0,0,0-2.6-2.7Z" transform="translate(-300.33 -281.68)"/></g></g></svg>