<svg id="Layer_1" data-name="Layer 1" xmlns="http://www.w3.org/2000/svg" viewBox="0 0 66.6 57.58"><g id="bar-graph"><path id="Path_107" data-name="Path 107" d="M263.77,523a4.49,4.49,0,0,0,2.54-.79l6.94,7.17a4.48,4.48,0,1,0,8,.88l6.56-8a4.48,4.48,0,0,0,5.83-6.7l7-8.39a4.48,4.48,0,0,0,6.31-.39,4.3,4.3,0,0,0,.55-.79l5.34,3.19a4.5,4.5,0,1,0,1-1.28L308,504.44a4.48,4.48,0,1,0-8.4,1.44l-7.2,8.69a4.48,4.48,0,0,0-5.72,6.57l-6.27,7.68a4.47,4.47,0,0,0-6.05-.6l-6.89-7.12a4.49,4.49,0,1,0-3.67,1.91Zm53-14.73a2.89,2.89,0,1,1-2.89,2.89,2.88,2.88,0,0,1,2.89-2.89Zm-13.26-7.37a2.89,2.89,0,1,1-2.89,2.89,2.88,2.88,0,0,1,2.89-2.89Zm-13.26,14.73a2.89,2.89,0,1,1-2.88,2.89,2.89,2.89,0,0,1,2.88-2.89ZM277,528.9a2.89,2.89,0,1,1-2.89,2.89A2.88,2.88,0,0,1,277,528.9Zm-13.26-13.26a2.89,2.89,0,1,1-2.88,2.89A2.89,2.89,0,0,1,263.77,515.64Z" transform="translate(-256.25 -499.33)"/><path id="Path_108" data-name="Path 108" d="M322.05,551.74h-.93v-32.4a.77.77,0,0,0-.77-.78h-7.18a.78.78,0,0,0-.8.76v32.42h-4.51V512a.82.82,0,0,0-.78-.84h-7.17a.84.84,0,0,0-.81.84v39.76h-4.51v-25a.82.82,0,0,0-.77-.85h-7.17a.86.86,0,0,0-.82.85v25h-4.51V540a.8.8,0,0,0-.76-.84H273.4a.86.86,0,0,0-.83.84v11.77h-4.51v-25a.85.85,0,0,0-.85-.85h-7.07a.85.85,0,0,0-.84.84v3a.8.8,0,0,0,.72.87.78.78,0,0,0,.87-.71.43.43,0,0,0,0-.16v-2.26h5.57v24.29h-5.57V535.28a.8.8,0,0,0-1.59,0v16.46h-2.25a.75.75,0,0,0-.8.71v3.67a.79.79,0,0,0,.79.79h65a.8.8,0,0,0,.8-.78h0v-3.63a.77.77,0,0,0-.76-.76ZM314,520.16h5.57v31.58H314Zm-13.27-7.43h5.57v39h-5.57Zm-13.26,14.72H293v24.29h-5.57Zm-13.27,13.27h5.57v11h-5.57Zm47.1,14.59H257.84v-2h63.42Z" transform="translate(-256.25 -499.33)"/><path id="Path_109" data-name="Path 109" d="M262.89,531.53a.8.8,0,0,0,.8-.8v-.94a.8.8,0,0,0-1.6-.16v1.1A.8.8,0,0,0,262.89,531.53Z" transform="translate(-256.25 -499.33)"/><path id="Path_110" data-name="Path 110" d="M262.09,540.32a.8.8,0,0,0,.87.72.81.81,0,0,0,.72-.72V533.9A.81.81,0,0,0,263,533a.8.8,0,0,0-.87.72.43.43,0,0,0,0,.16Z" transform="translate(-256.25 -499.33)"/></g></svg>