<svg id="Layer_1" data-name="Layer 1" xmlns="http://www.w3.org/2000/svg" viewBox="0 0 15 15"><g id="Send"><path id="Send-2" d="M296.83,414.76l-3.07-5.09a.56.56,0,0,1,.08-.7l4.37-4.39a.56.56,0,0,1,.79,0h0a.59.59,0,0,1,0,.8L295,409.46l2.84,4.71a.34.34,0,0,0,.47.11.36.36,0,0,0,.15-.19l1.74-5.86a.56.56,0,0,1,.7-.38h0a.57.57,0,0,1,.38.7l-1.74,5.86a1.45,1.45,0,0,1-1.22,1l-.19,0A1.44,1.44,0,0,1,296.83,414.76Zm-5.46-6.49-2.54-1.56a1.47,1.47,0,0,1,.36-2.67l12.07-3.51a1.43,1.43,0,0,1,1.44.38,1.48,1.48,0,0,1,.37,1.46l-.94,3.15a.56.56,0,0,1-1.08-.33h0L302,402a.34.34,0,0,0-.23-.42.41.41,0,0,0-.19,0l-12.07,3.51a.35.35,0,0,0-.23.43.32.32,0,0,0,.15.19l2.54,1.57a.56.56,0,0,1,.18.78.57.57,0,0,1-.48.27A.52.52,0,0,1,291.37,408.27Z" transform="translate(-288.13 -400.47)"/></g></svg>