<svg id="Layer_1" data-name="Layer 1" xmlns="http://www.w3.org/2000/svg" viewBox="0 0 15 15"><path id="Buy-2" d="M299.44,414.29a1.14,1.14,0,0,1,1.16-1.12,1.14,1.14,0,0,1,0,2.27A1.14,1.14,0,0,1,299.44,414.29Zm-8.44,0a1.14,1.14,0,0,1,1.16-1.12,1.14,1.14,0,0,1,0,2.27A1.14,1.14,0,0,1,291,414.29Zm1.26-2.38a1.92,1.92,0,0,1-1.91-1.79l-.68-8.34-1.13-.2a.57.57,0,0,1,.18-1.13h0l1.56.28a.56.56,0,0,1,.46.51l.73,8.78a.78.78,0,0,0,.78.74h8.19a.8.8,0,0,0,.78-.69l.71-5a.47.47,0,0,0-.1-.36.44.44,0,0,0-.34-.16h-8.06a.57.57,0,0,1,0-1.14h8.06a1.56,1.56,0,0,1,1.19.55,1.6,1.6,0,0,1,.36,1.28l-.71,5a1.94,1.94,0,0,1-1.9,1.68Zm4.9-4.54a.58.58,0,0,1-.57-.58.57.57,0,0,1,.57-.57h2.08a.57.57,0,0,1,.58.57.58.58,0,0,1-.58.58Z" transform="translate(-288.07 -400.44)"/></svg>