<svg id="Layer_1" data-name="Layer 1" xmlns="http://www.w3.org/2000/svg" viewBox="0 0 44.94 44.95"><path id="Path_83" data-name="Path 83" d="M338.27,302.16a1.74,1.74,0,0,0-.66-1.35l-9.49-7.3-9.49,7.3a1.7,1.7,0,0,0,.79,3V314h17.4V303.83A1.7,1.7,0,0,0,338.27,302.16Zm-17.4,10.4v-8.7h14.5v8.7Zm15.7-10.15h-16.9a.25.25,0,0,1-.15-.45l8.6-6.61,8.6,6.61a.25.25,0,0,1,0,.35A.3.3,0,0,1,336.57,302.41Z" transform="translate(-297.67 -276.31)"/><path id="Path_84" data-name="Path 84" d="M342.61,290.08v-1.45a2.17,2.17,0,0,0-2.17-2.17h-1.29l-17.39-8-.61,1.32,14.54,6.71H304.6l14.53-6.71-.6-1.32-17.39,8h-1.29a2.18,2.18,0,0,0-2.18,2.17v1.45a2.15,2.15,0,0,0,1.45,2v23.47a2.15,2.15,0,0,0-1.45,2v1.45a2.18,2.18,0,0,0,2.18,2.17h40.59a2.17,2.17,0,0,0,2.17-2.17v-1.45a2.15,2.15,0,0,0-1.45-2V292.12A2.15,2.15,0,0,0,342.61,290.08Zm-42,25.37v-23.2h39.14v23.2Zm-1.45-26.82a.73.73,0,0,1,.73-.72h40.59a.72.72,0,0,1,.72.72v1.45a.73.73,0,0,1-.72.73H299.85a.73.73,0,0,1-.73-.73Zm42,30.45a.72.72,0,0,1-.72.72H299.85a.73.73,0,0,1-.73-.72v-1.45a.73.73,0,0,1,.73-.73h40.59a.73.73,0,0,1,.72.73Z" transform="translate(-297.67 -276.31)"/><path id="Path_85" data-name="Path 85" d="M302,305.31h14.5v-11.6H302Zm1.45-10.15h11.6v8.7h-11.6Z" transform="translate(-297.67 -276.31)"/><path id="Path_86" data-name="Path 86" d="M310.71,299.21,308.54,297l-4.13,4.14,1,1,3.11-3.11,2.17,2.18,3.42-3.42-1-1Z" transform="translate(-297.67 -276.31)"/><path id="Path_93" data-name="Path 93" d="M320.14,280.66a2.18,2.18,0,1,1,2.18-2.18h0A2.19,2.19,0,0,1,320.14,280.66Z" transform="translate(-297.67 -276.31)"/></svg>