<svg id="Layer_1" data-name="Layer 1" xmlns="http://www.w3.org/2000/svg" viewBox="0 0 16 16"><path d="M302.63,408.62h-.31v-2.19a1.81,1.81,0,0,0-1.41-1.76l-1.42-2.47a1.57,1.57,0,0,0-1.8-.71l-1-1a1.58,1.58,0,0,0-2.21,0l-4.17,4.17h-.89a1.81,1.81,0,0,0-1.81,1.81v7.76a1.81,1.81,0,0,0,1.81,1.81h4.16a.32.32,0,0,0,0-.63h-4.16a1.18,1.18,0,0,1-1.18-1.18v-7.76a1.18,1.18,0,0,1,1.18-1.18h11.13a1.19,1.19,0,0,1,1.19,1.18v2.19h-2.32a1.69,1.69,0,0,0-.08,3.38h2.4v2.19a1.19,1.19,0,0,1-1.19,1.18h-4.16a.32.32,0,0,0,0,.63h4.16a1.81,1.81,0,0,0,1.81-1.81V412h.31a.94.94,0,0,0,.94-.94v-1.5A.94.94,0,0,0,302.63,408.62Zm-4.26-6.54a.9.9,0,0,1,.57.44l1.22,2.1h-6.74l4.25-2.45a.92.92,0,0,1,.71-.09Zm-3.48-1.18a.92.92,0,0,1,1.32,0l.88.88-4.92,2.84h-1ZM303,411.06a.31.31,0,0,1-.32.31h-3.25a1.06,1.06,0,0,1,0-2.12h3.25a.31.31,0,0,1,.32.31Z" transform="translate(-287.57 -400)"/><path d="M299.3,409.92a.38.38,0,0,0-.37.37.37.37,0,0,0,.37.37.37.37,0,0,0,0-.74Z" transform="translate(-287.57 -400)"/><path d="M295,415.26a.37.37,0,0,0-.37.37.37.37,0,0,0,.74,0,.39.39,0,0,0-.11-.27A.4.4,0,0,0,295,415.26Z" transform="translate(-287.57 -400)"/></svg>