<svg id="Layer_1" data-name="Layer 1" xmlns="http://www.w3.org/2000/svg" viewBox="0 0 61.42 61.43"><path id="Path_59" data-name="Path 59" d="M313.53,524.13V504.7a6.93,6.93,0,1,0-7.92-6.86H258.06v39.63h29.77a15.84,15.84,0,1,0,25.7-13.34Zm-1-31.24a5,5,0,1,1-5,4.95h0A5,5,0,0,1,312.54,492.89ZM260,499.83H305.9A7,7,0,0,0,307,502l-6.06,6.06a2.86,2.86,0,0,0-2.55,0l-2-2a2.83,2.83,0,0,0,.3-1.28,3,3,0,0,0-5.94,0,2.83,2.83,0,0,0,.3,1.28l-5,5a3,3,0,1,0,1.7,2.67,3.08,3.08,0,0,0-.3-1.27l5-5a2.84,2.84,0,0,0,2.54,0l2,2a3.11,3.11,0,0,0-.3,1.27,3,3,0,1,0,5.95,0,3.11,3.11,0,0,0-.3-1.27l6.06-6.06a6.76,6.76,0,0,0,3.15,1.31v18.07A15.76,15.76,0,0,0,291.74,526v-4.41H285.8v11.89h2.27a16.46,16.46,0,0,0-.24,2H260Zm39.62,9.9a1,1,0,1,1-1,1A1,1,0,0,1,299.66,509.73Zm-6.93-5a1,1,0,1,1,1,1A1,1,0,0,1,292.73,504.78Zm-6.93,8.91a1,1,0,1,1-1-1h0a1,1,0,0,1,1,1Zm17.83,30.71a7.93,7.93,0,1,1,7.92-7.92h0A7.93,7.93,0,0,1,303.63,544.4Zm-13.87-15.58a15.78,15.78,0,0,0-1.18,2.7h-.8V523.6h2Zm12.88-6.16v4a9.9,9.9,0,0,0-8,13.92l-3.43,2a13.83,13.83,0,0,1,11.47-19.87Zm1,27.69a13.88,13.88,0,0,1-11.48-6.1l3.45-2a9.87,9.87,0,0,0,13.77,2.29,9.76,9.76,0,0,0,2.29-2.29l3.45,2a13.87,13.87,0,0,1-11.48,6.1Zm12.46-7.82-3.44-2a9.9,9.9,0,0,0-8-13.92v-4a13.84,13.84,0,0,1,11.47,19.87Z" transform="translate(-258.06 -490.91)"/></svg>