<svg id="Layer_1" data-name="Layer 1" xmlns="http://www.w3.org/2000/svg" viewBox="0 0 13.81 17.33"><g id="Profile"><path id="Profile-2" d="M440.05,516.05a.61.61,0,0,1-.6-.63.63.63,0,0,1,.64-.6h.85c3.75,0,5.66-.65,5.66-1.93s-1.9-1.95-5.66-1.95-5.66.65-5.66,1.93c0,.42.15,1,1.45,1.46a.63.63,0,0,1,.41.78.62.62,0,0,1-.78.41h0c-1.9-.64-2.3-1.79-2.3-2.64,0-2.84,3.94-3.17,6.9-3.17,1.71,0,6.91,0,6.91,3.19,0,2.84-3.94,3.17-6.91,3.17Zm-3.77-12.63A4.65,4.65,0,1,1,441,508h0A4.64,4.64,0,0,1,436.28,503.42Zm1.25,0A3.4,3.4,0,1,0,441,500h0a3.4,3.4,0,0,0-3.4,3.38Z" transform="translate(-434.03 -498.74)"/></g></svg>