<svg id="Layer_1" data-name="Layer 1" xmlns="http://www.w3.org/2000/svg" viewBox="0 0 16.81 18"><g id="color-palette"><path id="Path_5729" data-name="Path 5729" d="M314.89,303.34a1.23,1.23,0,1,0,1.23,1.23A1.23,1.23,0,0,0,314.89,303.34Zm0,1.76a.53.53,0,0,1,0-1.05.52.52,0,0,1,.53.52A.53.53,0,0,1,314.89,305.1Z" transform="translate(-311.69 -289.78)"/><path id="Path_5730" data-name="Path 5730" d="M328.35,298l-.67-.94a.35.35,0,0,0-.49,0,.34.34,0,0,0-.08.46l.66.93a.08.08,0,0,1,0,.11L325.6,300l-2.76-3.87.26-.5,1.75-1.25a.08.08,0,0,1,.1,0l.52.73a.37.37,0,0,0,.49.11.35.35,0,0,0,.11-.48l0,0-.53-.73a.77.77,0,0,0-1.08-.18l-.64.45.36-.69a.77.77,0,0,0-.34-1.05h0l-4.31-2.22a.77.77,0,0,0-1.05.34l-.36.69v-.78a.78.78,0,0,0-.78-.78h-4.85a.78.78,0,0,0-.78.78v14a3.2,3.2,0,0,0,5.07,2.61l0,0,3.38-2.4,2.78-2h0l5.23-3.73a.77.77,0,0,0,.18-1.08ZM325,300.42,322.82,302l-1.74-2.43,1.4-2.72ZM320,304l-.71-1,1.4-2.72,1.53,2.14Zm-.84-2.28-1.09-.57v-3.06l2.34,1.2-.08.16h0Zm1.57-3.05-2.66-1.37v-3l3.9,2Zm-3.36-2h-5v-2.71h5Zm-5,.7h5V300h-5Zm5.71,4.6.77.4-.77,1.5Zm.86,1.77.5.7-1.37,1Zm.12-12.72a.07.07,0,0,1,.1,0l4.32,2.22a.08.08,0,0,1,0,.1l-1.2,2.35-4.23-2.18v-.55Zm-6.61-.49h4.85a.09.09,0,0,1,.08.08h0v2.64h-5v-2.64a.08.08,0,0,1,.07-.08Zm2.42,16.6a2.51,2.51,0,0,1-2.5-2.5v-3.83h5v3.82a2.51,2.51,0,0,1-2.5,2.5Z" transform="translate(-311.69 -289.78)"/><circle id="Ellipse_725" data-name="Ellipse 725" cx="14.89" cy="6.3" r="0.35"/></g></svg>