<svg id="Layer_1" data-name="Layer 1" xmlns="http://www.w3.org/2000/svg" viewBox="0 0 20 19"><path id="Logout-2" d="M289.87,417.42a4.28,4.28,0,0,1-4.33-4.22.74.74,0,0,1,.75-.73h0a.73.73,0,0,1,.75.73h0a2.8,2.8,0,0,0,2.83,2.76h4.75a2.78,2.78,0,0,0,2.82-2.75v-.9a.75.75,0,0,1,1.5,0v.9a4.27,4.27,0,0,1-4.32,4.21Zm11.55-6.22a.7.7,0,0,1,0-1l0,0,1.56-1.52h-9.89a.73.73,0,1,1,0-1.46h11.7a.75.75,0,0,1,.69.45.7.7,0,0,1-.16.8l-2.85,2.77a.77.77,0,0,1-1.06,0Zm-15.88-1.33v-7.23a4.28,4.28,0,0,1,4.32-4.22h4.75a4.29,4.29,0,0,1,4.33,4.23v.88a.75.75,0,0,1-1.5,0v-.88a2.79,2.79,0,0,0-2.83-2.76h-4.75a2.79,2.79,0,0,0-2.82,2.75v7.23a.75.75,0,0,1-1.5,0Zm16.6-3.5-.72-.69a.72.72,0,0,1,0-1h0a.75.75,0,0,1,1.06,0l.72.69a.73.73,0,0,1,0,1l0,0a.76.76,0,0,1-1.06,0Z" transform="translate(-285.54 -398.42)"/></svg>