<svg id="Layer_1" data-name="Layer 1" xmlns="http://www.w3.org/2000/svg" viewBox="0 0 13.54 15.03"><path id="Document-2" d="M296.32,415.42a.55.55,0,0,1,0-1.09h2.14a2.48,2.48,0,0,0,2.78-2.13,2.57,2.57,0,0,0,0-.68v-7.19a2.47,2.47,0,0,0-2.08-2.81,2.66,2.66,0,0,0-.69,0h-5.78a2.48,2.48,0,0,0-2.79,2.13,3.1,3.1,0,0,0,0,.68v7.19a2.46,2.46,0,0,0,2.09,2.8,2.28,2.28,0,0,0,.69,0,.55.55,0,0,1,0,1.09,3.59,3.59,0,0,1-3.86-3.9v-7.19a3.55,3.55,0,0,1,3.19-3.9,3,3,0,0,1,.67,0h5.78a3.59,3.59,0,0,1,3.87,3.27,4.56,4.56,0,0,1,0,.64v7.19a3.57,3.57,0,0,1-3.19,3.9,3.64,3.64,0,0,1-.66,0Zm-3.46-3.78h0a.54.54,0,1,1,0-1.08h5.41a.54.54,0,1,1,0,1.08Zm5.4-3.17h-5.4a.56.56,0,0,1-.48-.62.54.54,0,0,1,.48-.47h5.41a.51.51,0,0,1,.51.25.57.57,0,0,1,0,.59.52.52,0,0,1-.46.25h-.06Zm-5.4-3.17a.55.55,0,0,1-.47-.62.56.56,0,0,1,.47-.48h2.06a.56.56,0,0,1,.48.62.55.55,0,0,1-.48.48Z" transform="translate(-288.8 -400.41)"/></svg>