<svg id="Layer_1" data-name="Layer 1" xmlns="http://www.w3.org/2000/svg" viewBox="0 0 14.53 15.34"><path id="Home-2" d="M291.34,415.7a3,3,0,0,1-3-3v-6.15a2.34,2.34,0,0,1,.9-1.82l.56-.42a.61.61,0,0,1,.7,1l-.54.4a1.11,1.11,0,0,0-.41.86v6.16a1.82,1.82,0,0,0,1.82,1.81h3.09v0a.61.61,0,1,1,0,1.21Zm7.11,0a1.47,1.47,0,0,1-1.47-1.47v-2.78a.4.4,0,0,0-.39-.39h-2a.39.39,0,0,0-.39.39h0v1.06a.61.61,0,1,1-1.21,0h0v-1.06a1.61,1.61,0,0,1,1.61-1.61h2a1.6,1.6,0,0,1,1.6,1.61v2.77a.26.26,0,0,0,.26.26h1.38a1.81,1.81,0,0,0,1.81-1.82v-6.15a1.12,1.12,0,0,0-.43-.88l-4.64-3.7a1.57,1.57,0,0,0-2,0L293.06,403a.61.61,0,0,1-.86-.12.6.6,0,0,1,.12-.86l0,0,1.47-1.07a2.8,2.8,0,0,1,3.5,0l4.65,3.7a2.39,2.39,0,0,1,.88,1.82v6.17a3,3,0,0,1-3,3h-1.35Z" transform="translate(-288.31 -400.36)"/></svg>