<svg id="Layer_1" data-name="Layer 1" xmlns="http://www.w3.org/2000/svg" viewBox="0 0 17.52 17.5"><g id="Group_780" data-name="Group 780"><path id="Path_5718" data-name="Path 5718" d="M327.81,294.41H312.5a1.11,1.11,0,0,1-1.09-1.1v-2.19A1.09,1.09,0,0,1,312.5,290h15.31a1.1,1.1,0,0,1,1.1,1.09v2.19A1.12,1.12,0,0,1,327.81,294.41Zm-15.31-3.65a.36.36,0,0,0-.36.36v2.19a.37.37,0,0,0,.36.37h15.31a.38.38,0,0,0,.37-.37v-2.19a.37.37,0,0,0-.37-.36Z" transform="translate(-311.39 -290.03)"/></g><g id="Group_781" data-name="Group 781"><path id="Path_5719" data-name="Path 5719" d="M326.72,301a2.19,2.19,0,1,1,2.19-2.19h0A2.19,2.19,0,0,1,326.72,301Zm0-3.65a1.46,1.46,0,1,0,1.46,1.46A1.46,1.46,0,0,0,326.72,297.32Z" transform="translate(-311.39 -290.03)"/></g><g id="Group_782" data-name="Group 782"><path id="Path_5720" data-name="Path 5720" d="M326.72,307.53a2.19,2.19,0,1,1,2.19-2.19h0A2.19,2.19,0,0,1,326.72,307.53Zm0-3.65a1.46,1.46,0,1,0,1.46,1.46A1.46,1.46,0,0,0,326.72,303.88Z" transform="translate(-311.39 -290.03)"/></g><g id="Group_783" data-name="Group 783"><path id="Path_5721" data-name="Path 5721" d="M322.71,298.05H311.77a.36.36,0,0,1-.34-.38.37.37,0,0,1,.34-.35h10.94a.37.37,0,0,1,0,.73Z" transform="translate(-311.39 -290.03)"/></g><g id="Group_784" data-name="Group 784"><path id="Path_5722" data-name="Path 5722" d="M322.71,300.24H311.77a.36.36,0,0,1-.34-.38.37.37,0,0,1,.34-.35h10.94a.36.36,0,0,1,.34.38A.37.37,0,0,1,322.71,300.24Z" transform="translate(-311.39 -290.03)"/></g><g id="Group_785" data-name="Group 785"><path id="Path_5723" data-name="Path 5723" d="M322.71,304.61H311.77a.36.36,0,0,1-.34-.38.35.35,0,0,1,.34-.34h10.94a.36.36,0,0,1,0,.72Z" transform="translate(-311.39 -290.03)"/></g><g id="Group_786" data-name="Group 786"><path id="Path_5724" data-name="Path 5724" d="M322.71,306.8H311.77a.37.37,0,0,1,0-.73h11a.37.37,0,0,1,.38.35.36.36,0,0,1-.34.38Z" transform="translate(-311.39 -290.03)"/></g></svg>