<svg id="Layer_1" data-name="Layer 1" xmlns="http://www.w3.org/2000/svg" viewBox="0 0 19.9 16.94"><g id="best-price"><path id="Path_5725" data-name="Path 5725" d="M329.19,291.89l-3.47-1.44a1.56,1.56,0,0,0-1.2,0l-1.66.69a.28.28,0,0,0-.18.37.29.29,0,0,0,.37.19l0,0,1.67-.69a1,1,0,0,1,.74,0l3.47,1.44a.87.87,0,0,1,.55.81v12.47a.91.91,0,0,1-.93.88h-.47a.29.29,0,1,0,0,.58h.5a1.49,1.49,0,0,0,1.52-1.46V293.23A1.49,1.49,0,0,0,329.19,291.89Z" transform="translate(-310.19 -290.33)"/><path id="Path_5726" data-name="Path 5726" d="M326.84,306.59h-4.9a1.26,1.26,0,0,0,0-1.64,1.25,1.25,0,0,0,.37-1.95,1.26,1.26,0,0,0,.48-1.71,1.66,1.66,0,0,0-.16-.21,1.86,1.86,0,0,0,.28-.21,1.26,1.26,0,0,0,0-1.78,1.29,1.29,0,0,0-.89-.36h-1.31v-5.49a.89.89,0,0,1,.56-.81l.53-.22a.29.29,0,0,0,.18-.37.3.3,0,0,0-.37-.18l0,0-.53.22a1.44,1.44,0,0,0-.91,1.34v5.49h-1.22a6.83,6.83,0,0,0-.1-4.17,1.14,1.14,0,0,0-2-.34,1.07,1.07,0,0,0-.22.73c.09,1.76-.72,2.36-1.84,3.2a13.36,13.36,0,0,0-1.17.94v-.38a.29.29,0,0,0-.29-.29h-2.82a.29.29,0,0,0-.29.29V307a.29.29,0,0,0,.29.29h2.82a.29.29,0,0,0,.29-.29v-.74a2.41,2.41,0,0,1,1.35.46,1.49,1.49,0,0,0,.9.31H321a1.65,1.65,0,0,0,.68.16h5.19a.3.3,0,0,0,0-.59Zm-11.54-.34a3,3,0,0,0-1.71-.59v-3.41a.29.29,0,0,0-.58,0v4.44h-2.24V299H313v2a.29.29,0,1,0,.58,0v-1.1a10.43,10.43,0,0,1,1.51-1.31c1.12-.83,2.18-1.62,2.08-3.69a.56.56,0,0,1,.53-.59.66.66,0,0,1,.36.11.61.61,0,0,1,.2.29,6.13,6.13,0,0,1,0,4.18.3.3,0,0,0,.17.38.12.12,0,0,0,.1,0H322a.68.68,0,0,1,.67.68.67.67,0,0,1-.67.67h-1.2a.29.29,0,1,0,0,.58h.91a.67.67,0,0,1,0,1.34h-.87a.3.3,0,0,0,0,.59h.58a.67.67,0,0,1,0,1.34h-.87a.29.29,0,0,0-.27.31.28.28,0,0,0,.27.27H321a.68.68,0,0,1,.67.68.7.7,0,0,1-.19.47.69.69,0,0,1-.45.2h-5.19a.87.87,0,0,1-.54-.19Z" transform="translate(-310.19 -290.33)"/><path id="Path_5727" data-name="Path 5727" d="M326.18,293.37a1.12,1.12,0,1,0-1.11,1.11h0A1.11,1.11,0,0,0,326.18,293.37Zm-1.64,0a.53.53,0,1,1,.52.52A.52.52,0,0,1,324.54,293.37Z" transform="translate(-310.19 -290.33)"/><path id="Path_5728" data-name="Path 5728" d="M325.25,303.32h-.53a.51.51,0,0,1-.5-.5.29.29,0,0,0-.58,0v0a1.09,1.09,0,0,0,1.05,1.08v.64a.3.3,0,0,0,.59,0v-.68a1.09,1.09,0,0,0,1.05-1.08v-.4a.85.85,0,0,0-.6-.82l-1.32-.43a.28.28,0,0,1-.19-.27v-.57a.4.4,0,0,1,.4-.41h.72a.4.4,0,0,1,.4.41h0a.29.29,0,0,0,.28.31.3.3,0,0,0,.3-.28,0,0,0,0,0,0,0,1,1,0,0,0-1-1h-.07v-.65a.29.29,0,0,0-.27-.31.31.31,0,0,0-.31.28v.68h-.07a1,1,0,0,0-1,1v.57a.85.85,0,0,0,.6.82l1.31.43a.29.29,0,0,1,.2.27v.4A.51.51,0,0,1,325.25,303.32Z" transform="translate(-310.19 -290.33)"/></g></svg>