<svg id="Layer_1" data-name="Layer 1" xmlns="http://www.w3.org/2000/svg" viewBox="0 0 10.9 10.43"><path id="Polygon_74" data-name="Polygon 74" d="M122.11,460.69a2,2,0,0,1,3.33,0l.43.65a2,2,0,0,0,1.16.83l.7.18a2,2,0,0,1,1.43,2.44,2,2,0,0,1-.4.77l-.41.49a2.07,2.07,0,0,0-.46,1.39l0,.67a2,2,0,0,1-1.89,2.11,2,2,0,0,1-.81-.12l-.76-.29a2,2,0,0,0-1.41,0l-.75.29a2,2,0,0,1-2.57-1.17,2.08,2.08,0,0,1-.13-.82l0-.67a2,2,0,0,0-.46-1.39l-.4-.49a2,2,0,0,1,.26-2.81,1.9,1.9,0,0,1,.77-.4l.69-.18a2,2,0,0,0,1.16-.83Z" transform="translate(-118.32 -459.79)"/></svg>