<svg id="Layer_1" data-name="Layer 1" xmlns="http://www.w3.org/2000/svg" viewBox="0 0 37.01 41.2"><g id="Group_13" data-name="Group 13"><g id="Group_12" data-name="Group 12"><path id="Path_78" data-name="Path 78" d="M329,310.05a.8.8,0,1,0,.8.8h0A.8.8,0,0,0,329,310.05Z" transform="translate(-301.64 -278.18)"/></g></g><g id="Group_15" data-name="Group 15"><g id="Group_14" data-name="Group 14"><path id="Path_79" data-name="Path 79" d="M331,307.45l-3.83-1.28-1.37-2.74a8.86,8.86,0,0,0,2.39-4.66l.17-1h1.46a2.42,2.42,0,0,0,2.42-2.41v-5.07a12.08,12.08,0,0,0-24.15,0h0v5.07a2.43,2.43,0,0,0,1.61,2.27v.94A2.43,2.43,0,0,0,312.1,301h.7a9,9,0,0,0,1.35,2.09l.36.38-1.37,2.74-3.83,1.28a11.85,11.85,0,0,0-7.67,11.13.79.79,0,0,0,.8.8h35.41a.8.8,0,0,0,.8-.8A11.87,11.87,0,0,0,331,307.45Zm-.37-12.13a.8.8,0,0,1-.8.8h-1.24c.2-1.58.34-3.27.4-4.93v-.13h1.64Zm-20.12.8a.8.8,0,0,1-.8-.8v-4.26h1.63a2.09,2.09,0,0,0,0,.25h0c.06,1.62.19,3.26.39,4.81h-1.23Zm1.61,3.22a.8.8,0,0,1-.8-.8v-.8H312l.17,1a5.41,5.41,0,0,0,.12.58Zm-.8-9.9h-1.58a10.46,10.46,0,0,1,20.86,0H329a8.15,8.15,0,0,0-8.13-8h-1.45a8.16,8.16,0,0,0-8.13,8.05Zm8.13-6.43h1.44a6.54,6.54,0,0,1,6.52,6.55c0,.25,0,.47,0,.67h0l-1-.15a12.88,12.88,0,0,1-7.27-3.63.82.82,0,0,0-.57-.24,7.3,7.3,0,0,0-5.6,2.66,6.53,6.53,0,0,1,6.48-5.87Zm-5.52,16.34a45.67,45.67,0,0,1-1-7.81l1.08-1.45a5.68,5.68,0,0,1,4.19-2.24,14.61,14.61,0,0,0,7.93,3.85l1.18.17c-.08,1.68-.24,3.36-.47,4.91h0c-.07.5-.13.82-.28,1.72a6.84,6.84,0,0,1-4.85,5.5,6.33,6.33,0,0,1-7.11-3h1.64a2.42,2.42,0,0,0,2.28,1.61h1.6a2.42,2.42,0,1,0,0-4.83h-1.6a2.4,2.4,0,0,0-2.28,1.61Zm4.56,6.28a7.91,7.91,0,0,0,3,.06l-1.42,1.5Zm.46,2.74-2.55,2.7a32.1,32.1,0,0,1-1.8-4.18l1-1.92Zm5.69-3.67,1.09,2.19a30.26,30.26,0,0,1-1.8,4.18l-2.73-2.73Zm-6.89-4.55a.8.8,0,0,1,.8-.8h1.61a.81.81,0,0,1,0,1.61h-1.6a.8.8,0,0,1-.81-.8Zm-14.45,17.63a10.15,10.15,0,0,1,6.54-8.8l3.39-1.13a32.39,32.39,0,0,0,2.29,5h0a30.75,30.75,0,0,0,2.21,3.35l1,1.59Zm16.87-.72-1.1-1.75,0-.06a29.13,29.13,0,0,1-1.82-2.71l2.87-3,3,3a31.41,31.41,0,0,1-1.82,2.72c0,.05,0,0-1.14,1.81Zm1.44.72,1-1.6a31.87,31.87,0,0,0,2.22-3.39v0h0a31.76,31.76,0,0,0,2.27-4.92l3.39,1.12a10.19,10.19,0,0,1,6.54,8.8H321.59Z" transform="translate(-301.64 -278.18)"/></g></g><g id="Group_17" data-name="Group 17"><g id="Group_16" data-name="Group 16"><path id="Path_80" data-name="Path 80" d="M334.59,314.52a8.13,8.13,0,0,0-2.27-2.77.81.81,0,0,0-1,1.28,6.29,6.29,0,0,1,1.82,2.21.8.8,0,1,0,1.44-.72Z" transform="translate(-301.64 -278.18)"/></g></g></svg>