<svg id="Layer_1" data-name="Layer 1" xmlns="http://www.w3.org/2000/svg" viewBox="0 0 15.64 13.23"><path id="Path_125" data-name="Path 125" d="M271.65,324.91a1,1,0,0,0-.81-.37,1.81,1.81,0,0,0-.56.12l-13.24,5c-.7.27-.8.67-.79.89s.13.61.84.84h0L259,332l9-4.62a.46.46,0,0,1,.55.72h0l-5,5.35-.14.58,1.8,1.44,2.48,2h0a1.45,1.45,0,0,0,.87.32,1.2,1.2,0,0,0,1.15-1.07L271.85,326A1.26,1.26,0,0,0,271.65,324.91Z" transform="translate(-256.25 -324.54)"/><path id="Path_126" data-name="Path 126" d="M262.66,333.08a.49.49,0,0,1,.11-.2l3.3-3.5L260,332.51l1.39,4a1.57,1.57,0,0,0,.34.57l1-4Z" transform="translate(-256.25 -324.54)"/><path id="Path_127" data-name="Path 127" d="M262.53,337.41a1.39,1.39,0,0,0,.94-.4l1-.94-1.36-1.1Z" transform="translate(-256.25 -324.54)"/></svg>