<svg id="Layer_1" data-name="Layer 1" xmlns="http://www.w3.org/2000/svg" viewBox="0 0 33.33 29.17"><path id="Path_41" data-name="Path 41" d="M239.05,354.17H222.39a2.09,2.09,0,1,0,0,4.17h16.66a2.09,2.09,0,1,0,0-4.17Zm12.5-16.66H222.39a2.08,2.08,0,1,0,0,4.16h29.16a2.08,2.08,0,1,0,0-4.16ZM222.39,350h29.16a2.09,2.09,0,1,0,0-4.17H222.39a2.09,2.09,0,1,0,0,4.17Zm-2.09-18.75a2.09,2.09,0,0,0,2.09,2.08h29.16a2.09,2.09,0,1,0,0-4.17H222.39A2.11,2.11,0,0,0,220.3,331.26Z" transform="translate(-220.3 -329.17)"/></svg>