<svg id="Layer_1" data-name="Layer 1" xmlns="http://www.w3.org/2000/svg" xmlns:xlink="http://www.w3.org/1999/xlink" viewBox="0 0 124.22 110.05"><defs><style>.cls-1{fill:url(#linear-gradient);}</style><linearGradient id="linear-gradient" x1="1.58" y1="616.59" x2="1.58" y2="615.59" gradientTransform="matrix(124.22, 0, 0, -110.05, -71.33, 68267.02)" gradientUnits="userSpaceOnUse"><stop offset="0" stop-color="#4bdaff"/><stop offset="1" stop-color="#4200c8"/><stop offset="1" stop-color="gray"/></linearGradient></defs><path id="Polygon_69" data-name="Polygon 69" class="cls-1" d="M108,416.81a23.79,23.79,0,0,1,33.25,0l20.86,20.39a24,24,0,0,0,8.73,5.43h0c21.19,7.45,21.19,37.42,0,44.88h0a23.81,23.81,0,0,0-8.73,5.42l-20.86,20.39a23.79,23.79,0,0,1-33.25,0L87.1,492.93a23.81,23.81,0,0,0-8.73-5.42h0c-21.2-7.46-21.19-37.43,0-44.88h0a24,24,0,0,0,8.73-5.43Z" transform="translate(-62.47 -410.04)"/></svg>