<?xml version="1.0" standalone="no"?>
<!DOCTYPE svg PUBLIC "-//W3C//DTD SVG 1.1//EN" "http://www.w3.org/Graphics/SVG/1.1/DTD/svg11.dtd" >
<svg xmlns="http://www.w3.org/2000/svg" xmlns:xlink="http://www.w3.org/1999/xlink" version="1.1">
<metadata>
Created by FontForge 20200427 at Fri Apr  3 04:06:06 1953
 By www
Copyright (c) 2019 by www.fontiran.com All rights reserved.
</metadata>
<defs>
<font id="Kalameh-Bold" horiz-adv-x="569" >
  <font-face 
    font-family="Kalameh"
    font-weight="700"
    font-stretch="normal"
    units-per-em="1100"
    panose-1="0 0 0 0 0 0 0 0 0 0"
    ascent="880"
    descent="-220"
    x-height="422"
    cap-height="585"
    bbox="-185 -445 1221 1001"
    underline-thickness="20"
    underline-position="-163"
    unicode-range="U+0020-FE87"
  />
<missing-glyph horiz-adv-x="550" 
 />
    <glyph glyph-name="uniFE23_uniFE0A" unicode="&#xfe0a;&#xfe23;" 
d="M-40 -261l-26 89l17 6l15 6q26 10 45 19.5t39 29.5l1 1q47 45 47 113v221h269v99h100v-154q0 -30 17.5 -49.5t46.5 -19.5h38q22 0 37 -13q14 -14 14 -36q0 -24 -14 -37.5t-37 -13.5h-38q-51 0 -91.5 25.5t-60.5 73.5q-5 10 -8 25h-173v-122l-1 -1q-4 -54 -24 -101
t-53 -80q-30 -29 -63 -43.5t-62 -25.5q-4 -2 -7.5 -2.5t-7.5 -2.5zM305 -115h92v-94h-92v94z" />
    <glyph glyph-name="uniFE23_uniFE6B" unicode="&#xfe6b;&#xfe23;" horiz-adv-x="568" 
d="M-40 -261l-26 89l17 6l15 6q26 10 45 19.5t39 29.5l1 1q47 45 47 113v221h269v99h100v-154q0 -30 17.5 -49.5t46.5 -19.5h38q22 0 37 -13q14 -14 14 -36q0 -24 -14 -37.5t-37 -13.5h-38q-51 0 -91.5 25.5t-60.5 73.5q-5 10 -8 25h-173v-122l-1 -1q-4 -54 -24 -101
t-53 -80q-30 -29 -63 -43.5t-62 -25.5q-4 -2 -7.5 -2.5t-7.5 -2.5zM215 -116h93v-95h-93v95zM370 -116h93v-95h-93v95z" />
    <glyph glyph-name="uniFE23_uniFE0D" unicode="&#xfe0d;&#xfe23;" 
d="M-40 -261l-26 89l17 6l15 6q26 10 45 19.5t39 29.5l1 1q47 45 47 113v221h269v99h100v-154q0 -30 17.5 -49.5t46.5 -19.5h38q22 0 37 -13q14 -14 14 -36q0 -24 -14 -37.5t-37 -13.5h-38q-51 0 -91.5 25.5t-60.5 73.5q-5 10 -8 25h-173v-122l-1 -1q-4 -54 -24 -101
t-53 -80q-30 -29 -63 -43.5t-62 -25.5q-4 -2 -7.5 -2.5t-7.5 -2.5zM293 -270h92v-94h-92v94zM215 -116h93v-95h-93v95zM370 -116h93v-95h-93v95z" />
    <glyph glyph-name="uniFE23_uniFE60" unicode="&#xfe60;&#xfe23;" horiz-adv-x="570" 
d="M-40 -261l-26 89l17 6l15 6q26 10 45 19.5t39 29.5l1 1q47 45 47 113v221h269v99h100v-154q0 -30 17.5 -49.5t46.5 -19.5h38q22 0 37 -13q14 -14 14 -36q0 -24 -14 -37.5t-37 -13.5h-38q-51 0 -91.5 25.5t-60.5 73.5q-5 10 -8 25h-173v-122l-1 -1q-4 -54 -24 -101
t-53 -80q-30 -29 -63 -43.5t-62 -25.5q-4 -2 -7.5 -2.5t-7.5 -2.5zM373 483h92v-94h-92v94z" />
    <glyph glyph-name="uniFE23_uniFE10" unicode="&#xfe10;&#xfe23;" 
d="M-40 -261l-26 89l17 6l15 6q26 10 45 19.5t39 29.5l1 1q47 45 47 113v221h269v99h100v-154q0 -30 17.5 -49.5t46.5 -19.5h38q22 0 37 -13q14 -14 14 -36q0 -24 -14 -37.5t-37 -13.5h-38q-51 0 -91.5 25.5t-60.5 73.5q-5 10 -8 25h-173v-122l-1 -1q-4 -54 -24 -101
t-53 -80q-30 -29 -63 -43.5t-62 -25.5q-4 -2 -7.5 -2.5t-7.5 -2.5zM539 389h-93v95h93v-95zM384 389h-93v95h93v-95z" />
    <glyph glyph-name="uniFE23_uniFE13" unicode="&#xfe13;&#xfe23;" 
d="M-40 -261l-26 89l17 6l15 6q26 10 45 19.5t39 29.5l1 1q47 45 47 113v221h269v99h100v-154q0 -30 17.5 -49.5t46.5 -19.5h38q22 0 37 -13q14 -14 14 -36q0 -24 -14 -37.5t-37 -13.5h-38q-51 0 -91.5 25.5t-60.5 73.5q-5 10 -8 25h-173v-122l-1 -1q-4 -54 -24 -101
t-53 -80q-30 -29 -63 -43.5t-62 -25.5q-4 -2 -7.5 -2.5t-7.5 -2.5zM467 543h-92v94h92v-94zM545 389h-93v95h93v-95zM390 389h-93v95h93v-95z" />
    <glyph glyph-name="uniFE24_uniFE0A" unicode="&#xfe0a;&#xfe24;" 
d="M-40 -261l-26 89l17 6l15 6q26 10 45 19.5t39 29.5l1 1q47 45 47 113v221h269v99h100v-154q0 -30 17.5 -49.5t46.5 -19.5h38q22 0 37 -13q14 -14 14 -36q0 -24 -14 -37.5t-37 -13.5h-38q-51 0 -91.5 25.5t-60.5 73.5q-5 10 -8 25h-173v-122l-1 -1q-4 -54 -24 -101
t-53 -80q-30 -29 -63 -43.5t-62 -25.5q-4 -2 -7.5 -2.5t-7.5 -2.5zM305 -115h92v-94h-92v94zM98 483h92v-94h-92v94z" />
    <glyph glyph-name="uniFE24_uniFE6B" unicode="&#xfe6b;&#xfe24;" horiz-adv-x="568" 
d="M-40 -261l-26 89l17 6l15 6q26 10 45 19.5t39 29.5l1 1q47 45 47 113v221h269v99h100v-154q0 -30 17.5 -49.5t46.5 -19.5h38q22 0 37 -13q14 -14 14 -36q0 -24 -14 -37.5t-37 -13.5h-38q-51 0 -91.5 25.5t-60.5 73.5q-5 10 -8 25h-173v-122l-1 -1q-4 -54 -24 -101
t-53 -80q-30 -29 -63 -43.5t-62 -25.5q-4 -2 -7.5 -2.5t-7.5 -2.5zM98 483h92v-94h-92v94zM217 -116h93v-95h-93v95zM372 -116h93v-95h-93v95z" />
    <glyph glyph-name="uniFE24_uniFE0D" unicode="&#xfe0d;&#xfe24;" 
d="M-40 -261l-26 89l17 6l15 6q26 10 45 19.5t39 29.5l1 1q47 45 47 113v221h269v99h100v-154q0 -30 17.5 -49.5t46.5 -19.5h38q22 0 37 -13q14 -14 14 -36q0 -24 -14 -37.5t-37 -13.5h-38q-51 0 -91.5 25.5t-60.5 73.5q-5 10 -8 25h-173v-122l-1 -1q-4 -54 -24 -101
t-53 -80q-30 -29 -63 -43.5t-62 -25.5q-4 -2 -7.5 -2.5t-7.5 -2.5zM98 483h92v-94h-92v94zM293 -270h92v-94h-92v94zM215 -116h93v-95h-93v95zM370 -116h93v-95h-93v95z" />
    <glyph glyph-name="uniFE24_uniFE60" unicode="&#xfe60;&#xfe24;" 
d="M-40 -261l-26 89l17 6l15 6q26 10 45 19.5t39 29.5l1 1q47 45 47 113v221h269v99h100v-154q0 -30 17.5 -49.5t46.5 -19.5h38q22 0 37 -13q14 -14 14 -36q0 -24 -14 -37.5t-37 -13.5h-38q-51 0 -91.5 25.5t-60.5 73.5q-5 10 -8 25h-173v-122l-1 -1q-4 -54 -24 -101
t-53 -80q-30 -29 -63 -43.5t-62 -25.5q-4 -2 -7.5 -2.5t-7.5 -2.5zM373 483h92v-94h-92v94zM98 483h92v-94h-92v94z" />
    <glyph glyph-name="uniFE24_uniFE10" unicode="&#xfe10;&#xfe24;" 
d="M-40 -261l-26 89l17 6l15 6q26 10 45 19.5t39 29.5l1 1q47 45 47 113v221h269v99h100v-154q0 -30 17.5 -49.5t46.5 -19.5h38q22 0 37 -13q14 -14 14 -36q0 -24 -14 -37.5t-37 -13.5h-38q-51 0 -91.5 25.5t-60.5 73.5q-5 10 -8 25h-173v-122l-1 -1q-4 -54 -24 -101
t-53 -80q-30 -29 -63 -43.5t-62 -25.5q-4 -2 -7.5 -2.5t-7.5 -2.5zM540 389h-93v95h93v-95zM385 389h-93v95h93v-95zM98 483h92v-94h-92v94z" />
    <glyph glyph-name="uniFE24_uniFE13" unicode="&#xfe13;&#xfe24;" 
d="M-40 -261l-26 89l17 6l15 6q26 10 45 19.5t39 29.5l1 1q47 45 47 113v221h269v99h100v-154q0 -30 17.5 -49.5t46.5 -19.5h38q22 0 37 -13q14 -14 14 -36q0 -24 -14 -37.5t-37 -13.5h-38q-51 0 -91.5 25.5t-60.5 73.5q-5 10 -8 25h-173v-122l-1 -1q-4 -54 -24 -101
t-53 -80q-30 -29 -63 -43.5t-62 -25.5q-4 -2 -7.5 -2.5t-7.5 -2.5zM98 483h92v-94h-92v94zM467 543h-92v94h92v-94zM545 389h-93v95h93v-95zM390 389h-93v95h93v-95z" />
    <glyph glyph-name="uniFE25_uniFE0A" unicode="&#xfe0a;&#xfe25;" 
d="M-40 -261l-26 89l17 6l15 6q26 10 45 19.5t39 29.5l1 1q47 45 47 113v221h269v99h100v-154q0 -30 17.5 -49.5t46.5 -19.5h38q22 0 37 -13q14 -14 14 -36q0 -24 -14 -37.5t-37 -13.5h-38q-51 0 -91.5 25.5t-60.5 73.5q-5 10 -8 25h-173v-122l-1 -1q-4 -54 -24 -101
t-53 -80q-30 -29 -63 -43.5t-62 -25.5q-4 -2 -7.5 -2.5t-7.5 -2.5zM305 -115h92v-94h-92v94zM194 543h-92v94h92v-94zM272 389h-93v95h93v-95zM117 389h-93v95h93v-95z" />
    <glyph glyph-name="uniFE25_uniFE6B" unicode="&#xfe6b;&#xfe25;" 
d="M-40 -261l-26 89l17 6l15 6q26 10 45 19.5t39 29.5l1 1q47 45 47 113v221h269v99h100v-154q0 -30 17.5 -49.5t46.5 -19.5h38q22 0 37 -13q14 -14 14 -36q0 -24 -14 -37.5t-37 -13.5h-38q-51 0 -91.5 25.5t-60.5 73.5q-5 10 -8 25h-173v-122l-1 -1q-4 -54 -24 -101
t-53 -80q-30 -29 -63 -43.5t-62 -25.5q-4 -2 -7.5 -2.5t-7.5 -2.5zM217 -116h93v-95h-93v95zM372 -116h93v-95h-93v95zM194 543h-92v94h92v-94zM272 389h-93v95h93v-95zM117 389h-93v95h93v-95z" />
    <glyph glyph-name="uniFE25_uniFE0D" unicode="&#xfe0d;&#xfe25;" 
d="M-40 -261l-26 89l17 6l15 6q26 10 45 19.5t39 29.5l1 1q47 45 47 113v221h269v99h100v-154q0 -30 17.5 -49.5t46.5 -19.5h38q22 0 37 -13q14 -14 14 -36q0 -24 -14 -37.5t-37 -13.5h-38q-51 0 -91.5 25.5t-60.5 73.5q-5 10 -8 25h-173v-122l-1 -1q-4 -54 -24 -101
t-53 -80q-30 -29 -63 -43.5t-62 -25.5q-4 -2 -7.5 -2.5t-7.5 -2.5zM194 543h-92v94h92v-94zM272 389h-93v95h93v-95zM117 389h-93v95h93v-95zM293 -270h92v-94h-92v94zM215 -116h93v-95h-93v95zM370 -116h93v-95h-93v95z" />
    <glyph glyph-name="uniFE25_uniFE60" unicode="&#xfe60;&#xfe25;" 
d="M-40 -261l-26 89l17 6l15 6q26 10 45 19.5t39 29.5l1 1q47 45 47 113v221h269v99h100v-154q0 -30 17.5 -49.5t46.5 -19.5h38q22 0 37 -13q14 -14 14 -36q0 -24 -14 -37.5t-37 -13.5h-38q-51 0 -91.5 25.5t-60.5 73.5q-5 10 -8 25h-173v-122l-1 -1q-4 -54 -24 -101
t-53 -80q-30 -29 -63 -43.5t-62 -25.5q-4 -2 -7.5 -2.5t-7.5 -2.5zM373 483h92v-94h-92v94zM194 543h-92v94h92v-94zM272 389h-93v95h93v-95zM117 389h-93v95h93v-95z" />
    <glyph glyph-name="uniFE25_uniFE10" unicode="&#xfe10;&#xfe25;" 
d="M-40 -261l-26 89l17 6l15 6q26 10 45 19.5t39 29.5l1 1q47 45 47 113v221h269v99h100v-154q0 -30 17.5 -49.5t46.5 -19.5h38q22 0 37 -13q14 -14 14 -36q0 -24 -14 -37.5t-37 -13.5h-38q-51 0 -91.5 25.5t-60.5 73.5q-5 10 -8 25h-173v-122l-1 -1q-4 -54 -24 -101
t-53 -80q-30 -29 -63 -43.5t-62 -25.5q-4 -2 -7.5 -2.5t-7.5 -2.5zM540 389h-93v95h93v-95zM385 389h-93v95h93v-95zM194 543h-92v94h92v-94zM272 389h-93v95h93v-95zM117 389h-93v95h93v-95z" />
    <glyph glyph-name="uniFE25_uniFE13" unicode="&#xfe13;&#xfe25;" 
d="M-40 -261l-26 89l17 6l15 6q26 10 45 19.5t39 29.5l1 1q47 45 47 113v221h269v99h100v-154q0 -30 17.5 -49.5t46.5 -19.5h38q22 0 37 -13q14 -14 14 -36q0 -24 -14 -37.5t-37 -13.5h-38q-51 0 -91.5 25.5t-60.5 73.5q-5 10 -8 25h-173v-122l-1 -1q-4 -54 -24 -101
t-53 -80q-30 -29 -63 -43.5t-62 -25.5q-4 -2 -7.5 -2.5t-7.5 -2.5zM469 520h-79v80h79v-80zM535 389h-79v81h79v-81zM403 389h-79v81h79v-81zM166 520h-78v80h78v-80zM233 389h-80v81h80v-81zM100 389h-79v81h79v-81z" />
    <glyph glyph-name="uniFE69_uniFE0B" unicode="&#xfe0b;&#xfe69;" horiz-adv-x="823" 
d="M474 -228h-292q-34 0 -64 13t-51.5 35t-34 52t-12.5 64t12.5 63.5t34.5 52t51.5 35.5t63.5 13h435q26 1 45 20.5t19 46.5v159h100v-162q0 -34 -13 -63.5t-35 -52t-51.5 -35.5t-63.5 -13h-436q-27 0 -45.5 -18.5t-18.5 -45.5q0 -26 19 -45t45 -19h292v-100zM618 -115h92
v-94h-92v94z" />
    <glyph glyph-name="uniFE69_uniFE0A" unicode="&#xfe0a;&#xfe69;" horiz-adv-x="801" 
d="M482 -228h-300q-34 0 -64 13t-51.5 35t-34 52t-12.5 64t12.5 63.5t34.5 52t51.5 35.5t63.5 13h369q26 0 45 19t19 47v162h100v-166q0 -26 18.5 -44t45.5 -18h23q24 0 37 -13q14 -13 14 -36q0 -24 -14 -37.5t-37 -13.5h-23q-32 0 -62 12t-52 33q-23 -22 -52.5 -33.5
t-61.5 -11.5h-369q-27 0 -45.5 -18.5t-18.5 -45.5q0 -26 19 -45t45 -19h300v-100zM618 -115h92v-94h-92v94z" />
    <glyph glyph-name="uniFE69_uniFE6C" unicode="&#xfe6c;&#xfe69;" horiz-adv-x="821" 
d="M391 -228h-209q-34 0 -64 13t-51.5 35t-34 52t-12.5 64t12.5 63.5t34.5 52t51.5 35.5t63.5 13h435q26 1 45 20.5t19 46.5v159h100v-162q0 -34 -13 -63.5t-35 -52t-51.5 -35.5t-63.5 -13h-436q-27 0 -45.5 -18.5t-18.5 -45.5q0 -26 19 -45t45 -19h209v-100zM467 -116h93
v-95h-93v95zM622 -116h93v-95h-93v95z" />
    <glyph glyph-name="uniFE69_uniFE6B" unicode="&#xfe6b;&#xfe69;" horiz-adv-x="802" 
d="M442 -228h-260q-34 0 -64 13t-51.5 35t-34 52t-12.5 64t12.5 63.5t34.5 52t51.5 35.5t63.5 13h369q26 0 45 19t19 47v162h100v-166q0 -26 18.5 -44t45.5 -18h23q24 0 37 -13q14 -13 14 -36q0 -24 -14 -37.5t-37 -13.5h-23q-32 0 -62 12t-52 33q-23 -22 -52.5 -33.5
t-61.5 -11.5h-369q-27 0 -45.5 -18.5t-18.5 -45.5q0 -26 19 -45t45 -19h260v-100zM530 -116h93v-95h-93v95zM685 -116h93v-95h-93v95z" />
    <glyph glyph-name="uniFE69_uniFE0E" unicode="&#xfe0e;&#xfe69;" horiz-adv-x="821" 
d="M374 -228h-192q-34 0 -64 13t-51.5 35t-34 52t-12.5 64t12.5 63.5t34.5 52t51.5 35.5t63.5 13h435q26 1 45 20.5t19 46.5v159h100v-162q0 -34 -13 -63.5t-35 -52t-51.5 -35.5t-63.5 -13h-436q-27 0 -45.5 -18.5t-18.5 -45.5q0 -26 19 -45t45 -19h192v-100zM564 -270h92
v-94h-92v94zM486 -116h93v-95h-93v95zM641 -116h93v-95h-93v95z" />
    <glyph glyph-name="uniFE69_uniFE0D" unicode="&#xfe0d;&#xfe69;" horiz-adv-x="802" 
d="M412 -228h-230q-34 0 -64 13t-51.5 35t-34 52t-12.5 64t12.5 63.5t34.5 52t51.5 35.5t63.5 13h369q26 0 45 19t19 47v162h100v-166q0 -26 18.5 -44t45.5 -18h23q24 0 37 -13q14 -13 14 -36q0 -24 -14 -37.5t-37 -13.5h-23q-32 0 -62 12t-52 33q-23 -22 -52.5 -33.5
t-61.5 -11.5h-369q-27 0 -45.5 -18.5t-18.5 -45.5q0 -26 19 -45t45 -19h230v-100zM604 -270h92v-94h-92v94zM526 -116h93v-95h-93v95zM681 -116h93v-95h-93v95z" />
    <glyph glyph-name="uniFE69_uniFE61" unicode="&#xfe61;&#xfe69;" horiz-adv-x="821" 
d="M514 -228h-332q-34 0 -64 13t-51.5 35t-34 52t-12.5 64t12.5 63.5t34.5 52t51.5 35.5t63.5 13h435q26 1 45 20.5t19 46.5v159h100v-162q0 -34 -13 -63.5t-35 -52t-51.5 -35.5t-63.5 -13h-436q-27 0 -45.5 -18.5t-18.5 -45.5q0 -26 19 -45t45 -19h332v-100zM684 482h92
v-94h-92v94z" />
    <glyph glyph-name="uniFE69_uniFE60" unicode="&#xfe60;&#xfe69;" horiz-adv-x="802" 
d="M562 -228h-380q-34 0 -64 13t-51.5 35t-34 52t-12.5 64t12.5 63.5t34.5 52t51.5 35.5t63.5 13h369q26 0 45 19t19 47v162h100v-166q0 -26 18.5 -44t45.5 -18h23q24 0 37 -13q14 -13 14 -36q0 -24 -14 -37.5t-37 -13.5h-23q-32 0 -62 12t-52 33q-23 -22 -52.5 -33.5
t-61.5 -11.5h-369q-27 0 -45.5 -18.5t-18.5 -45.5q0 -26 19 -45t45 -19h380v-100zM619 482h92v-94h-92v94z" />
    <glyph glyph-name="uniFE69_uniFE11" unicode="&#xfe11;&#xfe69;" horiz-adv-x="835" 
d="M514 -228h-332q-34 0 -64 13t-51.5 35t-34 52t-12.5 64t12.5 63.5t34.5 52t51.5 35.5t63.5 13h435q26 1 45 20.5t19 46.5v159h100v-162q0 -34 -13 -63.5t-35 -52t-51.5 -35.5t-63.5 -13h-436q-27 0 -45.5 -18.5t-18.5 -45.5q0 -26 19 -45t45 -19h332v-100zM783 389h-93
v95h93v-95zM628 389h-93v95h93v-95z" />
    <glyph glyph-name="uniFE69_uniFE10" unicode="&#xfe10;&#xfe69;" horiz-adv-x="804" 
d="M562 -228h-380q-34 0 -64 13t-51.5 35t-34 52t-12.5 64t12.5 63.5t34.5 52t51.5 35.5t63.5 13h369q26 0 45 19t19 47v162h100v-166q0 -26 18.5 -44t45.5 -18h23q24 0 37 -13q14 -13 14 -36q0 -24 -14 -37.5t-37 -13.5h-23q-32 0 -62 12t-52 33q-23 -22 -52.5 -33.5
t-61.5 -11.5h-369q-27 0 -45.5 -18.5t-18.5 -45.5q0 -26 19 -45t45 -19h380v-100zM780 389h-93v95h93v-95zM625 389h-93v95h93v-95z" />
    <glyph glyph-name="uniFE69_uniFE14" unicode="&#xfe14;&#xfe69;" horiz-adv-x="845" 
d="M514 -228h-332q-34 0 -64 13t-51.5 35t-34 52t-12.5 64t12.5 63.5t34.5 52t51.5 35.5t63.5 13h435q26 1 45 20.5t19 46.5v159h100v-162q0 -34 -13 -63.5t-35 -52t-51.5 -35.5t-63.5 -13h-436q-27 0 -45.5 -18.5t-18.5 -45.5q0 -26 19 -45t45 -19h332v-100zM777 543h-92
v94h92v-94zM855 389h-93v95h93v-95zM700 389h-93v95h93v-95z" />
    <glyph glyph-name="uniFE69_uniFE13" unicode="&#xfe13;&#xfe69;" horiz-adv-x="799" 
d="M562 -228h-380q-34 0 -64 13t-51.5 35t-34 52t-12.5 64t12.5 63.5t34.5 52t51.5 35.5t63.5 13h369q26 0 45 19t19 47v162h100v-166q0 -26 18.5 -44t45.5 -18h23q24 0 37 -13q14 -13 14 -36q0 -24 -14 -37.5t-37 -13.5h-23q-32 0 -62 12t-52 33q-23 -22 -52.5 -33.5
t-61.5 -11.5h-369q-27 0 -45.5 -18.5t-18.5 -45.5q0 -26 19 -45t45 -19h380v-100zM707 543h-92v94h92v-94zM785 389h-93v95h93v-95zM630 389h-93v95h93v-95z" />
    <glyph glyph-name="uniFE69_uniFE17" unicode="&#xfe17;&#xfe69;" horiz-adv-x="1028" 
d="M1024 196q-1 0 -9 -1t-19.5 -1.5t-23.5 -1.5t-20 -1q-15 0 -26 3l-76 -107q-61 -87 -170 -87h-482q-27 0 -45.5 -18.5t-18.5 -45.5q0 -26 19 -45t45 -19h331v-100h-331q-34 0 -63.5 13t-51.5 35.5t-34.5 52t-12.5 63.5q0 33 12.5 63t34.5 52.5t51.5 35.5t63.5 13h481
q26 0 49.5 13t41.5 36l63 79l-119 57q-22 10 -44 10q-60 0 -109 -64l-10 -14l-79 42l11 18q31 54 77 85t109 31q45 0 89 -19h1l151 -73h1q17 -9 43 -9h70v-96zM633 -115h92v-94h-92v94z" />
    <glyph glyph-name="uniFE69_uniFE16" unicode="&#xfe16;&#xfe69;" horiz-adv-x="1041" 
d="M513 -228h-331q-34 0 -63.5 13t-51.5 35.5t-34.5 52t-12.5 63.5q0 33 12.5 63t34.5 52.5t51.5 35.5t63.5 13h471q53 0 89 48l63 80l-117 56q-25 11 -47 11q-17 0 -29.5 -3.5t-24.5 -11t-24 -20t-29 -31.5l-10 -11l-82 40l11 19q32 53 78 85t109 32q42 0 88 -20h1l150 -72
q24 -10 47 -10h68v-96l-58 -4h-1q-11 0 -20.5 0.5t-17.5 1.5l-27 -38q2 -23 20 -38.5t45 -17.5h106q22 0 37 -13q14 -14 14 -36q0 -24 -13.5 -37.5t-37.5 -13.5h-107q-83 0 -125 71q-30 -31 -72 -50t-86 -21h-469q-27 0 -45.5 -18.5t-18.5 -45.5q0 -26 19 -45t45 -19h331
v-100zM643 -115h92v-94h-92v94z" />
    <glyph glyph-name="uniFE69_uniFE1A" unicode="&#xfe1a;&#xfe69;" horiz-adv-x="1028" 
d="M1024 196q-1 0 -9 -1t-19.5 -1.5t-23.5 -1.5t-20 -1q-15 0 -26 3l-76 -107q-61 -87 -170 -87h-482q-27 0 -45.5 -18.5t-18.5 -45.5q0 -26 19 -45t45 -19h331v-100h-331q-34 0 -63.5 13t-51.5 35.5t-34.5 52t-12.5 63.5q0 33 12.5 63t34.5 52.5t51.5 35.5t63.5 13h481
q26 0 49.5 13t41.5 36l63 79l-119 57q-22 10 -44 10q-60 0 -109 -64l-10 -14l-79 42l11 18q31 54 77 85t109 31q45 0 89 -19h1l151 -73h1q17 -9 43 -9h70v-96zM684 -270h92v-94h-92v94zM606 -116h93v-95h-93v95zM761 -116h93v-95h-93v95z" />
    <glyph glyph-name="uniFE69_uniFE19" unicode="&#xfe19;&#xfe69;" horiz-adv-x="1040" 
d="M443 -228h-261q-34 0 -63.5 13t-51.5 35.5t-34.5 52t-12.5 63.5q0 33 12.5 63t34.5 52.5t51.5 35.5t63.5 13h471q53 0 89 48l63 80l-117 56q-25 11 -47 11q-17 0 -29.5 -3.5t-24.5 -11t-24 -20t-29 -31.5l-10 -11l-82 40l11 19q32 53 78 85t109 32q42 0 88 -20h1l150 -72
q24 -10 47 -10h68v-96l-58 -4h-1q-11 0 -20.5 0.5t-17.5 1.5l-27 -38q2 -23 20 -38.5t45 -17.5h106q22 0 37 -13q14 -14 14 -36q0 -24 -13.5 -37.5t-37.5 -13.5h-107q-83 0 -125 71q-30 -31 -72 -50t-86 -21h-469q-27 0 -45.5 -18.5t-18.5 -45.5q0 -26 19 -45t45 -19h261
v-100zM654 -270h92v-94h-92v94zM576 -116h93v-95h-93v95zM731 -116h93v-95h-93v95z" />
    <glyph glyph-name="uniFE69_uniFE1D" unicode="&#xfe1d;&#xfe69;" horiz-adv-x="1028" 
d="M1024 196q-1 0 -9 -1t-19.5 -1.5t-23.5 -1.5t-20 -1q-15 0 -26 3l-76 -107q-61 -87 -170 -87h-482q-27 0 -45.5 -18.5t-18.5 -45.5q0 -26 19 -45t45 -19h331v-100h-331q-34 0 -63.5 13t-51.5 35.5t-34.5 52t-12.5 63.5q0 33 12.5 63t34.5 52.5t51.5 35.5t63.5 13h481
q26 0 49.5 13t41.5 36l63 79l-119 57q-22 10 -44 10q-60 0 -109 -64l-10 -14l-79 42l11 18q31 54 77 85t109 31q45 0 89 -19h1l151 -73h1q17 -9 43 -9h70v-96z" />
    <glyph glyph-name="uniFE69_uniFE1C" unicode="&#xfe1c;&#xfe69;" horiz-adv-x="1041" 
d="M513 -228h-331q-34 0 -63.5 13t-51.5 35.5t-34.5 52t-12.5 63.5q0 33 12.5 63t34.5 52.5t51.5 35.5t63.5 13h471q53 0 89 48l63 80l-117 56q-25 11 -47 11q-17 0 -29.5 -3.5t-24.5 -11t-24 -20t-29 -31.5l-10 -11l-82 40l11 19q32 53 78 85t109 32q42 0 88 -20h1l150 -72
q24 -10 47 -10h68v-96l-58 -4h-1q-11 0 -20.5 0.5t-17.5 1.5l-27 -38q2 -23 20 -38.5t45 -17.5h106q22 0 37 -13q14 -14 14 -36q0 -24 -13.5 -37.5t-37.5 -13.5h-107q-83 0 -125 71q-30 -31 -72 -50t-86 -21h-469q-27 0 -45.5 -18.5t-18.5 -45.5q0 -26 19 -45t45 -19h331
v-100z" />
    <glyph glyph-name="uniFE69_uniFE28" unicode="&#xfe28;&#xfe69;" horiz-adv-x="1064" 
d="M785 -228h-604q-34 0 -64 13t-51.5 35t-34 52t-12.5 64t12.5 63.5t34.5 52t51.5 35.5t63.5 13h241q28 0 47 18t19 46v140h100v-152q0 -18 7.5 -28t18 -15.5t22 -7t18.5 -1.5q26 0 44.5 18t20.5 46v140h96l2 -147q0 -27 15 -42t41 -15h50v228h100v-328h-142q-70 0 -114 47
q-46 -47 -115 -47q-68 0 -115 47q-45 -47 -115 -47h-241q-27 0 -45.5 -18.5t-18.5 -45.5q0 -26 19 -45t45 -19h604v-100z" />
    <glyph glyph-name="uniFE69_uniFE27" unicode="&#xfe27;&#xfe69;" horiz-adv-x="1149" 
d="M800 -228h-618q-34 0 -63.5 13t-51.5 35.5t-34.5 52t-12.5 63.5q0 33 12.5 63t34.5 52.5t51.5 35.5t63.5 13h241q29 0 48.5 19.5t19.5 48.5v142h102v-142q0 -29 19 -48.5t47 -19.5q29 0 49.5 19.5t20.5 48.5v142h99v-142q0 -29 20 -48.5t49 -19.5t49 19.5t20 48.5v163
h100v-165q0 -28 19.5 -47t47.5 -19h16q22 0 37 -13q14 -14 14 -36q0 -24 -13.5 -37.5t-37.5 -13.5h-16q-70 0 -117 47q-25 -23 -55.5 -35t-63.5 -12q-35 0 -64 12t-55 35q-49 -47 -119 -47q-34 0 -63.5 12t-54.5 35q-49 -47 -118 -47h-241q-27 0 -45.5 -18.5t-18.5 -45.5
q0 -26 19 -45t45 -19h618v-100z" />
    <glyph glyph-name="uniFE69_uniFE2B" unicode="&#xfe2b;&#xfe69;" horiz-adv-x="1064" 
d="M785 -228h-604q-34 0 -64 13t-51.5 35t-34 52t-12.5 64t12.5 63.5t34.5 52t51.5 35.5t63.5 13h241q28 0 47 18t19 46v140h100v-152q0 -18 7.5 -28t18 -15.5t22 -7t18.5 -1.5q26 0 44.5 18t20.5 46v140h96l2 -147q0 -27 15 -42t41 -15h50v228h100v-328h-142q-70 0 -114 47
q-46 -47 -115 -47q-68 0 -115 47q-45 -47 -115 -47h-241q-27 0 -45.5 -18.5t-18.5 -45.5q0 -26 19 -45t45 -19h604v-100zM814 543h-92v94h92v-94zM892 389h-93v95h93v-95zM737 389h-93v95h93v-95z" />
    <glyph glyph-name="uniFE69_uniFE2A" unicode="&#xfe2a;&#xfe69;" horiz-adv-x="1158" 
d="M800 -228h-618q-34 0 -63.5 13t-51.5 35.5t-34.5 52t-12.5 63.5q0 33 12.5 63t34.5 52.5t51.5 35.5t63.5 13h241q29 0 48.5 19.5t19.5 48.5v142h102v-142q0 -29 19 -48.5t47 -19.5q29 0 49.5 19.5t20.5 48.5v142h99v-142q0 -29 20 -48.5t49 -19.5t49 19.5t20 48.5v163
h100v-165q0 -28 19.5 -47t47.5 -19h16q22 0 37 -13q14 -14 14 -36q0 -24 -13.5 -37.5t-37.5 -13.5h-16q-70 0 -117 47q-25 -23 -55.5 -35t-63.5 -12q-35 0 -64 12t-55 35q-49 -47 -119 -47q-34 0 -63.5 12t-54.5 35q-49 -47 -118 -47h-241q-27 0 -45.5 -18.5t-18.5 -45.5
q0 -26 19 -45t45 -19h618v-100zM814 543h-92v94h92v-94zM892 389h-93v95h93v-95zM737 389h-93v95h93v-95z" />
    <glyph glyph-name="uniFE69_uniFE2E" unicode="&#xfe2e;&#xfe69;" horiz-adv-x="1102" 
d="M781 -229h-599q-35 0 -64.5 12.5t-51.5 35t-34 52t-12 64.5q0 34 12.5 63.5t34.5 52t51.5 35.5t63.5 13h267q27 0 45 17t18 44v167h98v-59l179 83q41 21 90 21q41 0 78 -14.5t64.5 -41t44 -62t16.5 -77.5q0 -36 -14 -68.5t-38.5 -57t-57 -38.5t-68.5 -14h-230
q-32 0 -61 11t-52 34q-23 -23 -51.5 -34t-60.5 -11h-267q-27 0 -45.5 -18.5t-18.5 -45.5q0 -26 19 -45t45 -19h599v-100zM610 164v-1q0 -28 18 -46t46 -18h230q34 0 56 21.5t22 56.5q0 22 -9.5 40t-24.5 30.5t-33.5 19t-37.5 6.5q-23 0 -47 -11z" />
    <glyph glyph-name="uniFE69_uniFE2D" unicode="&#xfe2d;&#xfe69;" horiz-adv-x="1171" 
d="M781 -230h-599q-34 0 -63.5 13t-51.5 35.5t-34.5 52t-12.5 63.5q0 33 12.5 63t34.5 52.5t51.5 35.5t63.5 13h267q27 0 45 18t18 45v167h98v-59l179 83q41 21 90 21q41 0 77.5 -14.5t64.5 -40.5t44.5 -61.5t16.5 -77.5v-18q0 -27 18 -45t45 -18h26q23 0 36.5 -12.5
t13.5 -35.5t-13.5 -36.5t-36.5 -13.5h-26q-31 0 -61 13t-55 36q-7 -7 -18 -15q-15 -12 -41 -23t-66 -11h-230q-58 0 -97 32q-9 6 -16 13q-23 -23 -51.5 -34t-60.5 -11l-267 -2q-27 0 -45.5 -18.5t-18.5 -45.5q0 -26 19 -45t45 -19h599v-100zM610 165v-1q0 -28 18.5 -46
t45.5 -18h230q34 0 56 21.5t22 56.5q0 22 -9 40t-24 30.5t-34 19t-38 6.5q-22 0 -47 -11z" />
    <glyph glyph-name="uniFE69_uniFE32" unicode="&#xfe32;&#xfe69;" horiz-adv-x="1102" 
d="M781 -229h-599q-35 0 -64.5 12.5t-51.5 35t-34 52t-12 64.5q0 34 12.5 63.5t34.5 52t51.5 35.5t63.5 13h267q27 0 45 17t18 44v167h98v-59l179 83q41 21 90 21q41 0 78 -14.5t64.5 -41t44 -62t16.5 -77.5q0 -36 -14 -68.5t-38.5 -57t-57 -38.5t-68.5 -14h-230
q-32 0 -61 11t-52 34q-23 -23 -51.5 -34t-60.5 -11h-267q-27 0 -45.5 -18.5t-18.5 -45.5q0 -26 19 -45t45 -19h599v-100zM610 164v-1q0 -28 18 -46t46 -18h230q34 0 56 21.5t22 56.5q0 22 -9.5 40t-24.5 30.5t-33.5 19t-37.5 6.5q-23 0 -47 -11zM828 538h92v-94h-92v94z" />
    <glyph glyph-name="uniFE69_uniFE31" unicode="&#xfe31;&#xfe69;" horiz-adv-x="1171" 
d="M781 -230h-599q-34 0 -63.5 13t-51.5 35.5t-34.5 52t-12.5 63.5q0 33 12.5 63t34.5 52.5t51.5 35.5t63.5 13h267q27 0 45 18t18 45v167h98v-59l179 83q41 21 90 21q41 0 77.5 -14.5t64.5 -40.5t44.5 -61.5t16.5 -77.5v-18q0 -27 18 -45t45 -18h26q23 0 36.5 -12.5
t13.5 -35.5t-13.5 -36.5t-36.5 -13.5h-26q-31 0 -61 13t-55 36q-7 -7 -18 -15q-15 -12 -41 -23t-66 -11h-230q-58 0 -97 32q-9 6 -16 13q-23 -23 -51.5 -34t-60.5 -11l-267 -2q-27 0 -45.5 -18.5t-18.5 -45.5q0 -26 19 -45t45 -19h599v-100zM610 165v-1q0 -28 18.5 -46
t45.5 -18h230q34 0 56 21.5t22 56.5q0 22 -9 40t-24 30.5t-34 19t-38 6.5q-22 0 -47 -11zM831 538h92v-94h-92v94z" />
    <glyph glyph-name="uniFE69_uniFE35" unicode="&#xfe35;&#xfe69;" horiz-adv-x="894" 
d="M19 -64q0 33 12.5 63t34.5 52.5t51.5 35.5t63.5 13h207l-59 79l72 58q22 22 22 50v277h121v-213q33 20 64 25.5t69 5.5q51 0 88 -17t61 -44t35.5 -61t11.5 -69q0 -31 -11 -64q9 -12 22.5 -19.5t28.5 -7.5h11q23 0 37 -13t14 -36q0 -24 -13.5 -37.5t-37.5 -13.5h-11
q-30 0 -59.5 11.5t-50.5 32.5q-52 -44 -120 -44h-500q-27 0 -45.5 -18.5t-18.5 -45.5q0 -26 19 -45t45 -19h460v-100h-462q-34 0 -63.5 13t-51.5 35.5t-34.5 52t-12.5 63.5zM659 100q19 0 35.5 7.5t29 20t20 29.5t7.5 36q0 36 -24 60.5t-63 28.5q-32 -3 -55 -23l-196 -159
h246zM412 100l-8 11l-14 -11h22z" />
    <glyph glyph-name="uniFE69_uniFE34" unicode="&#xfe34;&#xfe69;" horiz-adv-x="924" 
d="M643 -228h-460q-34 0 -63.5 13t-51.5 35.5t-34.5 52t-12.5 63.5q0 33 12.5 63t34.5 52.5t51.5 35.5t63.5 13h205l-59 79l72 58q22 22 22 50v277h97v-230l2 1q27 23 61 35t70 12q51 0 88 -17t61 -44t35.5 -61t11.5 -69v-27q0 -26 19 -45t45 -19h11q23 0 37 -13t14 -36
q0 -24 -13.5 -37.5t-37.5 -13.5h-11q-73 0 -121 56q-54 -56 -133 -56h-476q-27 0 -45.5 -18.5t-18.5 -45.5q0 -26 19 -45t45 -19h460v-100zM390 100h269q19 0 35.5 7.5t29 20t20 29.5t7.5 36q0 39 -27.5 64.5t-71.5 25.5q-38 0 -67 -24z" />
    <glyph glyph-name="uniFE69_uniFE38" unicode="&#xfe38;&#xfe69;" horiz-adv-x="894" 
d="M643 -228h-460q-34 0 -63.5 13t-51.5 35.5t-34.5 52t-12.5 63.5q0 33 12.5 63t34.5 52.5t51.5 35.5t63.5 13h205l-59 79l72 58q22 22 22 50v277h97v-230l2 1q27 23 61 35t70 12q51 0 88 -17t61 -44t35.5 -61t11.5 -69v-27q0 -26 19 -45t45 -19h11q23 0 37 -13t14 -36
q0 -24 -13.5 -37.5t-37.5 -13.5h-11q-73 0 -121 56q-54 -56 -133 -56h-476q-27 0 -45.5 -18.5t-18.5 -45.5q0 -26 19 -45t45 -19h460v-100zM390 100h269q19 0 35.5 7.5t29 20t20 29.5t7.5 36q0 39 -27.5 64.5t-71.5 25.5q-38 0 -67 -24zM630 538h92v-94h-92v94z" />
    <glyph glyph-name="uniFE69_uniFE37" unicode="&#xfe37;&#xfe69;" horiz-adv-x="922" 
d="M643 -228h-460q-34 0 -63.5 13t-51.5 35.5t-34.5 52t-12.5 63.5q0 33 12.5 63t34.5 52.5t51.5 35.5t63.5 13h205l-59 79l72 58q22 22 22 50v277h97v-230l2 1q27 23 61 35t70 12q51 0 88 -17t61 -44t35.5 -61t11.5 -69v-27q0 -26 19 -45t45 -19h11q23 0 37 -13t14 -36
q0 -24 -13.5 -37.5t-37.5 -13.5h-11q-73 0 -121 56q-54 -56 -133 -56h-476q-27 0 -45.5 -18.5t-18.5 -45.5q0 -26 19 -45t45 -19h460v-100zM390 100h269q19 0 35.5 7.5t29 20t20 29.5t7.5 36q0 39 -27.5 64.5t-71.5 25.5q-38 0 -67 -24zM605 538h92v-94h-92v94z" />
    <glyph glyph-name="uniFE69_uniFE3B" unicode="&#xfe3b;&#xfe69;" horiz-adv-x="837" 
d="M562 -228h-380q-34 0 -63.5 13t-51.5 35.5t-34.5 52t-12.5 63.5q0 33 12.5 63t34.5 52.5t51.5 35.5t63.5 13h301q-23 43 -23 93q0 38 15.5 72.5t42 60.5t61 41.5t72.5 15.5q77 0 137 -48l16 -12l-58 -71l-15 10q-33 22 -68 22q-19 0 -37.5 -6t-33 -18t-23.5 -29t-9 -38
q0 -19 7 -36t19.5 -30t29 -20t35.5 -7h166v-92l-166 -8h-469q-27 0 -45.5 -18.5t-18.5 -45.5q0 -26 19 -45t45 -19h380v-100z" />
    <glyph glyph-name="uniFE69_uniFE3A" unicode="&#xfe3a;&#xfe69;" horiz-adv-x="816" 
d="M592 -228h-410q-34 0 -63.5 13t-51.5 35.5t-34.5 52t-12.5 63.5q0 33 13 63t35 52.5t51.5 35.5t62.5 13h203q-22 41 -22 93q0 39 15 73.5t41 60t60.5 40t73.5 14.5h210v-216h-95l-4 118h-108q-40 0 -67.5 -26t-27.5 -64q0 -40 26.5 -66.5t65.5 -26.5h263q23 0 38 -13
q13 -13 13 -36q0 -24 -13.5 -37.5t-37.5 -13.5h-634q-26 0 -45 -18.5t-19 -45.5q0 -26 19 -45t45 -19h410v-100z" />
    <glyph glyph-name="uniFE69_uniFE3E" unicode="&#xfe3e;&#xfe69;" horiz-adv-x="837" 
d="M562 -228h-380q-34 0 -63.5 13t-51.5 35.5t-34.5 52t-12.5 63.5q0 33 12.5 63t34.5 52.5t51.5 35.5t63.5 13h301q-23 43 -23 93q0 38 15.5 72.5t42 60.5t61 41.5t72.5 15.5q77 0 137 -48l16 -12l-58 -71l-15 10q-33 22 -68 22q-19 0 -37.5 -6t-33 -18t-23.5 -29t-9 -38
q0 -19 7 -36t19.5 -30t29 -20t35.5 -7h166v-92l-166 -8h-469q-27 0 -45.5 -18.5t-18.5 -45.5q0 -26 19 -45t45 -19h380v-100zM613 538h92v-94h-92v94z" />
    <glyph glyph-name="uniFE69_uniFE3D" unicode="&#xfe3d;&#xfe69;" horiz-adv-x="816" 
d="M592 -228h-410q-34 0 -63.5 13t-51.5 35.5t-34.5 52t-12.5 63.5q0 33 13 63t35 52.5t51.5 35.5t62.5 13h203q-22 41 -22 93q0 39 15 73.5t41 60t60.5 40t73.5 14.5h210v-216h-95l-4 118h-108q-40 0 -67.5 -26t-27.5 -64q0 -40 26.5 -66.5t65.5 -26.5h263q23 0 38 -13
q13 -13 13 -36q0 -24 -13.5 -37.5t-37.5 -13.5h-634q-26 0 -45 -18.5t-19 -45.5q0 -26 19 -45t45 -19h410v-100zM532 538h92v-94h-92v94z" />
    <glyph glyph-name="uniFE69_uniFE41" unicode="&#xfe41;&#xfe69;" horiz-adv-x="776" 
d="M545 -228h-370q-34 0 -64 13t-51.5 35t-34 52t-12.5 64t12.5 64t34.5 52.5t51.5 35.5t63.5 13h395q24 0 43.5 12t29.5 32h-58q-34 0 -63.5 12.5t-51.5 34.5t-34.5 51.5t-12.5 63.5t12.5 63.5t34.5 52t51.5 35.5t63.5 13q33 0 63 -13t52.5 -35.5t35.5 -52.5t13 -63v-128
q0 -37 -14 -69.5t-38.5 -57t-57 -38.5t-69.5 -14h-395q-27 0 -45.5 -18.5t-18.5 -45.5q0 -26 19 -45t45 -19h370v-100zM585 371q-28 0 -46 -18.5t-18 -45.5t18.5 -45.5t45.5 -18.5h64v64q0 28 -18 46t-46 18zM543 644h92v-94h-92v94z" />
    <glyph glyph-name="uniFE69_uniFE40" unicode="&#xfe40;&#xfe69;" horiz-adv-x="860" 
d="M592 -229h-410q-34 0 -64 13t-51.5 35t-34 52t-12.5 64t12.5 64t34.5 52.5t51.5 35.5t63.5 13h289q-19 35 -19 80q0 38 14 70.5t38.5 57t57.5 38.5t70 14q38 0 70.5 -14t57 -38.5t38.5 -57t14 -70.5q0 -44 -18 -80h66q24 0 37.5 -12.5t13.5 -35.5t-14 -37
q-7 -8 -16.5 -11.5t-20.5 -3.5h-678q-27 0 -45.5 -19t-18.5 -46q0 -26 19 -45t45 -19h410v-100zM632 260q-79 0 -79 -80t79 -80t79 80t-79 80zM549 538h92v-94h-92v94z" />
    <glyph glyph-name="uniFE69_uniFE44" unicode="&#xfe44;&#xfe69;" horiz-adv-x="776" 
d="M545 -228h-370q-34 0 -64 13t-51.5 35t-34 52t-12.5 64t12.5 64t34.5 52.5t51.5 35.5t63.5 13h395q24 0 43.5 12t29.5 32h-58q-34 0 -63.5 12.5t-51.5 34.5t-34.5 51.5t-12.5 63.5t12.5 63.5t34.5 52t51.5 35.5t63.5 13q33 0 63 -13t52.5 -35.5t35.5 -52.5t13 -63v-128
q0 -37 -14 -69.5t-38.5 -57t-57 -38.5t-69.5 -14h-395q-27 0 -45.5 -18.5t-18.5 -45.5q0 -26 19 -45t45 -19h370v-100zM585 371q-28 0 -46 -18.5t-18 -45.5t18.5 -45.5t45.5 -18.5h64v64q0 28 -18 46t-46 18zM626 705h-92v94h92v-94zM704 551h-93v95h93v-95zM549 551h-93v95
h93v-95z" />
    <glyph glyph-name="uniFE69_uniFE43" unicode="&#xfe43;&#xfe69;" horiz-adv-x="860" 
d="M592 -229h-410q-34 0 -64 13t-51.5 35t-34 52t-12.5 64t12.5 64t34.5 52.5t51.5 35.5t63.5 13h289q-19 35 -19 80q0 38 14 70.5t38.5 57t57.5 38.5t70 14q38 0 70.5 -14t57 -38.5t38.5 -57t14 -70.5q0 -44 -18 -80h66q24 0 37.5 -12.5t13.5 -35.5t-14 -37
q-7 -8 -16.5 -11.5t-20.5 -3.5h-678q-27 0 -45.5 -19t-18.5 -46q0 -26 19 -45t45 -19h410v-100zM632 260q-79 0 -79 -80t79 -80t79 80t-79 80zM647 605h-92v94h92v-94zM725 451h-93v95h93v-95zM570 451h-93v95h93v-95z" />
    <glyph glyph-name="uniFE69_uniFE47" unicode="&#xfe47;&#xfe69;" horiz-adv-x="776" 
d="M545 -228h-370q-34 0 -64 13t-51.5 35t-34 52t-12.5 64t12.5 64t34.5 52.5t51.5 35.5t63.5 13h395q24 0 43.5 12t29.5 32h-58q-34 0 -63.5 12.5t-51.5 34.5t-34.5 51.5t-12.5 63.5t12.5 63.5t34.5 52t51.5 35.5t63.5 13q33 0 63 -13t52.5 -35.5t35.5 -52.5t13 -63v-128
q0 -37 -14 -69.5t-38.5 -57t-57 -38.5t-69.5 -14h-395q-27 0 -45.5 -18.5t-18.5 -45.5q0 -26 19 -45t45 -19h370v-100zM585 371q-28 0 -46 -18.5t-18 -45.5t18.5 -45.5t45.5 -18.5h64v64q0 28 -18 46t-46 18zM711 550h-93v95h93v-95zM556 550h-93v95h93v-95z" />
    <glyph glyph-name="uniFE69_uniFE46" unicode="&#xfe46;&#xfe69;" horiz-adv-x="860" 
d="M592 -229h-410q-34 0 -64 13t-51.5 35t-34 52t-12.5 64t12.5 64t34.5 52.5t51.5 35.5t63.5 13h289q-19 35 -19 80q0 38 14 70.5t38.5 57t57.5 38.5t70 14q38 0 70.5 -14t57 -38.5t38.5 -57t14 -70.5q0 -44 -18 -80h66q24 0 37.5 -12.5t13.5 -35.5t-14 -37
q-7 -8 -16.5 -11.5t-20.5 -3.5h-678q-27 0 -45.5 -19t-18.5 -46q0 -26 19 -45t45 -19h410v-100zM632 260q-79 0 -79 -80t79 -80t79 80t-79 80zM751 429h-93v95h93v-95zM596 429h-93v95h93v-95z" />
    <glyph glyph-name="uniFE69_uniFE4B" unicode="&#xfe4b;&#xfe69;" horiz-adv-x="758" 
d="M572 -229h-390q-34 0 -63.5 13t-51.5 35.5t-34.5 52t-12.5 63.5t12.5 64t34.5 52.5t51.5 35.5t63.5 13h395q26 0 45 19t19 45q0 35 -16 51.5t-42 33.5l-201 131v76l185 183l69 -69l-140 -146l136 -87q26 -16 45.5 -33t33 -37.5t20.5 -45.5t7 -57q0 -34 -12 -64t-34 -52
t-51 -35t-64 -13l-395 -1q-27 0 -45.5 -18.5t-18.5 -45.5q0 -26 19 -45t45 -19h390v-100z" />
    <glyph glyph-name="uniFE69_uniFE4A" unicode="&#xfe4a;&#xfe69;" horiz-adv-x="818" 
d="M612 -229h-430q-34 0 -63.5 13t-51.5 35.5t-34.5 52t-12.5 63.5q0 33 12.5 63t34.5 52.5t51.5 36t63.5 13.5h395q5 0 15.5 3.5t21.5 11t19 19.5t8 30t-4 30t-11 21t-17.5 16.5t-24.5 16.5l-210 134v76l182 181l69 -69l-136 -144l143 -89q24 -15 44 -31t33.5 -36.5t21 -46
t7.5 -59.5q2 -29 20 -46.5t44 -17.5h16q23 0 37 -13t14 -36q0 -24 -13.5 -37.5t-37.5 -13.5h-16q-67 0 -114 45q-48 -45 -111 -45l-395 -1q-27 0 -45.5 -19t-18.5 -45t19 -45t45 -19h430v-100z" />
    <glyph glyph-name="uniFE69_uniFE4E" unicode="&#xfe4e;&#xfe69;" horiz-adv-x="758" 
d="M426 428l212 211l69 -69l-167 -175l92 -59q50 -31 78 -68.5t28 -102.5q1 -8 -1 -21t-7 -29t-14 -32.5t-22 -31.5q-43 -51 -117 -51l-395 -1q-27 0 -45.5 -19t-18.5 -45t19 -45t45 -19h380v-100h-380q-34 0 -63.5 13t-51.5 35.5t-34.5 52t-12.5 63.5t12.5 64t34.5 52.5
t51.5 35.5t63.5 13h395q5 0 15.5 3.5t21.5 11t19 19.5t8 30q0 35 -16 51.5t-43 33.5l-156 103v76zM401 473l-57 62l163 160l57 -58z" />
    <glyph glyph-name="uniFE69_uniFE4D" unicode="&#xfe4d;&#xfe69;" horiz-adv-x="818" 
d="M636 639l69 -69l-164 -174l90 -59q25 -16 45 -32.5t33.5 -37t21 -45t7.5 -57.5q2 -29 19.5 -47t44.5 -18h16q23 0 37 -13t14 -36q0 -24 -14 -37.5t-37 -13.5h-16q-69 0 -114 45q-22 -22 -51 -33.5t-60 -11.5l-395 -1q-27 0 -45.5 -18.5t-18.5 -45.5q0 -26 19 -45t45 -19
h440v-100h-440q-34 0 -64 13t-51.5 35t-34 52t-12.5 64t12.5 64t34 52.5t51.5 35.5t64 13h395q5 0 15.5 3.5t21.5 11t19 19.5t8 30q0 35 -16.5 51.5t-42.5 33.5l-155 103v76zM401 473l-57 62l163 160l57 -58z" />
    <glyph glyph-name="uniFE69_uniFE5B" unicode="&#xfe5b;&#xfe69;" horiz-adv-x="821" 
d="M583 -228h-402q-34 0 -63.5 13t-51.5 35.5t-34.5 52t-12.5 63.5q0 33 12.5 63t34.5 52.5t51.5 35.5t63.5 13h436q26 1 44.5 20.5t18.5 46.5v423h100v-426q0 -34 -12.5 -64t-34.5 -52t-52 -35t-64 -13h-436q-27 0 -45.5 -18.5t-18.5 -45.5q0 -26 19 -45t45 -19h402v-100z
" />
    <glyph glyph-name="uniFE69_uniFE5A" unicode="&#xfe5a;&#xfe69;" horiz-adv-x="788" 
d="M552 -228h-370q-34 0 -63.5 13t-51.5 35.5t-34.5 52.5t-12.5 63q0 34 12.5 64t34.5 52t51.5 35t63.5 13h369q27 0 45.5 19t18.5 47v424h100v-428q0 -26 19 -44t45 -18h9q24 0 37 -12q14 -14 14 -37t-13.5 -37t-37.5 -14h-9q-32 0 -62 12.5t-52 33.5q-23 -22 -52.5 -34
t-61.5 -12h-369q-27 0 -45.5 -18.5t-18.5 -45.5q0 -26 19 -45t45 -19h370v-100z" />
    <glyph glyph-name="uniFE69_uniFE5E" unicode="&#xfe5e;&#xfe69;" horiz-adv-x="992" 
d="M561 -228h-380q-33 0 -62.5 13t-51.5 35.5t-35 52.5t-13 63q0 34 12.5 63.5t34.5 52t51.5 35.5t63.5 13h369q23 0 43.5 17.5t20.5 46.5v95h-53v98h231q38 0 70.5 -14t56.5 -38t38 -56.5t14 -70.5q0 -37 -14 -69.5t-38.5 -56.5t-57 -38t-69.5 -14q-35 0 -66.5 13.5
t-57.5 38.5q-24 -25 -54 -38.5t-64 -13.5h-369q-26 0 -45 -18.5t-19 -45.5q0 -26 19 -45t45 -19h380v-100zM711 259v-81q0 -16 6.5 -30.5t18 -25.5t26 -17.5t30.5 -6.5q17 0 31.5 6.5t25.5 17.5t17.5 25.5t6.5 30.5q0 34 -23.5 57.5t-57.5 23.5h-81z" />
    <glyph glyph-name="uniFE69_uniFE5D" unicode="&#xfe5d;&#xfe69;" horiz-adv-x="1049" 
d="M632 -228h-450q-34 0 -63.5 13t-51.5 35.5t-34.5 52.5t-12.5 63q0 34 12.5 63.5t34.5 52t51.5 35.5t63.5 13h369q23 0 43.5 17t20.5 46v186l178 7q38 0 70.5 -14t56.5 -38t38 -56.5t14 -70.5v-11q2 -29 20 -47.5t45 -18.5h12q24 0 37.5 -13.5t13.5 -37.5q0 -22 -14 -36
q-15 -13 -37 -13h-12q-34 0 -64.5 13.5t-53.5 38.5q-26 -26 -58.5 -39.5t-67.5 -13.5t-67 13.5t-57 38.5q-24 -24 -54 -37.5t-64 -13.5h-369q-27 0 -45.5 -18.5t-18.5 -45.5q0 -26 19 -45t45 -19h450v-100zM712 257v-80q0 -16 6.5 -30.5t17.5 -25.5t26 -17.5t31 -6.5
q17 0 31.5 6.5t25.5 17.5t17.5 25.5t6.5 30.5q0 34 -23.5 57.5t-57.5 23.5z" />
    <glyph glyph-name="uniFE69_uniFE68" unicode="&#xfe68;&#xfe69;" horiz-adv-x="1092" 
d="M657 -228h-470q-34 0 -63.5 13t-51.5 35.5t-34.5 52.5t-12.5 63q0 34 12.5 63.5t34.5 52t51.5 35.5t63.5 13h322q-19 40 -19 79q0 51 29 95q-34 15 -61 55l-9 14l61 58l14 -13q36 -34 72 -34l303 3q37 0 69.5 -14t56.5 -38t38 -56.5t14 -69.5q0 -36 -14 -68.5t-38.5 -57
t-57 -39t-68.5 -14.5h-712q-27 0 -45.5 -18.5t-18.5 -45.5q0 -26 19 -45t45 -19h470v-100zM830 100h69q33 0 55.5 22.5t22.5 56.5t-22.5 57t-55.5 23l-69 -1q19 -40 19 -79q0 -44 -19 -79zM668 256q-32 0 -55 -23t-23 -54q0 -32 23 -55.5t55 -23.5q34 0 57.5 23t23.5 56
q0 32 -24 54.5t-57 22.5z" />
    <glyph glyph-name="uniFE69_uniFE67" unicode="&#xfe67;&#xfe69;" horiz-adv-x="899" 
d="M427 -228h-245q-34 0 -63.5 13t-51.5 35.5t-34.5 52t-12.5 63.5q0 33 12.5 63t34.5 52.5t51.5 35.5t63.5 13h271v79q0 36 14.5 68.5t39 57t57 38.5t68.5 14t69 -14t58 -38.5t40 -57t15 -68.5q0 -51 -24 -90q27 11 52 11h58q22 0 37 -13q14 -14 14 -36q0 -24 -13.5 -37.5
t-37.5 -13.5h-58q-23 0 -39 -19.5t-16 -40.5q0 -5 0.5 -18.5t4.5 -17.5h15v-100h-182q-34 0 -64 13t-52 35t-35 52t-13 64v32h-279q-27 0 -45.5 -19t-18.5 -45t19 -45t45 -19h245v-100zM561 0v-32q0 -26 20 -45t47 -19h67q-3 14 -4 24.5t-1 16.5q0 37 20 72q-18 -9 -38 -13
t-40 -4h-71zM546 97h79q33 0 57 24t24 57q0 16 -6.5 30.5t-17.5 25.5t-25.5 17.5t-31.5 6.5q-32 0 -55.5 -23.5t-23.5 -56.5v-81z" />
    <glyph glyph-name="uniFE69_uniFE20" unicode="&#xfe20;&#xfe69;" horiz-adv-x="1028" 
d="M1024 196q-1 0 -9 -1t-19.5 -1.5t-23.5 -1.5t-20 -1q-15 0 -26 3l-76 -107q-61 -87 -170 -87h-482q-27 0 -45.5 -18.5t-18.5 -45.5q0 -26 19 -45t45 -19h331v-100h-331q-34 0 -63.5 13t-51.5 35.5t-34.5 52t-12.5 63.5q0 33 12.5 63t34.5 52.5t51.5 35.5t63.5 13h481
q26 0 49.5 13t41.5 36l63 79l-119 57q-22 10 -44 10q-60 0 -109 -64l-10 -14l-79 42l11 18q31 54 77 85t109 31q45 0 89 -19h1l151 -73h1q17 -9 43 -9h70v-96zM606 538h92v-94h-92v94z" />
    <glyph glyph-name="uniFE69_uniFE1F" unicode="&#xfe1f;&#xfe69;" horiz-adv-x="1041" 
d="M513 -228h-331q-34 0 -63.5 13t-51.5 35.5t-34.5 52t-12.5 63.5q0 33 12.5 63t34.5 52.5t51.5 35.5t63.5 13h471q53 0 89 48l63 80l-117 56q-25 11 -47 11q-17 0 -29.5 -3.5t-24.5 -11t-24 -20t-29 -31.5l-10 -11l-82 40l11 19q32 53 78 85t109 32q42 0 88 -20h1l150 -72
q24 -10 47 -10h68v-96l-58 -4h-1q-11 0 -20.5 0.5t-17.5 1.5l-27 -38q2 -23 20 -38.5t45 -17.5h106q22 0 37 -13q14 -14 14 -36q0 -24 -13.5 -37.5t-37.5 -13.5h-107q-83 0 -125 71q-30 -31 -72 -50t-86 -21h-469q-27 0 -45.5 -18.5t-18.5 -45.5q0 -26 19 -45t45 -19h331
v-100zM597 538h92v-94h-92v94z" />
    <glyph glyph-name="uniFE00_uniFE5B" unicode="&#xfe5b;&#xfe00;" horiz-adv-x="450" 
d="M205 0h-145v100h145q22 0 41.5 8.5t34 23t23 34t8.5 41.5v356h100v-356q0 -43 -16 -81t-44 -66t-66 -44t-81 -16zM121 134l-103 415l97 23l102 -415z" />
    <glyph glyph-name="uniFE00_uniFE5A" unicode="&#xfe5a;&#xfe00;" horiz-adv-x="506" 
d="M506 0h-8q-44 0 -84.5 19t-70.5 54q-29 -35 -70.5 -54t-88.5 -19h-157v100h157q45 0 76.5 30.5t33.5 76.5v359h97v-359q0 -22 8.5 -41.5t23 -34t34 -23t41.5 -8.5h8q24 0 37 -13q14 -13 14 -36q0 -24 -13.5 -37.5t-37.5 -13.5zM119 134l-103 415l97 23l102 -415z" />
    <glyph glyph-name="uniFC5E" unicode="&#xfc5e;" horiz-adv-x="248" arabic-form="isolated" 
d="M65 741l-39 54l24 18q5 5 4.5 9.5t-2.5 7.5q-3 6 -11 6q-2 0 -10 -4l-6 -4l-37 51l8 6q23 16 46 16q41 0 62 -32q1 -1 5 -7q1 -3 3 -6l15 10l-8 10q-18 23 -14 53q1 12 8 23.5t17 21t22.5 15t24.5 5.5q13 0 26 -4.5t24 -13t18 -22t7 -31.5q0 -24 -12 -42t-23 -26
q-19 -14 -45 -33t-50 -37q-28 -22 -57 -44zM173 892l16 12q5 5 8 9.5t3 12.5t-8 16t-16 7q-11 -2 -16.5 -9.5t-5.5 -15.5q0 -5 1 -10t6 -10q4 -3 6 -6.5t6 -5.5zM168 593q-27 0 -43 13q-19 -13 -45 -13q-34 0 -57 21t-23 56v58h68v-58q0 -5 3.5 -8.5t8.5 -3.5q11 0 11 12v48
h66v-48q0 -12 11 -12q12 0 12 12v63h68v-63q0 -35 -23 -56t-57 -21z" />
    <glyph glyph-name="uniFC5F" unicode="&#xfc5f;" horiz-adv-x="250" arabic-form="isolated" 
d="M83 594l-37 58l152 104l36 -46zM38 672l-37 58l153 105l36 -47zM169 851q-27 0 -43 13q-19 -13 -45 -13q-34 0 -57 21t-23 56v58h68v-58q0 -5 3.5 -8.5t8.5 -3.5q11 0 11 12v48h66v-48q0 -12 11 -12q12 0 12 12v63h68v-63q0 -35 -23 -56t-57 -21z" />
    <glyph glyph-name="uniFC60" unicode="&#xfc60;" horiz-adv-x="248" arabic-form="isolated" 
d="M68 771l-37 57l153 105l36 -47zM168 593q-27 0 -43 13q-19 -13 -45 -13q-34 0 -57 21t-23 56v58h68v-58q0 -5 3.5 -8.5t8.5 -3.5q11 0 11 12v48h66v-48q0 -12 11 -12q12 0 12 12v63h68v-63q0 -35 -23 -56t-57 -21z" />
    <glyph glyph-name="uniFC61" unicode="&#xfc61;" horiz-adv-x="249" arabic-form="isolated" 
d="M68 760l-38 55l83 58l-8 11q-19 24 -14 53q4 27 25 45.5t48 18.5q39 0 61 -32q17 -23 14 -52q-5 -29 -27 -49q-2 -2 -6.5 -5.5t-9.5 -7.5q-6 -4 -13 -9q-29 -22 -57 -42.5t-58 -43.5zM166 948q-6 0 -13.5 -4.5t-7.5 -15.5q0 -10 6 -15l10 -13l15 9q10 10 10 19
q0 20 -20 20zM169 593q-27 0 -43 13q-19 -13 -45 -13q-34 0 -57 21t-23 56v58h68v-58q0 -5 3.5 -8.5t8.5 -3.5q11 0 11 12v48h66v-48q0 -12 11 -12q12 0 12 12v63h68v-63q0 -35 -23 -56t-57 -21z" />
    <glyph glyph-name="uniFC62" unicode="&#xfc62;" horiz-adv-x="247" arabic-form="isolated" 
d="M88 581l-37 57l153 105l36 -47zM167 773q-27 0 -43 13q-19 -13 -45 -13q-34 0 -57 21t-23 56v58h68v-58q0 -5 3.5 -8.5t8.5 -3.5q11 0 11 12v48h66v-48q0 -12 11 -12q12 0 12 12v63h68v-63q0 -35 -23 -56t-57 -21z" />
    <glyph glyph-name="uniFC63" unicode="&#xfc63;" horiz-adv-x="248" arabic-form="isolated" 
d="M168 593q-27 0 -43 13q-19 -13 -45 -13q-34 0 -57 21t-23 56v58h68v-58q0 -5 3.5 -8.5t8.5 -3.5q11 0 11 12v48h66v-48q0 -12 11 -12q12 0 12 12v63h68v-63q0 -35 -23 -56t-57 -21zM166 748h-82v189h82v-189z" />
    <glyph glyph-name="uniFDF2" unicode="&#xfdf2;" horiz-adv-x="1055" arabic-form="isolated" 
d="M800 0h-21q-42 0 -76 14.5t-64 42.5q-22 -27 -53.5 -42t-68.5 -15h-90q-67 0 -114 49q-24 -24 -55 -36.5t-65 -12.5q-36 0 -67.5 13.5t-55 37t-37 55t-13.5 67.5t13.5 67.5t37 55t55 37t67.5 13.5h77v39h96v-226q0 -26 17.5 -43.5t43.5 -17.5h90q27 0 44 17t17 44v226h98
v-184q0 -21 8 -40t22 -33t33 -22t40 -8h21q43 0 72.5 29.5t29.5 73.5v344h98v-344q0 -42 -15.5 -78.5t-42.5 -63.5t-63.5 -43t-78.5 -16zM193 250q-32 0 -54.5 -22.5t-22.5 -54.5t22.5 -54.5t54.5 -22.5t53.5 22.5t21.5 54.5v77h-75zM648 589h-49l-18 131h80zM669 425
q-27 0 -43 13q-19 -13 -45 -13q-34 0 -57 21t-23 56v58h68v-58q0 -5 3.5 -8.5t8.5 -3.5q11 0 11 12v48h66v-48q0 -12 11 -12q12 0 12 12v63h68v-63q0 -35 -23 -56t-57 -21z" />
    <glyph glyph-name="uniFE70" unicode="&#xfe70;" horiz-adv-x="1040" arabic-form="isolated" 
d="M800 0h-21q-42 0 -76 14.5t-64 42.5q-22 -27 -53.5 -42t-68.5 -15h-90q-67 0 -114 49q-24 -24 -55 -36.5t-65 -12.5q-36 0 -67.5 13.5t-55 37t-37 55t-13.5 67.5t13.5 67.5t37 55t55 37t67.5 13.5h77v39h96v-226q0 -26 17.5 -43.5t43.5 -17.5h90q27 0 44 17t17 44v226h98
v-184q0 -21 8 -40t22 -33t33 -22t40 -8h21q43 0 72.5 29.5t29.5 73.5v344h98v-344q0 -42 -15.5 -78.5t-42.5 -63.5t-63.5 -43t-78.5 -16zM193 250q-32 0 -54.5 -22.5t-22.5 -54.5t22.5 -54.5t54.5 -22.5t53.5 22.5t21.5 54.5v77h-75zM648 589h-49l-18 131h80zM669 425
q-27 0 -43 13q-19 -13 -45 -13q-34 0 -57 21t-23 56v58h68v-58q0 -5 3.5 -8.5t8.5 -3.5q11 0 11 12v48h66v-48q0 -12 11 -12q12 0 12 12v63h68v-63q0 -35 -23 -56t-57 -21z" />
    <glyph glyph-name="uniFE71" unicode="&#xfe71;" horiz-adv-x="104" arabic-form="medial" 
 />
    <glyph glyph-name="uniFE72" unicode="&#xfe72;" horiz-adv-x="157" arabic-form="isolated" 
 />
    <glyph glyph-name="uniFE74" unicode="&#xfe74;" horiz-adv-x="157" arabic-form="isolated" 
 />
    <glyph glyph-name="uniFE76" unicode="&#xfe76;" horiz-adv-x="157" arabic-form="isolated" 
 />
    <glyph glyph-name="uniFE77" unicode="&#xfe77;" horiz-adv-x="104" arabic-form="medial" 
 />
    <glyph glyph-name="uniFE78" unicode="&#xfe78;" horiz-adv-x="157" arabic-form="isolated" 
 />
    <glyph glyph-name="uniFE79" unicode="&#xfe79;" horiz-adv-x="104" arabic-form="medial" 
 />
    <glyph glyph-name="uniFE7A" unicode="&#xfe7a;" horiz-adv-x="157" arabic-form="isolated" 
 />
    <glyph glyph-name="uniFE7B" unicode="&#xfe7b;" horiz-adv-x="104" arabic-form="medial" 
 />
    <glyph glyph-name="uniFE7C" unicode="&#xfe7c;" horiz-adv-x="157" arabic-form="isolated" 
 />
    <glyph glyph-name="uniFE7D" unicode="&#xfe7d;" horiz-adv-x="104" arabic-form="medial" 
 />
    <glyph glyph-name="uniFE7E" unicode="&#xfe7e;" horiz-adv-x="157" arabic-form="isolated" 
 />
    <glyph glyph-name="uniFE7F" unicode="&#xfe7f;" horiz-adv-x="104" arabic-form="medial" 
 />
    <glyph glyph-name="uniFE80" unicode="&#x621;" horiz-adv-x="301" arabic-form="isolated" 
 />
    <glyph glyph-name="uniFE81" unicode="&#x622;" horiz-adv-x="233" arabic-form="isolated" 
 />
    <glyph glyph-name="uniFE82" unicode="&#x622;" horiz-adv-x="233" arabic-form="final" 
 />
    <glyph glyph-name="uniFE83" unicode="&#x623;" horiz-adv-x="223" arabic-form="isolated" 
 />
    <glyph glyph-name="uniFE84" unicode="&#x623;" horiz-adv-x="223" arabic-form="final" 
 />
    <glyph glyph-name="uniFE85" unicode="&#x624;" horiz-adv-x="437" arabic-form="isolated" 
 />
    <glyph glyph-name="uniFE86" unicode="&#x624;" horiz-adv-x="437" arabic-form="final" 
 />
    <glyph glyph-name="uniFE87" unicode="&#x625;" horiz-adv-x="187" arabic-form="isolated" 
 />
    <glyph glyph-name=".notdef" horiz-adv-x="550" 
 />
    <glyph glyph-name=".null" horiz-adv-x="0" 
 />
    <glyph glyph-name="nonmarkingreturn" horiz-adv-x="215" 
 />
    <glyph glyph-name="space" unicode=" " horiz-adv-x="157" 
 />
    <glyph glyph-name="exclam" unicode="!" horiz-adv-x="222" 
d="M157 180h-83l-13 371h108zM118 103q-24 0 -39 -15t-15 -37q0 -23 15 -38t39 -15t39 15t15 38q0 22 -15 37t-39 15z" />
    <glyph glyph-name="quotedbl" unicode="&#x22;" horiz-adv-x="414" 
d="M236 480l-10 157h88q-1 -19 -2 -45.5t-3 -51.5q-2 -29 -3 -60h-70zM191 637l-7 -157h-73l-7 157h87z" />
    <glyph glyph-name="numbersign" unicode="#" horiz-adv-x="623" 
d="M130 275h110l35 122h68l-35 -122h62l36 122h67l-35 -122h76v-59h-93l-23 -77h94v-59h-110l-35 -120h-67l34 120h-63l-33 -120h-69l34 120h-76v59h93l22 77h-92v59zM269 139h61l22 77h-61z" />
    <glyph glyph-name="dollar" unicode="$" horiz-adv-x="544" 
d="M492 158q0 -75 -51 -116.5t-133 -48.5v-91h-76v91q-47 5 -97 16.5t-100 30.5l22 74q60 -23 117.5 -35.5t104.5 -12.5q58 0 94 22.5t36 64.5q0 25 -13 40.5t-35 26t-50 16.5t-57 12q-4 2 -8 2.5t-9 1.5q-48 10 -81.5 22t-54.5 29.5t-30.5 40.5t-9.5 55q0 68 46.5 109
t124.5 48v98h76v-97q44 -3 88.5 -12.5t80.5 -21.5l-22 -69q-51 14 -102 22.5t-89 8.5q-54 0 -86 -21.5t-32 -62.5q0 -33 30.5 -49t97.5 -30q48 -9 88 -20.5t69 -29.5t45 -45t16 -69z" />
    <glyph glyph-name="percent" unicode="%" horiz-adv-x="763" 
d="M164 371q0 -46 12 -60.5t29 -14.5t29 14.5t12 60.5q0 44 -12 58t-29 14t-29 -14t-12 -58zM335 371q0 -45 -9.5 -75.5t-27 -49.5t-41 -27t-52.5 -8q-28 0 -52 8t-41 27t-27 49.5t-10 75.5q0 44 10 74.5t27 49t41 26.5t52 8q29 0 52.5 -8t41 -26.5t27 -49t9.5 -74.5z
M549 150q0 -45 11.5 -59t28.5 -14t29.5 14t12.5 59q0 46 -12.5 60t-29.5 14t-28.5 -14t-11.5 -60zM719 150q0 -89 -34.5 -124t-95.5 -35q-28 0 -51.5 8t-41 27t-27 49t-9.5 75t9.5 75.5t27 49t41 26.5t51.5 8q30 0 54.5 -8t41 -26.5t25.5 -49t9 -75.5zM605 533l-302 -520
l-98 3l301 512z" />
    <glyph glyph-name="ampersand" unicode="&#x26;" horiz-adv-x="624" 
d="M170 278q-18 25 -29 49t-11 44q0 32 10.5 51.5t26.5 30.5t35.5 15t36.5 4q47 0 78.5 -22t31.5 -70q0 -38 -23 -64.5t-56 -48.5q24 -28 52.5 -53t60.5 -50q14 34 23.5 67.5t17.5 67.5l99 32l22 -63l-60 -18q-8 -29 -19 -61.5t-27 -65.5q34 -25 66 -47t49 -33l-36 -58
l-19 12q-12 8 -35.5 23.5t-62.5 44.5q-29 -33 -70.5 -54.5t-101.5 -21.5q-21 0 -50 5.5t-55.5 21.5t-45 43.5t-18.5 72.5q0 28 9 49t24.5 38.5t35.5 31.5t41 27zM141 132q0 -25 11.5 -40.5t26.5 -24.5t30 -12t23 -3q38 0 65.5 14.5t49.5 39.5q-36 29 -71.5 59.5t-64.5 61.5
q-29 -19 -49.5 -41.5t-20.5 -53.5zM232 313q18 14 30.5 28t12.5 33t-7.5 28t-27.5 9q-18 0 -25.5 -10.5t-7.5 -28.5q0 -25 25 -59z" />
    <glyph glyph-name="quotesingle" unicode="'" horiz-adv-x="327" 
d="M207 637l-7 -157h-73l-7 157h87z" />
    <glyph glyph-name="parenleft" unicode="(" horiz-adv-x="309" 
d="M188 -120q-128 164 -128 325q0 162 128 328h61l-8 -13q-104 -154 -104 -309q0 -156 105 -317q0 -2 4 -8q1 -3 3 -6h-61z" />
    <glyph glyph-name="parenright" unicode=")" horiz-adv-x="358" 
d="M90 -120l4 6q1 2 2 4.5t1 3.5q105 161 105 317q0 155 -104 309l-8 13h61q128 -166 128 -328q0 -161 -128 -325h-61z" />
    <glyph glyph-name="asterisk" unicode="*" horiz-adv-x="425" 
d="M40 485l27 81q8 -2 22.5 -8t21.5 -9q12 -3 21 -8q11 -5 22 -8.5t22 -7.5l-3 45q0 5 -0.5 10.5t-0.5 10.5q-1 7 -2 22t-2 23h89q-1 -14 -2 -34t-2 -32q-1 -11 -1 -22.5t-1 -22.5q9 4 20.5 7.5t22.5 8.5q5 2 9 4t9 4q8 2 23 8.5t23 8.5l27 -81q-5 -1 -17 -4t-16 -5
q-20 -5 -39.5 -10t-39.5 -10q6 -8 14 -17t16 -19q8 -9 19 -21t25 -27l-73 -51q-5 6 -13.5 19t-13.5 20q-2 5 -5 8.5t-5 7.5q-6 8 -12 17t-11 17l-1 2l-1 1l-1 1v0q-5 -9 -11.5 -18.5t-13.5 -19.5q-7 -11 -18 -28t-17 -28l-73 51q9 10 22.5 25.5t21.5 24.5q5 5 9 10.5t9 10.5
t6.5 7t2.5 3l1.5 1.5t2.5 3.5q-4 1 -7.5 2t-8.5 2q-8 2 -15.5 3.5t-15.5 3.5q-5 2 -9.5 2.5t-9.5 2.5q-8 2 -23.5 6t-23.5 6z" />
    <glyph glyph-name="asterisk" unicode="&#x66d;" horiz-adv-x="425" 
d="M40 485l27 81q8 -2 22.5 -8t21.5 -9q12 -3 21 -8q11 -5 22 -8.5t22 -7.5l-3 45q0 5 -0.5 10.5t-0.5 10.5q-1 7 -2 22t-2 23h89q-1 -14 -2 -34t-2 -32q-1 -11 -1 -22.5t-1 -22.5q9 4 20.5 7.5t22.5 8.5q5 2 9 4t9 4q8 2 23 8.5t23 8.5l27 -81q-5 -1 -17 -4t-16 -5
q-20 -5 -39.5 -10t-39.5 -10q6 -8 14 -17t16 -19q8 -9 19 -21t25 -27l-73 -51q-5 6 -13.5 19t-13.5 20q-2 5 -5 8.5t-5 7.5q-6 8 -12 17t-11 17l-1 2l-1 1l-1 1v0q-5 -9 -11.5 -18.5t-13.5 -19.5q-7 -11 -18 -28t-17 -28l-73 51q9 10 22.5 25.5t21.5 24.5q5 5 9 10.5t9 10.5
t6.5 7t2.5 3l1.5 1.5t2.5 3.5q-4 1 -7.5 2t-8.5 2q-8 2 -15.5 3.5t-15.5 3.5q-5 2 -9.5 2.5t-9.5 2.5q-8 2 -23.5 6t-23.5 6z" />
    <glyph glyph-name="plus" unicode="+" horiz-adv-x="488" 
d="M196 251v150h97v-150h155v-93h-155v-149h-97v149h-156v93h156z" />
    <glyph glyph-name="comma" unicode="," horiz-adv-x="206" 
d="M142 98q23 -16 23 -42q0 -24 -17 -40t-42 -16t-42.5 16t-17.5 40q0 12 6 25t18 37q5 11 13.5 28t16.5 34h74z" />
    <glyph glyph-name="hyphen" unicode="-" horiz-adv-x="423" 
d="M30 251h367v-93h-367v93z" />
    <glyph glyph-name="hyphen" unicode="&#x2010;" horiz-adv-x="423" 
d="M30 251h367v-93h-367v93z" />
    <glyph glyph-name="period" unicode="." horiz-adv-x="275" 
d="M140 -12q-29 0 -49.5 18.5t-20.5 47.5q0 28 20.5 46.5t49.5 18.5t49.5 -18.5t20.5 -46.5q0 -29 -20.5 -47.5t-49.5 -18.5z" />
    <glyph glyph-name="slash" unicode="/" horiz-adv-x="361" 
d="M321 444q0 -5 -0.5 -7.5t-1.5 -4.5l-215 -538l-64 9l3 12l217 538z" />
    <glyph glyph-name="zero" unicode="0" horiz-adv-x="579" 
d="M289 -11q-66 0 -116.5 24.5t-84 66t-51 97t-17.5 116.5q0 68 19.5 124.5t54.5 96.5t85 62t110 22q66 0 116.5 -24.5t84.5 -66t51.5 -97t17.5 -117.5q0 -63 -18 -118t-52.5 -96.5t-84.5 -65.5t-115 -24zM289 498q-37 0 -67 -14.5t-51.5 -41t-33 -64.5t-11.5 -85
q0 -46 11.5 -84t33 -64.5t51.5 -41t67 -14.5t67 14.5t51.5 41.5t33.5 64.5t12 83.5q0 47 -11.5 85t-33 64.5t-51.5 41t-68 14.5z" />
    <glyph glyph-name="one" unicode="1" horiz-adv-x="258" 
d="M209 0h-103v475l-106 1l2 109h207v-585z" />
    <glyph glyph-name="two" unicode="2" horiz-adv-x="460" 
d="M450 1h-417v71l201 189q40 38 69.5 72t29.5 72q0 44 -29.5 68.5t-80.5 24.5q-31 0 -68.5 -10.5t-79.5 -30.5l-21 -10l-28 91l14 8q43 25 93.5 38.5t98.5 13.5q42 0 79.5 -12t66 -35.5t45 -58t16.5 -79.5q0 -37 -13.5 -69.5t-35 -61.5t-48 -54.5t-51.5 -48.5l-89 -80h248
v-98z" />
    <glyph glyph-name="three" unicode="3" horiz-adv-x="453" 
d="M208 -10h-186v96h188q20 0 41 6t38.5 17.5t28.5 28.5t11 40q0 24 -11 39t-29 23.5t-39.5 11.5t-42.5 3h-99v60l153 173h-241v99h394v-69l-152 -171q36 -4 67 -16t54 -33t36.5 -51t13.5 -68q0 -47 -19 -82.5t-50.5 -59t-72 -35.5t-83.5 -12z" />
    <glyph glyph-name="four" unicode="4" horiz-adv-x="536" 
d="M443 0h-104v103h-324v70l338 412h90v-386h73v-96h-73v-103zM162 199h177v219z" />
    <glyph glyph-name="five" unicode="5" horiz-adv-x="464" 
d="M234 -11h-213v99h210q52 0 83 26t31 70q0 27 -14 43.5t-33 25.5t-39.5 12t-34.5 4l-184 9l28 308h362v-100h-269l-12 -114l83 -4q103 -5 160 -53.5t57 -130.5q0 -47 -17.5 -83.5t-47 -61t-68.5 -37.5t-82 -13z" />
    <glyph glyph-name="six" unicode="6" horiz-adv-x="477" 
d="M263 0h-29q-34 0 -68.5 13t-62.5 35.5t-46 53.5t-18 67v224q0 39 15 74t41.5 61t61 42t73.5 17h195v-99h-189q-18 0 -35 -7t-30 -19t-21 -28t-10 -34h123q39 0 74.5 -15.5t61.5 -42t41.5 -62t15.5 -74.5v-12q0 -40 -15 -75.5t-41.5 -61.5t-61.5 -41.5t-75 -15.5zM140 299
v-130q0 -7 6.5 -19t20.5 -23q9 -8 27 -17.5t44 -9.5h21q20 0 37.5 7.5t30.5 20.5t21 30t8 36v11q0 19 -8 36t-21 30t-30.5 20.5t-37.5 7.5h-119z" />
    <glyph glyph-name="seven" unicode="7" horiz-adv-x="465" 
d="M213 0h-114l232 485h-302v100h430v-63z" />
    <glyph glyph-name="eight" unicode="8" horiz-adv-x="494" 
d="M254 258q-19 0 -41.5 -4t-41.5 -13.5t-31.5 -25.5t-12.5 -40t12.5 -41t31 -27.5t41 -15.5t42.5 -5q56 0 91 25t35 64q0 38 -34 60.5t-92 22.5zM254 505q-17 0 -35 -4t-32.5 -13t-23.5 -23t-9 -34q0 -36 26.5 -57t73.5 -21q45 0 72 21.5t27 56.5q0 33 -27 53.5t-72 20.5z
M254 -10q-42 0 -83.5 10.5t-75 33t-54.5 56.5t-21 82t23 83t65 56q-30 22 -44.5 53.5t-14.5 68.5q0 43 17.5 74.5t46.5 51.5t66 30t75 10q39 0 76 -10t65.5 -30.5t45.5 -52t17 -73.5q0 -76 -59 -122q41 -20 64.5 -56.5t23.5 -82.5q0 -40 -17 -73.5t-48 -57.5t-74 -37.5
t-94 -13.5z" />
    <glyph glyph-name="nine" unicode="9" horiz-adv-x="477" 
d="M49 0v99h189q18 0 35 7t30 19t21.5 28t9.5 34h-123q-40 0 -75 15.5t-61 42t-41.5 62t-15.5 74.5v12q0 41 15 76t41 61.5t61.5 41.5t75.5 15h29q34 0 68.5 -13t62.5 -35.5t46 -53.5t18 -67v-224q0 -39 -15 -74t-41.5 -61t-61 -41.5t-73.5 -17.5h-195zM215 487
q-19 0 -37 -7.5t-31 -20.5t-21 -30t-8 -36v-11q0 -19 8 -36t21 -30t31 -20.5t37 -7.5h119v130q0 7 -6.5 19t-20.5 23q-9 8 -27 17.5t-44 9.5h-21z" />
    <glyph glyph-name="colon" unicode=":" horiz-adv-x="260" 
d="M130 208q-29 0 -49.5 19t-20.5 48q0 28 20.5 46.5t49.5 18.5t49.5 -18.5t20.5 -46.5q0 -29 -20.5 -48t-49.5 -19zM130 -12q-29 0 -49.5 18.5t-20.5 47.5q0 28 20.5 46.5t49.5 18.5t49.5 -18.5t20.5 -46.5q0 -29 -20.5 -47.5t-49.5 -18.5z" />
    <glyph glyph-name="semicolon" unicode=";" horiz-adv-x="251" 
d="M132 284q25 0 42 -16t17 -40t-17 -40t-42 -16t-42 16t-17 40t17 40t42 16zM95 11q-23 16 -23 42q0 24 17 40t42 16t42.5 -16t17.5 -40q0 -12 -6 -25t-18 -37q-5 -11 -13.5 -28t-16.5 -34h-74z" />
    <glyph glyph-name="less" unicode="&#x3c;" horiz-adv-x="459" 
d="M40 179v56l379 182v-62l-308 -148l308 -149v-62z" />
    <glyph glyph-name="equal" unicode="=" horiz-adv-x="480" 
d="M40 323h400v-72h-400v72zM40 162h400v-71h-400v71z" />
    <glyph glyph-name="greater" unicode="&#x3e;" horiz-adv-x="459" 
d="M419 232v-57l-379 -182v62l308 149l-308 148v62z" />
    <glyph glyph-name="question" unicode="?" horiz-adv-x="417" 
d="M60 516q28 29 60.5 44.5t69.5 15.5q33 0 63.5 -12.5t53.5 -34.5t36.5 -51.5t13.5 -62.5q0 -24 -8.5 -45t-22 -40t-30 -36t-33.5 -34q-26 -25 -46.5 -48.5t-20.5 -47.5v-2h-78v14q0 22 7.5 41t19.5 36t27 32l30 30q25 24 44 46t19 47q0 34 -25 59t-60 25q-31 0 -66 -29z
M157 104q24 0 39 -15t15 -37q0 -23 -15 -38t-39 -15t-39 15t-15 38q0 22 15 37t39 15z" />
    <glyph glyph-name="at" unicode="@" horiz-adv-x="468" 
d="M12 224q0 50 19.5 93.5t52.5 75.5t76.5 51t91.5 19q38 0 75.5 -14t67.5 -38.5t49 -58.5t19 -74q0 -30 -13.5 -59.5t-35.5 -52t-51 -36.5t-59 -14q-14 0 -24 7t-18 16q-14 -13 -30 -18t-36 -5q-1 1 -5 1q-38 6 -59 34t-21 68q0 25 9 50.5t25 46t38.5 33.5t49.5 13
q30 0 54 -19l3 13l64 -20l-29 -132q-3 -13 -3 -19.5t8 -6.5t19 4q15 7 30.5 29.5t17.5 66.5q2 26 -11 47.5t-34.5 38t-48 25.5t-52.5 9q-36 0 -67.5 -14t-54.5 -38t-36.5 -54.5t-13.5 -63.5q0 -34 13.5 -61.5t37.5 -47.5t57 -31t71 -11q23 0 50.5 6t51.5 15l22 -59
q-60 -28 -124 -28q-51 0 -95.5 15.5t-78 44t-53 67.5t-19.5 86zM179 244q-4 -13 -4 -29q0 -19 10.5 -30t24.5 -11q23 0 42.5 22.5t19.5 64.5q0 19 -11 31t-25 12q-10 0 -18.5 -6t-16 -15t-13 -19.5t-8.5 -19.5h-1z" />
    <glyph glyph-name="A" unicode="A" horiz-adv-x="615" 
d="M616 0h-115l-59 131h-269l-58 -131h-116l266 589h85zM217 229h180l-90 205z" />
    <glyph glyph-name="B" unicode="B" horiz-adv-x="517" 
d="M271 -1q-39 0 -85 1.5t-90 3.5q-8 1 -18.5 1h-17.5h-20v590h226q96 0 149.5 -43t53.5 -120q0 -38 -16 -69t-45 -52q41 -20 65 -54t24 -81q0 -49 -19.5 -82.5t-51 -54.5t-72 -30.5t-83.5 -9.5zM144 349h115q12 0 30.5 2t35.5 10t29.5 23t12.5 41q0 23 -9.5 37.5t-24.5 22
t-34 10t-38 2.5h-117v-148zM144 100q30 -2 60.5 -2.5t61.5 -0.5q21 0 43.5 3t41 12t30.5 25.5t12 42.5q0 23 -12 37t-30 22t-38.5 11t-38.5 3h-130v-153z" />
    <glyph glyph-name="C" unicode="C" horiz-adv-x="568" 
d="M333 -12q-70 0 -128 21.5t-99.5 61.5t-64.5 96t-23 125q0 72 24 128.5t66.5 95.5t101 60t128.5 21q96 0 192 -29l18 -5l-20 -99l-20 6q-99 25 -164 25q-51 0 -91.5 -14t-69 -40t-43.5 -63.5t-15 -84.5t15 -85t42 -64.5t66 -41t87 -14.5q73 0 183 29l21 6l20 -94l-17 -6
q-53 -17 -106.5 -26t-102.5 -9z" />
    <glyph glyph-name="D" unicode="D" horiz-adv-x="571" 
d="M252 -5q-24 0 -51 0.5t-53 1t-49 1.5t-40 2l-19 1v590h205q67 0 123 -20.5t96.5 -58.5t63.5 -93t23 -123t-22 -123.5t-61.5 -95t-94.5 -61t-121 -21.5zM144 96q27 -1 54.5 -1h53.5q44 0 79.5 14.5t60.5 40.5t38.5 63t13.5 83q0 91 -53 143t-146 52h-101v-395z" />
    <glyph glyph-name="E" unicode="E" horiz-adv-x="481" 
d="M458 -1h-421v585h421v-100h-318v-143h285v-100h-285v-143h318v-99z" />
    <glyph glyph-name="F" unicode="F" horiz-adv-x="462" 
d="M145 0h-104v585h412v-100h-308v-162h275v-100h-275v-223z" />
    <glyph glyph-name="G" unicode="G" horiz-adv-x="638" 
d="M331 -1q-70 0 -127.5 22t-98 62t-62.5 96.5t-22 124.5q0 70 23.5 126.5t64.5 96t98 60.5t124 21q51 0 103 -7.5t100 -21.5l18 -5l-23 -97l-19 5q-49 12 -93.5 18t-81.5 6q-96 0 -152 -54.5t-56 -147.5q0 -45 14.5 -82.5t41.5 -64.5t64.5 -41.5t83.5 -14.5q40 0 83 7
t84 21v123h-215v100h316v-290l-12 -5q-131 -58 -256 -58z" />
    <glyph glyph-name="H" unicode="H" horiz-adv-x="565" 
d="M525 0h-104v240h-277v-240h-104v585h104v-246h277v246h104v-585z" />
    <glyph glyph-name="I" unicode="I" horiz-adv-x="184" 
d="M144 0h-104v585h104v-585z" />
    <glyph glyph-name="J" unicode="J" horiz-adv-x="459" 
d="M210 -11q-45 0 -89 8.5t-99 28.5l-17 6l24 95l20 -6q51 -16 89 -23t72 -7t54 13.5t31 33t14.5 42.5t3.5 41v262h-219v103h324v-364q0 -49 -13 -91.5t-39 -74t-65 -49.5t-91 -18z" />
    <glyph glyph-name="K" unicode="K" horiz-adv-x="473" 
d="M446 -1h-103v120q-2 48 -35 75.5t-92 27.5h-72v-223h-104v585h104v-261h21l188 261h129l-194 -270q73 -18 115.5 -68.5t42.5 -127.5v-119z" />
    <glyph glyph-name="L" unicode="L" horiz-adv-x="453" 
d="M442 -1h-403v585h103v-487h300v-98z" />
    <glyph glyph-name="M" unicode="M" horiz-adv-x="666" 
d="M38 586h92l201 -436l200 436h93v-585h-96v331l-157 -331h-80l-157 331v-331h-96v585z" />
    <glyph glyph-name="N" unicode="N" horiz-adv-x="587" 
d="M41 583h90l313 -401v401h104v-585h-93l-310 399v-399h-104v585z" />
    <glyph glyph-name="O" unicode="O" horiz-adv-x="652" 
d="M327 -11q-69 0 -125.5 22.5t-97 62.5t-62.5 96t-22 123q0 70 23 126.5t63.5 96t97 61t123.5 21.5q69 0 125 -23t96 -63.5t62 -96.5t22 -122q0 -69 -23 -125t-63.5 -95.5t-96.5 -61.5t-122 -22zM326 497q-45 0 -82 -14.5t-63 -41.5t-40.5 -64.5t-14.5 -83.5t14.5 -83.5
t40.5 -64.5t63 -41.5t82 -14.5t81.5 14.5t63 41.5t41 64.5t14.5 83.5t-14.5 83.5t-41 64.5t-63 41.5t-81.5 14.5z" />
    <glyph glyph-name="P" unicode="P" horiz-adv-x="500" 
d="M145 -1h-104v591h205q48 0 90.5 -12.5t74.5 -38t51 -64t19 -90.5q0 -50 -19.5 -88t-52 -64t-75 -39t-88.5 -13h-101v-182zM145 280h107q57 0 91.5 28.5t34.5 76.5q0 36 -14.5 56.5t-34.5 31.5t-41.5 14t-35.5 3h-107v-210z" />
    <glyph glyph-name="Q" unicode="Q" horiz-adv-x="652" 
d="M574 -73h-135l-58 66q-14 -2 -27 -3t-26 -1q-69 0 -125.5 22.5t-96.5 63t-62 96t-22 122.5q0 70 22.5 126.5t63 96t97 61t123.5 21.5q69 0 125 -22.5t96.5 -63t62.5 -96.5t22 -123q0 -85 -36.5 -154.5t-111.5 -111.5zM328 497q-45 0 -82 -14.5t-63 -41.5t-40.5 -64.5
t-14.5 -83.5t14.5 -83.5t40.5 -64.5t63 -41.5t82 -14.5t81.5 14.5t63 41.5t41 64.5t14.5 83.5t-14.5 83.5t-41 64.5t-63 41.5t-81.5 14.5z" />
    <glyph glyph-name="R" unicode="R" horiz-adv-x="518" 
d="M527 -2h-130l-141 195q-8 0 -15 -0.5t-15 -0.5h-83v-194h-104v591h200q47 0 89 -11.5t73.5 -35t50.5 -60.5t19 -88q0 -58 -28 -104t-82 -70zM143 290h101q57 0 90.5 28t33.5 76q0 28 -10.5 46.5t-28.5 29.5t-41 15.5t-47 4.5h-98v-200z" />
    <glyph glyph-name="S" unicode="S" horiz-adv-x="492" 
d="M265 -2q-54 0 -116 12.5t-120 35.5l-17 7l30 99l20 -9q52 -21 106 -33t100 -12q19 0 39.5 3.5t37.5 12.5t28 24t11 38q0 37 -39 57q-21 11 -48 17.5t-56 12.5q-37 6 -73 16t-64.5 28.5t-45.5 48t-17 73.5q0 46 18 79t47.5 54.5t68 31.5t79.5 10q50 0 105 -9t100 -26
l18 -7l-28 -92l-19 6q-49 14 -95.5 22t-81.5 8q-18 0 -37 -3.5t-34 -12t-24.5 -23t-9.5 -36.5q0 -12 4 -21.5t16.5 -17.5t35.5 -15t61 -15q42 -10 83 -21.5t73 -31.5q68 -44 68 -128q0 -48 -19 -82.5t-50.5 -57t-71.5 -33t-83 -10.5z" />
    <glyph glyph-name="T" unicode="T" horiz-adv-x="470" 
d="M286 1h-104v485h-171v100h450v-100h-175v-485z" />
    <glyph glyph-name="U" unicode="U" horiz-adv-x="588" 
d="M295 -12q-57 0 -103.5 18t-80 50.5t-52 79t-18.5 103.5v346h104v-346q0 -69 40.5 -110t109.5 -41t109.5 41t40.5 110v346h104v-346q0 -57 -18.5 -103.5t-51.5 -79.5t-80 -50.5t-104 -17.5z" />
    <glyph glyph-name="V" unicode="V" horiz-adv-x="611" 
d="M347 -1h-85l-265 585h118l189 -428l191 428h116z" />
    <glyph glyph-name="W" unicode="W" horiz-adv-x="847" 
d="M645 0h-87l-133 393l-135 -393h-87l-200 585h110l135 -399l134 399h83l136 -399l134 399h111z" />
    <glyph glyph-name="X" unicode="X" horiz-adv-x="584" 
d="M596 0h-129l-175 210l-175 -210h-129l235 291l-226 294h130l165 -211l165 211h129l-226 -294z" />
    <glyph glyph-name="Y" unicode="Y" horiz-adv-x="581" 
d="M343 0h-104v208l-246 377h121l176 -268l178 268h120l-245 -377v-208z" />
    <glyph glyph-name="Z" unicode="Z" horiz-adv-x="486" 
d="M477 -1h-466v69l314 416h-305v100h455v-69l-312 -417h314v-99z" />
    <glyph glyph-name="bracketleft" unicode="[" horiz-adv-x="246" 
d="M206 566h-83v-718h83v-48h-133q-13 0 -13 13v788q0 12 13 12h133v-47z" />
    <glyph glyph-name="backslash" unicode="\" horiz-adv-x="394" 
d="M40 547h87l227 -577h-88z" />
    <glyph glyph-name="bracketright" unicode="]" horiz-adv-x="265" 
d="M60 613h133q13 0 13 -12v-788q0 -13 -13 -13h-133v48h83v718h-83v47z" />
    <glyph glyph-name="asciicircum" unicode="^" horiz-adv-x="501" 
d="M217 694h69l175 -378h-89l-121 272l-123 -272h-88z" />
    <glyph glyph-name="underscore" unicode="_" horiz-adv-x="425" 
d="M425 -26v-68h-425v68h425z" />
    <glyph glyph-name="a" unicode="a" horiz-adv-x="448" 
d="M213 -11q-48 0 -86 16.5t-64.5 46t-40.5 69.5t-14 86q0 47 14.5 87t41.5 68.5t65.5 44.5t86.5 16h210v-423h-101v15q-52 -26 -112 -26zM223 329q-54 0 -83.5 -32t-29.5 -91q0 -57 29.5 -90t79.5 -33q27 0 52 8t54 25v213h-102z" />
    <glyph glyph-name="b" unicode="b" horiz-adv-x="468" 
d="M252 0h-214v616h102v-193q47 10 105 10q49 0 88 -15.5t66.5 -43.5t42 -68t14.5 -88q0 -46 -13.5 -86t-40 -69.5t-64.5 -46t-86 -16.5zM140 92h102q54 0 84 33t30 93q0 17 -4 38t-16 39t-35 30.5t-61 12.5q-20 0 -44.5 -1.5t-55.5 -9.5v-235z" />
    <glyph glyph-name="c" unicode="c" horiz-adv-x="404" 
d="M235 -6q-49 0 -90.5 16t-70.5 45t-45.5 69.5t-16.5 88.5q0 49 16.5 89t46.5 68.5t72 44t93 15.5q31 0 68 -6t66 -16l17 -6l-16 -87l-21 5q-33 8 -62 12t-49 4q-60 0 -94.5 -33.5t-34.5 -90.5q0 -56 33.5 -89.5t88.5 -33.5q25 0 59.5 6.5t64.5 13.5l20 5l19 -89l-17 -5
q-39 -12 -78 -19t-69 -7z" />
    <glyph glyph-name="d" unicode="d" horiz-adv-x="468" 
d="M427 0h-213q-48 0 -86.5 16.5t-64.5 45.5t-40 69t-14 87q0 49 14.5 88.5t42 67.5t67 43.5t88.5 15.5q58 0 105 -10v193h101v-616zM226 338q-38 0 -61 -12.5t-35 -30.5t-16 -39t-4 -38q0 -60 29.5 -93t83.5 -33h102v235q-25 6 -48.5 8.5t-50.5 2.5z" />
    <glyph glyph-name="e" unicode="e" horiz-adv-x="430" 
d="M234 -11q-49 0 -90 15.5t-69.5 44t-44.5 69t-16 89.5q0 48 15.5 88t43.5 68.5t67 44.5t86 16q45 0 81 -14t62 -39.5t40 -62t15 -80.5q0 -14 -0.5 -23t-2.5 -26l-3 -17h-294q23 -76 112 -76q32 0 62.5 5t68.5 15l20 6l19 -91l-22 -6q-38 -11 -72.5 -18.5t-77.5 -7.5z
M122 252h203q-7 38 -32.5 59t-65.5 21q-42 0 -69 -21t-36 -59z" />
    <glyph glyph-name="f" unicode="f" horiz-adv-x="337" 
d="M143 -94h-104v325h-79v99h79v56q0 35 10.5 64.5t31 51t49 33.5t64.5 12q17 0 35.5 -2.5t37.5 -7.5l18 -4l-17 -95l-20 4q-31 7 -52 7q-53 0 -53 -64v-55h139v-99h-139v-325z" />
    <glyph glyph-name="g" unicode="g" horiz-adv-x="457" 
d="M208 -195q-67 0 -147 30l-16 7l19 89l21 -6q29 -8 60.5 -15.5t61.5 -7.5q103 0 118 100q-32 -5 -56.5 -5.5t-53.5 -0.5q-46 0 -84 16t-64.5 44.5t-41 67t-14.5 83.5q0 47 14 87t41 68.5t65.5 44.5t86.5 16h210v-391q0 -51 -15 -93t-43.5 -71.5t-69 -46t-92.5 -16.5z
M225 328q-54 0 -83.5 -32t-29.5 -91q0 -52 30.5 -83.5t79.5 -31.5q29 0 55 1.5t50 6.5v229q-20 1 -50 1h-52z" />
    <glyph glyph-name="h" unicode="h" horiz-adv-x="455" 
d="M435 -1h-102v238q0 42 -20.5 64.5t-59.5 22.5h-111v-325h-102v606h102v-183h121q79 0 125.5 -47t46.5 -126v-250z" />
    <glyph glyph-name="i" unicode="i" horiz-adv-x="141" 
d="M121 1h-101v423h101v-423zM121 474h-100v102h100v-102z" />
    <glyph glyph-name="j" unicode="j" horiz-adv-x="240" 
d="M27 -172h-18l-9 95h32q20 0 32 5.5t18 16t7.5 25t1.5 32.5v422h101v-416q0 -45 -8 -78.5t-27 -56t-51 -34t-79 -11.5zM185 474h-100v102h100v-102z" />
    <glyph glyph-name="k" unicode="k" horiz-adv-x="410" 
d="M389 0h-102v112q0 15 -3 30.5t-12 28t-25 20.5t-41 8h-65v-199h-102v606h102v-310h17l124 127h134l-132 -138q23 -10 42 -27t33 -38.5t22 -46t8 -49.5v-124z" />
    <glyph glyph-name="l" unicode="l" horiz-adv-x="181" 
d="M141 0h-101v606h101v-606z" />
    <glyph glyph-name="m" unicode="m" horiz-adv-x="671" 
d="M648 0h-102v238q0 29 -6 46t-16.5 26t-23.5 12t-27 3q-53 0 -95 -13q3 -12 4 -26t1 -31v-255h-101v242q0 47 -16.5 65t-61.5 18h-86v-325h-101v423h198q36 0 62.5 -6.5t46.5 -20.5q36 13 76.5 20t82.5 7q84 0 124.5 -46t40.5 -127v-250z" />
    <glyph glyph-name="n" unicode="n" horiz-adv-x="434" 
d="M414 1h-101v238q0 42 -21 64.5t-60 22.5h-111v-325h-101v423h222q80 0 126 -46.5t46 -126.5v-250z" />
    <glyph glyph-name="o" unicode="o" horiz-adv-x="465" 
d="M233 0q-49 0 -90 16t-70.5 45t-46 69.5t-16.5 89.5q0 50 17 90t47 68.5t71 44t88 15.5q50 0 90.5 -16t70 -44.5t45.5 -69t16 -88.5q0 -49 -16.5 -89.5t-45.5 -69.5t-70 -45t-90 -16zM233 340q-54 0 -87 -33t-33 -87q0 -56 33 -89.5t87 -33.5t87 33.5t33 89.5q0 54 -33 87
t-87 33z" />
    <glyph glyph-name="p" unicode="p" horiz-adv-x="468" 
d="M141 -176h-101v600h210q47 0 85 -15.5t65 -43.5t42 -68t16 -89q0 -46 -15 -85t-42 -67t-65 -43.5t-83 -15.5q-29 0 -53.5 1t-58.5 6v-180zM142 99q26 -4 51.5 -6t54.5 -2q49 0 79 31.5t30 83.5q0 59 -29.5 91t-83.5 32h-102v-230z" />
    <glyph glyph-name="q" unicode="q" horiz-adv-x="468" 
d="M428 -173h-101v172h-112q-45 0 -83 15.5t-65 43.5t-42 67t-15 85q1 47 15.5 86.5t41 68t65 44.5t86.5 16h210v-598zM224 331q-54 0 -83.5 -32t-29.5 -91q0 -52 30 -83.5t79 -31.5h106v238h-102z" />
    <glyph glyph-name="r" unicode="r" horiz-adv-x="296" 
d="M20 423h109v-12q20 5 44 8.5t42 3.5h66v-110h-66q-25 0 -49.5 -4.5t-38.5 -7.5v-302h-107v424z" />
    <glyph glyph-name="s" unicode="s" horiz-adv-x="379" 
d="M195 -13q-38 0 -84 10.5t-89 29.5l-17 7l27 92l21 -10q37 -17 76 -26.5t69 -9.5q5 0 17 1t24 4.5t21.5 11.5t9.5 22q0 17 -21 25t-71 19q-27 6 -54.5 13.5t-49.5 21t-35.5 35.5t-13.5 56q0 36 14.5 61t38.5 41t54 23t61 7q24 0 47 -3t43.5 -7.5t36.5 -9.5t25 -8l19 -7
l-30 -86l-18 6q-36 11 -69.5 17t-57.5 6q-63 0 -63 -37q0 -13 16.5 -20t61.5 -18q32 -8 61 -16t52 -22q51 -31 51 -92q0 -64 -46 -100.5t-127 -36.5z" />
    <glyph glyph-name="t" unicode="t" horiz-adv-x="356" 
d="M239 -11q-147 0 -147 162v176h-83v97h83v140h101v-140h130v-97h-130v-171q0 -32 9.5 -51t45.5 -19q32 0 64 7l20 3l16 -91l-18 -4q-26 -7 -46 -9.5t-45 -2.5z" />
    <glyph glyph-name="u" unicode="u" horiz-adv-x="434" 
d="M189 -4q-82 0 -126.5 45.5t-44.5 127.5v256h101v-246q0 -45 20 -68q21 -21 61 -21q24 0 51 2t60 6v327h101v-404l-15 -3q-24 -6 -51 -10t-54.5 -7t-54 -4t-48.5 -1z" />
    <glyph glyph-name="v" unicode="v" horiz-adv-x="468" 
d="M278 -1h-89l-195 423h111l129 -279l129 279h111z" />
    <glyph glyph-name="w" unicode="w" horiz-adv-x="653" 
d="M499 -1h-87l-86 222l-86 -222h-87l-152 423h107l92 -256l88 224h77l87 -224l92 256h107z" />
    <glyph glyph-name="x" unicode="x" horiz-adv-x="427" 
d="M453 -2h-126l-113 140l-120 -140h-126l179 214l-171 211h126l111 -135l111 134h127l-171 -210z" />
    <glyph glyph-name="y" unicode="y" horiz-adv-x="445" 
d="M184 -196q-70 0 -146 29l-16 7l19 91l21 -7q26 -8 58 -15.5t63 -7.5q50 0 80 26.5t38 75.5q-29 -4 -59 -6t-60 -2q-172 0 -172 173v254h102v-244q0 -89 80 -89q28 0 55.5 2t55.5 6v325h102v-391q0 -52 -15.5 -94t-44.5 -71.5t-70 -45.5t-91 -16z" />
    <glyph glyph-name="z" unicode="z" horiz-adv-x="379" 
d="M373 0h-359v61l213 267h-207v95h354v-65l-209 -263h208v-95z" />
    <glyph glyph-name="braceleft" unicode="{" horiz-adv-x="270" 
d="M230 -200h-84q-62 0 -62 59v221q0 22 -1.5 36t-6 25.5t-13.5 21.5t-23 25v36q15 14 24 24t13.5 20.5t5.5 24t1 32.5v230q0 59 62 59h84v-48h-75q-8 0 -8 -7v-247q0 -35 -15 -58t-37 -47q23 -25 37.5 -48t14.5 -58v-247q0 -7 8 -7h75v-47z" />
    <glyph glyph-name="bar" unicode="|" horiz-adv-x="204" 
d="M60 596h84v-784h-84v784z" />
    <glyph glyph-name="braceright" unicode="}" horiz-adv-x="270" 
d="M40 -153h75q8 0 8 7v247q0 35 14.5 58t37.5 48q-22 24 -37 47t-15 58v247q0 7 -8 7h-75v48h84q62 0 62 -59v-230q0 -19 1.5 -32.5t6 -24t13 -20.5t23.5 -24v-36q-14 -15 -23 -25t-13.5 -21.5t-6 -25.5t-1.5 -36v-221q0 -59 -62 -59h-84v47z" />
    <glyph glyph-name="asciitilde" unicode="~" horiz-adv-x="329" 
d="M40 430q0 20 1.5 39.5t8.5 35t22 25t42 9.5q20 0 62 -20l22 -10q5 -4 9 -4q10 0 11 35h71q0 -111 -76 -111q-13 0 -28 5.5t-35 15.5q-22 13 -31 13q-7 0 -7 -33h-72z" />
    <glyph glyph-name="exclamdown" unicode="&#xa1;" horiz-adv-x="251" 
d="M87 224h83l13 -371h-108zM126 301q24 0 39 15t15 37q0 23 -15 38t-39 15t-39 -15t-15 -38q0 -22 15 -37t39 -15z" />
    <glyph glyph-name="cent" unicode="&#xa2;" horiz-adv-x="402" 
d="M60 206q0 56 34.5 99.5t85.5 60.5v76h92v-69h70v-85h-70v-164h69v-86h-69v-70h-92v78q-23 6 -45 18t-38.5 31t-26.5 46.5t-10 64.5zM151 206q0 -17 5.5 -36.5t23.5 -32.5v132q-14 -12 -21.5 -28t-7.5 -35z" />
    <glyph glyph-name="sterling" unicode="&#xa3;" horiz-adv-x="492" 
d="M35 3v70h60v147h-60v71h60v100q0 38 14.5 69.5t41.5 54t64.5 34.5t83.5 12q35 0 74 -5.5t77 -15.5l-14 -66q-38 7 -73.5 11.5t-64.5 4.5q-57 0 -89.5 -27t-32.5 -72v-100h190v-71h-190v-147h309v-70h-450z" />
    <glyph glyph-name="currency" unicode="&#xa4;" horiz-adv-x="500" 
d="M95 363q0 21 5.5 39.5t15.5 35.5l-56 35l48 67l72 -48q32 17 71 17q20 0 37 -4t33 -12l71 47l47 -66l-54 -35q24 -35 24 -76q0 -21 -6 -39.5t-15 -34.5l52 -34l-48 -65l-69 43q-16 -7 -34 -11t-38 -4q-39 0 -73 16l-70 -46l-48 66l56 36q-10 17 -15.5 34t-5.5 39z
M180 363q0 -29 21 -49t50 -20q32 0 51.5 20t19.5 49t-19.5 49.5t-51.5 20.5q-29 0 -50 -20.5t-21 -49.5z" />
    <glyph glyph-name="yen" unicode="&#xa5;" horiz-adv-x="501" 
d="M154 534l103 -260l61 259h92l-66 -275h97v-76h-115l-3 -13h118v-76h-137l-22 -93h-92l22 93h-149v76h142l-6 13h-136v76h106l-109 274z" />
    <glyph glyph-name="brokenbar" unicode="&#xa6;" horiz-adv-x="204" 
d="M60 540h84v-295h-84v295zM144 162v-294h-84v294h84z" />
    <glyph glyph-name="section" unicode="&#xa7;" horiz-adv-x="564" 
 />
    <glyph glyph-name="copyright" unicode="&#xa9;" horiz-adv-x="574" 
d="M60 253q0 47 17 87.5t47.5 69.5t72 45.5t90.5 16.5t90.5 -16.5t72 -45.5t47.5 -69.5t17 -87.5q0 -46 -17 -85.5t-47.5 -69t-72 -46t-90.5 -16.5t-90.5 16.5t-72 46t-47.5 69t-17 85.5zM119 252q0 -32 13.5 -61.5t36 -51.5t53 -35t64.5 -13t64.5 13t54 35t37 51.5
t13.5 61.5q0 33 -13.5 62.5t-37 52.5t-54 36.5t-64.5 13.5t-64.5 -13.5t-53 -36.5t-36 -52.5t-13.5 -62.5zM282 128q-57 0 -93 34t-36 91q0 59 37 92.5t94 33.5q20 0 39.5 -3.5t39.5 -8.5l7 -2l-8 -41l-8 2q-42 11 -67 11q-42 0 -66 -22.5t-24 -60.5q0 -39 23 -61.5
t63 -22.5q29 0 75 11l9 3l8 -39l-7 -2q-43 -15 -86 -15z" />
    <glyph glyph-name="ordfeminine" unicode="&#xaa;" horiz-adv-x="387" 
 />
    <glyph glyph-name="guillemotleft" unicode="&#xab;" horiz-adv-x="582" 
d="M40 180v54l313 250v-75l-247 -202l247 -202v-75zM229 180v54l313 250v-75l-246 -202l246 -202v-75z" />
    <glyph glyph-name="logicalnot" unicode="&#xac;" horiz-adv-x="438" 
d="M0 332h438v-241h-82v164h-356v77z" />
    <glyph glyph-name="registered" unicode="&#xae;" horiz-adv-x="557" 
d="M60 253q0 45 16.5 84t46 67t69.5 44t87 16t87 -16t69 -44t45.5 -67t16.5 -84t-16.5 -83t-45.5 -66t-69 -44t-87 -16t-87 16t-69.5 44t-46 66t-16.5 83zM102 251q0 -33 14 -63.5t38 -54t56 -37t68 -13.5t68 13.5t56 37t38.5 54t14.5 63.5q0 34 -14.5 65.5t-38.5 55.5
t-56 38t-68 14t-68 -14t-56 -38t-38 -55.5t-14 -65.5zM394 139h-52l-56 78q-3 0 -6 -0.5t-6 -0.5h-33v-77h-42v236h80q37 0 65 -18.5t28 -59.5q0 -49 -44 -70zM241 255h40q23 0 36.5 11t13.5 31q0 18 -13 29q-13 9 -38 9h-39v-80z" />
    <glyph glyph-name="macron" unicode="&#xaf;" horiz-adv-x="225" 
d="M0 519h225v-76h-225v76z" />
    <glyph glyph-name="degree" unicode="&#xb0;" horiz-adv-x="352" 
d="M292 576q0 -27 -9.5 -47.5t-25.5 -34.5t-36.5 -21t-43.5 -7t-44.5 7t-37.5 21t-25.5 34.5t-9.5 47.5q0 28 9.5 49t25.5 35.5t37.5 21.5t44.5 7t43.5 -7t36.5 -21.5t25.5 -35.5t9.5 -49zM145 576q0 -16 9 -25t23 -9q12 0 21 8.5t9 25.5q0 18 -9 27t-21 9q-14 0 -23 -9
t-9 -27z" />
    <glyph glyph-name="plusminus" unicode="&#xb1;" horiz-adv-x="457" 
d="M187 337v125h81v-125h129v-78h-129v-123h135v-77h-341v77h125v123h-130v78h130z" />
    <glyph glyph-name="twosuperior" unicode="&#xb2;" horiz-adv-x="319" 
d="M143 366h110v-60h-193v52q8 11 16.5 22t16.5 19q7 10 13.5 18.5t12.5 16.5l6 8q20 27 39 52.5t27 36.5q6 8 6 21q0 17 -11.5 27.5t-31.5 10.5q-17 0 -29 -6t-26 -20l-35 33q8 17 30.5 35t61.5 18q20 0 39 -8t33 -21.5t22.5 -31.5t8.5 -39q0 -35 -20 -58z" />
    <glyph glyph-name="threesuperior" unicode="&#xb3;" horiz-adv-x="308" 
d="M248 407q0 -20 -8.5 -38t-22.5 -31.5t-32.5 -21.5t-39.5 -8h-85v60h83q18 0 30.5 11t12.5 28v13q0 17 -12.5 29t-30.5 12h-52v58h36l39 70h-103v60h182v-51l-52 -91q24 -14 39.5 -36t15.5 -50v-14z" />
    <glyph glyph-name="mu" unicode="&#xb5;" horiz-adv-x="685" 
 />
    <glyph glyph-name="paragraph" unicode="&#xb6;" horiz-adv-x="721" 
 />
    <glyph glyph-name="periodcentered" unicode="&#xb7;" horiz-adv-x="244" 
d="M76 170q-16 19 -16 44q0 27 17.5 44.5t45.5 17.5q27 0 44 -18t17 -44q0 -25 -16 -44q-19 -19 -46 -19t-46 19z" />
    <glyph glyph-name="cedilla" unicode="&#xb8;" horiz-adv-x="248" 
 />
    <glyph glyph-name="onesuperior" unicode="&#xb9;" horiz-adv-x="230" 
d="M170 652v-340h-62v281h-48v59h110z" />
    <glyph glyph-name="ordmasculine" unicode="&#xba;" horiz-adv-x="467" 
d="M233 0q-49 0 -90 16t-70.5 45t-46 69.5t-16.5 89.5q0 50 17 90t47 68.5t71 44t88 15.5q50 0 90.5 -16t70 -44.5t45.5 -69t16 -88.5q0 -49 -16.5 -89.5t-45.5 -69.5t-70 -45t-90 -16zM233 340q-54 0 -87 -33t-33 -87q0 -56 33 -89.5t87 -33.5t87 33.5t33 89.5q0 54 -33 87
t-87 33z" />
    <glyph glyph-name="guillemotright" unicode="&#xbb;" horiz-adv-x="582" 
d="M542 219v-54l-313 -250v75l247 202l-247 202v75zM353 219v-54l-313 -250v75l246 202l-246 202v75z" />
    <glyph glyph-name="onequarter" unicode="&#xbc;" horiz-adv-x="673" 
d="M170 408v-340h-62v281h-48v59h110zM613 67h-33v-68h-62v68h-147v52l148 220h61v-212h33v-60zM518 127v99l-66 -99h66zM434 345l-185 -315l-55 30l183 311z" />
    <glyph glyph-name="onehalf" unicode="&#xbd;" horiz-adv-x="693" 
d="M467 93q7 10 13.5 18.5t12.5 16.5l6 7q20 28 39 53t27 37q6 6 6 21q0 17 -11.5 27.5t-31.5 10.5q-17 0 -29 -6.5t-26 -20.5l-35 34q8 17 30.5 35t61.5 18q20 0 39 -8t33 -21.5t22.5 -31.5t8.5 -39q0 -34 -20 -59l-96 -125h110v-60h-193v52q8 10 16.5 21.5t16.5 19.5z
M60 349v59h110v-340h-62v281h-48zM194 60l183 311l57 -26l-185 -315z" />
    <glyph glyph-name="threequarters" unicode="&#xbe;" horiz-adv-x="713" 
d="M653 67h-33v-68h-62v68h-148v52l150 220h60v-212h33v-60zM558 127v99l-66 -99h66zM248 167q0 -21 -8.5 -39t-22.5 -31.5t-32.5 -21t-39.5 -7.5h-85v59h83q18 0 30.5 11.5t12.5 28.5v13q0 17 -12.5 28.5t-30.5 11.5h-52v59h36l39 70h-103v59h182v-50l-52 -91
q24 -14 39.5 -36.5t15.5 -50.5v-13zM473 345l-184 -315l-56 30l183 311z" />
    <glyph glyph-name="questiondown" unicode="&#xbf;" horiz-adv-x="417" 
d="M357 -111q-28 -29 -60.5 -44.5t-69.5 -15.5q-33 0 -63.5 12.5t-53.5 34.5t-36.5 51.5t-13.5 62.5q0 24 8.5 45t22 40t30 36.5t33.5 33.5q26 25 46.5 48.5t20.5 47.5v2h78v-14q0 -22 -7.5 -41t-19.5 -36t-27 -32l-30 -30q-25 -24 -44 -46t-19 -47q0 -34 25 -59t60 -25
q31 0 66 29zM260 301q-24 0 -39 15t-15 37q0 23 15 38t39 15t39 -15t15 -38q0 -22 -15 -37t-39 -15z" />
    <glyph glyph-name="multiply" unicode="&#xd7;" horiz-adv-x="447" 
d="M158 204l-107 106l69 68l106 -106l110 110l65 -66l-109 -110l105 -105l-68 -69l-106 106l-110 -110l-66 65z" />
    <glyph glyph-name="Ucircumflex" unicode="&#xdb;" horiz-adv-x="590" 
d="M295 -12q-57 0 -103.5 18t-80 50.5t-52 79t-18.5 103.5v346h104v-346q0 -69 40.5 -110t109.5 -41t109.5 41t40.5 110v346h104v-346q0 -57 -18.5 -103.5t-51.5 -79.5t-80 -50.5t-104 -17.5z" />
    <glyph glyph-name="ocircumflex" unicode="&#xf4;" horiz-adv-x="0" 
 />
    <glyph glyph-name="otilde" unicode="&#xf5;" horiz-adv-x="268" 
 />
    <glyph glyph-name="divide" unicode="&#xf7;" horiz-adv-x="480" 
d="M236 108q18 0 31.5 -13.5t13.5 -31.5t-13.5 -31t-31.5 -13q-20 0 -33 13t-13 31t13 31.5t33 13.5zM440 169h-400v92h400v-92zM236 412q18 0 31.5 -12.5t13.5 -30.5t-13.5 -31.5t-31.5 -13.5q-20 0 -33 13.5t-13 31.5t13.5 30.5t32.5 12.5z" />
    <glyph glyph-name="florin" unicode="&#x192;" horiz-adv-x="378" 
 />
    <glyph glyph-name="ring" unicode="&#x2da;" horiz-adv-x="362" 
d="M243 409q0 -23 -8.5 -40.5t-22 -29.5t-31.5 -18.5t-37 -6.5q-39 0 -69.5 24.5t-30.5 70.5q0 23 8.5 41t22 30.5t32 19t37.5 6.5t37 -6.5t31.5 -19t22 -30.5t8.5 -41zM120 409q0 -12 7 -19t17 -7q9 0 16 6.5t7 19.5q0 14 -7 20.5t-16 6.5q-10 0 -17 -7t-7 -20z" />
    <glyph glyph-name="tilde" unicode="&#x2dc;" horiz-adv-x="545" 
d="M61 159l-1 21q0 24 7 46t20.5 39.5t34.5 27.5t48 10q40 0 119 -36q63 -30 90 -30q26 0 26 63h79l1 -22q0 -25 -6 -47t-19.5 -38.5t-33.5 -26.5t-49 -10q-38 0 -120 35q-72 32 -87 32q-31 0 -32 -64h-77z" />
    <glyph glyph-name="uni05DA" unicode="&#x5da;" horiz-adv-x="792" 
d="M792 0h-16q-67 0 -115 46q-48 -46 -110 -46h-304q-43 0 -81 16t-66 44t-44 66t-16 81v121h100v-121q0 -22 8.5 -41.5t23 -34t34 -23t41.5 -8.5h304q5 0 15.5 3.5t21.5 11t19 19.5t8 30t-4 30.5t-11.5 21.5t-18 16.5t-23.5 16.5l-204 130v77l184 183l68 -69l-138 -147
l137 -86q25 -16 45 -32.5t33.5 -36.5t21 -45t7.5 -58q2 -29 19.5 -47t44.5 -18h16q24 0 37 -13q14 -12 14 -36t-14 -37.5t-37 -13.5z" />
    <glyph glyph-name="uni060C" unicode="&#x60c;" horiz-adv-x="287" 
d="M185 99q14 -9 22 -23.5t8 -31.5q0 -31 -22.5 -51.5t-54.5 -20.5t-55 20.5t-23 51.5q0 16 7.5 33t23.5 48q7 14 17.5 36t21.5 44h96z" />
    <glyph glyph-name="uni061B" unicode="&#x61b;" horiz-adv-x="270" 
d="M130 -12q-29 0 -49.5 18.5t-20.5 47.5q0 28 20.5 46.5t49.5 18.5t49.5 -18.5t20.5 -46.5q0 -29 -20.5 -47.5t-49.5 -18.5zM172 323q29 -16 29 -51q0 -29 -20 -47.5t-49 -18.5t-50 18.5t-21 47.5q0 15 8 33t25 50q6 13 15.5 31.5t17.5 36.5h83z" />
    <glyph glyph-name="uni061F" unicode="&#x61f;" horiz-adv-x="417" 
d="M303 463q-35 29 -66 29q-35 0 -60 -25t-25 -59q0 -25 19 -47t44 -46l30 -30t27 -32t19.5 -36t7.5 -41v-14h-78v2q0 24 -20.5 47.5t-46.5 48.5q-17 17 -33.5 34t-30 36t-22 40t-8.5 45q0 33 13.5 62.5t36.5 51.5t53.5 34.5t63.5 12.5q37 0 69.5 -15.5t60.5 -44.5zM260 104
q24 0 39 -15t15 -37q0 -23 -15 -38t-39 -15t-39 15t-15 38q0 22 15 37t39 15z" />
    <glyph glyph-name="uni0621" unicode="&#x621;" horiz-adv-x="357" 
d="M247 236q-14 3 -26 5q-11 2 -22 3t-17 1q-17 0 -30.5 -12t-13.5 -29q0 -12 12.5 -25t33.5 -14q9 0 16 0.5t15 2.5t19.5 7t28.5 14l18 9l36 -70l-238 -128l-39 73l65 34q-30 23 -39.5 49t-9.5 48q0 24 10 46t26.5 38.5t39 26.5t46.5 10q28 0 45.5 -5.5t28.5 -10.5l17 -8z
" />
    <glyph glyph-name="uni0622" unicode="&#x622;" horiz-adv-x="272" 
d="M209 0h-100v550h100v-550zM39 563l-79 30l5 10q20 39 53 65.5t77 26.5l177 1v-84h-156q-30 0 -46.5 -11t-30.5 -38z" />
    <glyph glyph-name="uni0623" unicode="&#x623;" horiz-adv-x="223" 
d="M160 0h-100v550h100v-550zM154 691l11 32l-8 3q-5 3 -13.5 6t-22.5 3q-24 0 -42 -18t-18 -42q0 -11 5 -23.5t19 -24.5l-32 -16l19 -36l117 63l-18 35l-8 -5q-17 -9 -24 -10.5t-16 -1.5q-10 1 -15.5 7.5t-5.5 11.5q0 9 6.5 14.5t14.5 5.5q3 0 8.5 -0.5t10.5 -1.5t12 -2z
" />
    <glyph glyph-name="uni0624" unicode="&#x624;" horiz-adv-x="437" 
d="M132 -236l-26 86l18 6q6 2 11.5 4t11.5 4q29 9 58 21.5t49 27.5q20 16 34 42.5t12 53.5h-79q-37 0 -69.5 14t-56.5 38.5t-38 57t-14 69.5q0 36 14 69t38 57.5t56.5 39t69.5 14.5t69.5 -14.5t57 -39t38.5 -57t14 -69.5v-160q0 -56 -18.5 -102.5t-60.5 -84.5
q-15 -13 -33.5 -22.5t-38.5 -17.5t-39.5 -14t-36.5 -11q-6 -2 -11 -3.5t-10 -3.5zM221 269q-16 0 -31 -6.5t-25.5 -18t-17 -26t-6.5 -30.5q0 -33 23.5 -56t56.5 -23h81v79q0 16 -6.5 30.5t-17.5 26t-25.5 18t-31.5 6.5zM245 509l11 32l-8 3q-5 3 -13.5 6t-22.5 3
q-24 0 -42 -18t-18 -42q0 -11 5 -23.5t19 -24.5l-32 -16l19 -36l117 63l-18 35l-8 -5q-17 -9 -24 -10.5t-16 -1.5q-10 1 -15.5 7.5t-5.5 11.5q0 9 6.5 14.5t14.5 5.5q3 0 8.5 -0.5t10.5 -1.5t12 -2z" />
    <glyph glyph-name="uni0625" unicode="&#x625;" horiz-adv-x="187" 
d="M148 0h-100v590h100v-590zM134 -86l11 32l-8 3q-5 3 -13.5 6t-22.5 3q-24 0 -42 -18t-18 -42q0 -11 5 -23.5t19 -24.5l-32 -16l19 -36l117 63l-18 35l-8 -5q-17 -9 -24 -10.5t-16 -1.5q-10 1 -15.5 7.5t-5.5 11.5q0 9 6.5 14.5t14.5 5.5q3 0 8.5 -0.5t10.5 -1.5t12 -2z
" />
    <glyph glyph-name="uni0626" unicode="&#x626;" horiz-adv-x="639" 
d="M455 -198h-235q-39 0 -73.5 15t-60.5 41t-41 60.5t-15 73.5v214h100v-214q0 -38 26.5 -64t63.5 -26h235q28 0 46 18.5t18 45.5q0 21 -12 38t-29 22l-223 57v94q0 35 12 66.5t33.5 55.5t52 38.5t66.5 14.5l160 -3v-96h-160q-14 0 -26.5 -5.5t-21.5 -14t-14.5 -19
t-5.5 -20.5v-41q38 -7 72.5 -15t78.5 -19q53 -14 85 -56t32 -97q0 -35 -12.5 -64.5t-35 -52t-52 -35t-64.5 -12.5zM154 384l11 32l-8 3q-5 3 -13.5 6t-22.5 3q-24 0 -42 -18t-18 -42q0 -11 5 -23.5t19 -24.5l-32 -16l19 -36l117 63l-18 35l-8 -5q-17 -9 -24 -10.5t-16 -1.5
q-10 1 -15.5 7.5t-5.5 11.5q0 9 6.5 14.5t14.5 5.5q3 0 8.5 -0.5t10.5 -1.5t12 -2z" />
    <glyph glyph-name="uni0627" unicode="&#x627;" horiz-adv-x="180" 
d="M140 0h-100v590h100v-590z" />
    <glyph glyph-name="uni0628" unicode="&#x628;" horiz-adv-x="804" 
d="M559 0h-310q-43 0 -81 16t-66 44t-44 66t-16 81v121h98v-121q0 -22 8.5 -42t23 -34t34.5 -22.5t43 -8.5h310q23 0 43 8.5t34.5 23t23 34t8.5 42.5v120h98v-121q0 -43 -16 -81t-44 -66t-66 -44t-81 -16zM339 -115h92v-94h-92v94z" />
    <glyph glyph-name="uni0629" unicode="&#x629;" horiz-adv-x="398" 
d="M199 -17q-36 0 -68.5 13.5t-57 37.5t-39 56t-14.5 68q-1 36 13 70t40 60l56 57l-29 29l70 68l155 -155q26 -26 39 -58.5t14 -67.5q0 -37 -14 -69.5t-38.5 -56.5t-57 -38t-69.5 -14zM140 218q-22 -24 -21 -56.5t24 -55.5q24 -24 58 -24q33 0 55 22q12 12 17.5 26.5
t5.5 30.5t-5.5 30.5t-17.5 26.5l-57 57l-17 -16l-10.5 -10.5l-11.5 -11.5l-10 -10t-10 -9zM297 486h-93v95h93v-95zM142 486h-93v95h93v-95z" />
    <glyph glyph-name="uni062A" unicode="&#x62a;" horiz-adv-x="804" 
d="M558 0h-310q-43 0 -81 16t-66 44t-44 66t-16 81v121h98v-121q0 -22 8.5 -42t23 -34t34.5 -22.5t43 -8.5h310q23 0 43 8.5t34.5 23t23 34t8.5 42.5v120h98v-121q0 -43 -16 -81t-44 -66t-66 -44t-81 -16zM538 328h-93v95h93v-95zM383 328h-93v95h93v-95z" />
    <glyph glyph-name="uni062B" unicode="&#x62b;" horiz-adv-x="804" 
d="M558 0h-310q-43 0 -81 16t-66 44t-44 66t-16 81v121h98v-121q0 -22 8.5 -42t23 -34t34.5 -22.5t43 -8.5h310q23 0 43 8.5t34.5 23t23 34t8.5 42.5v120h98v-121q0 -43 -16 -81t-44 -66t-66 -44t-81 -16zM459 482h-92v94h92v-94zM537 328h-93v95h93v-95zM382 328h-93v95h93
v-95z" />
    <glyph glyph-name="uni062C" unicode="&#x62c;" horiz-adv-x="580" 
d="M481 193q-3 0 -14 0.5t-18 2.5q-35 -28 -73.5 -57.5t-76 -58t-72.5 -54.5t-64 -47q-42 -35 -45 -85q0 -23 9 -43t24 -35t35.5 -23.5t43.5 -8.5h269v-92l-272 -8q-43 0 -81 16t-66 44t-44 66t-16 81q0 48 19.5 89.5t54.5 70.5h1l252 187l-84 44q-19 10 -48 10
q-35 0 -63 -15.5t-43 -44.5l-10 -18l-75 43l8 17q25 54 75.5 86t111.5 32q49 0 89 -20h1l126 -68q11 -5 26.5 -8.5t28.5 -3.5h70v-93q-19 -3 -36 -4.5t-43 -1.5zM311 -46h79v-81h-79v81z" />
    <glyph glyph-name="uni062D" unicode="&#x62d;" horiz-adv-x="580" 
d="M481 193q-3 0 -14 0.5t-18 2.5q-35 -28 -73.5 -57.5t-76 -58t-72.5 -54.5t-64 -47q-42 -35 -45 -85q0 -23 9 -43t24 -35t35.5 -23.5t43.5 -8.5h269v-92l-272 -8q-43 0 -81 16t-66 44t-44 66t-16 81q0 48 19.5 89.5t54.5 70.5h1l252 187l-84 44q-19 10 -48 10
q-35 0 -63 -15.5t-43 -44.5l-10 -18l-75 43l8 17q25 54 75.5 86t111.5 32q49 0 89 -20h1l126 -68q11 -5 26.5 -8.5t28.5 -3.5h70v-93q-19 -3 -36 -4.5t-43 -1.5z" />
    <glyph glyph-name="uni062E" unicode="&#x62e;" horiz-adv-x="580" 
d="M481 193q-3 0 -14 0.5t-18 2.5q-35 -28 -73.5 -57.5t-76 -58t-72.5 -54.5t-64 -47q-42 -35 -45 -85q0 -23 9 -43t24 -35t35.5 -23.5t43.5 -8.5h269v-92l-272 -8q-43 0 -81 16t-66 44t-44 66t-16 81q0 48 19.5 89.5t54.5 70.5h1l252 187l-84 44q-19 10 -48 10
q-35 0 -63 -15.5t-43 -44.5l-10 -18l-75 43l8 17q25 54 75.5 86t111.5 32q49 0 89 -20h1l126 -68q11 -5 26.5 -8.5t28.5 -3.5h70v-93q-19 -3 -36 -4.5t-43 -1.5zM175 537h92v-94h-92v94z" />
    <glyph glyph-name="uni062F" unicode="&#x62f;" horiz-adv-x="450" 
d="M253 0h-218v100h218q26 0 45 18t19 43q0 18 -7.5 32.5t-20.5 22.5l-178 123l52 81q3 -2 17 -11.5t32.5 -22t40.5 -27t41.5 -28t34 -23.5t19.5 -14q32 -22 49.5 -56.5t17.5 -76.5q0 -33 -13 -62t-35.5 -51t-51.5 -35t-62 -13z" />
    <glyph glyph-name="uni0630" unicode="&#x630;" horiz-adv-x="430" 
d="M253 0h-218v100h218q26 0 45 18t19 43q0 18 -7.5 32.5t-20.5 22.5l-178 123l52 81q3 -2 17 -11.5t32.5 -22t40.5 -27t41.5 -28t34 -23.5t19.5 -14q32 -22 49.5 -56.5t17.5 -76.5q0 -33 -13 -62t-35.5 -51t-51.5 -35t-62 -13zM104 579h92v-94h-92v94z" />
    <glyph glyph-name="uni0631" unicode="&#x631;" horiz-adv-x="280" 
d="M-5 -244l-25 86l17 6q31 13 60.5 26t51.5 32q44 37 44 102v336h100v-337q-3 -57 -20.5 -96.5t-47 -67.5t-70.5 -47t-91 -34z" />
    <glyph glyph-name="uni0632" unicode="&#x632;" horiz-adv-x="280" 
d="M-5 -244l-25 86l17 6q31 13 60.5 26t51.5 32q44 37 44 102v336h100v-337q-3 -57 -20.5 -96.5t-47 -67.5t-70.5 -47t-91 -34zM145 538h92v-94h-92v94z" />
    <glyph glyph-name="uni0633" unicode="&#x633;" horiz-adv-x="1065" 
d="M307 -180q-55 0 -103.5 21t-85 57.5t-57.5 85t-21 103.5v158h100v-158q0 -35 13 -65.5t36 -53.5t53.5 -36.5t64.5 -13.5t64 13.5t52.5 37t36 54t13.5 64.5v223h101v-142q0 -29 19 -48.5t48 -19.5t49 20t20 48v142h99v-143q2 -29 21.5 -48t47.5 -19h45v237h102v-337h-147
q-32 0 -63.5 13t-52.5 36q-24 -23 -55.5 -36t-65.5 -13q-41 0 -76 19q-11 -43 -35.5 -79.5t-59 -63t-76 -41.5t-87.5 -15z" />
    <glyph glyph-name="uni0634" unicode="&#x634;" horiz-adv-x="1065" 
d="M307 -180q-55 0 -103.5 21t-85 57.5t-57.5 85t-21 103.5v158h100v-158q0 -35 13 -65.5t36 -53.5t53.5 -36.5t64.5 -13.5t64 13.5t52.5 37t36 54t13.5 64.5v223h101v-142q0 -29 19 -48.5t48 -19.5t49 20t20 48v142h99v-143q2 -29 21.5 -48t47.5 -19h45v237h102v-337h-147
q-32 0 -63.5 13t-52.5 36q-24 -23 -55.5 -36t-65.5 -13q-41 0 -76 19q-11 -43 -35.5 -79.5t-59 -63t-76 -41.5t-87.5 -15zM805 543h-92v94h92v-94zM883 389h-93v95h93v-95zM728 389h-93v95h93v-95z" />
    <glyph glyph-name="uni0635" unicode="&#x635;" horiz-adv-x="1050" 
d="M297 -149q-54 0 -101 20.5t-82 56t-55 82.5t-20 101v155h98v-155q0 -34 12.5 -63t34 -50.5t50.5 -34t63 -12.5q33 0 62.5 12.5t51.5 34.5t35 51t13 62v217h98v-59l179 83q41 21 90 21q41 0 78 -14.5t64.5 -41t44 -62t16.5 -77.5q0 -36 -14.5 -68.5t-38.5 -56.5
t-56.5 -38.5t-68.5 -14.5h-230q-47 0 -79 22q-13 -37 -37 -68.5t-56 -54t-71 -35.5t-81 -13zM557 165v-1q0 -27 18 -45.5t46 -18.5h230q34 0 56 22t22 56q0 23 -9.5 40.5t-24.5 30t-33.5 19t-37.5 6.5q-26 0 -47 -10z" />
    <glyph glyph-name="uni0636" unicode="&#x636;" horiz-adv-x="1050" 
d="M297 -149q-54 0 -101 20.5t-82 56t-55 82.5t-20 101v155h98v-155q0 -34 12.5 -63t34 -50.5t50.5 -34t63 -12.5q33 0 62.5 12.5t51.5 34.5t35 51t13 62v217h98v-59l179 83q41 21 90 21q41 0 78 -14.5t64.5 -41t44 -62t16.5 -77.5q0 -36 -14.5 -68.5t-38.5 -56.5
t-56.5 -38.5t-68.5 -14.5h-230q-47 0 -79 22q-13 -37 -37 -68.5t-56 -54t-71 -35.5t-81 -13zM557 165v-1q0 -27 18 -45.5t46 -18.5h230q34 0 56 22t22 56q0 23 -9.5 40.5t-24.5 30t-33.5 19t-37.5 6.5q-26 0 -47 -10zM780 538h92v-94h-92v94z" />
    <glyph glyph-name="uni0637" unicode="&#x637;" horiz-adv-x="554" 
d="M341 0h-324v100h53l-59 80l72 57q22 23 22 50v303h97v-255l2 1q27 23 61 34.5t70 11.5q51 0 88 -17t61 -44t35.5 -61t11.5 -69q0 -39 -15 -73.5t-41 -60.5t-60.5 -41.5t-73.5 -15.5zM71 100h270q19 0 35.5 7.5t29 20.5t20 29.5t7.5 35.5q0 39 -27.5 64.5t-71.5 25.5
q-38 0 -67 -23z" />
    <glyph glyph-name="uni0638" unicode="&#x638;" horiz-adv-x="554" 
d="M341 0h-324v100h53l-59 80l72 57q22 23 22 50v303h97v-255l2 1q27 23 61 34.5t70 11.5q51 0 88 -17t61 -44t35.5 -61t11.5 -69q0 -39 -15 -73.5t-41 -60.5t-60.5 -41.5t-73.5 -15.5zM71 100h270q19 0 35.5 7.5t29 20.5t20 29.5t7.5 35.5q0 39 -27.5 64.5t-71.5 25.5
q-38 0 -67 -23zM296 538h92v-94h-92v94z" />
    <glyph glyph-name="uni0639" unicode="&#x639;" horiz-adv-x="435" 
d="M260 -384h-1q-50 0 -94 18.5t-76.5 51t-51.5 76.5t-19 94q0 55 23.5 104t65.5 84q-32 25 -51 66.5t-19 81.5t15 74t41 59.5t61 40t74 14.5h110v-97h-108q-40 0 -66.5 -25.5t-26.5 -65.5q0 -39 26.5 -65.5t64.5 -26.5h145v-100h-114q-30 0 -56 -11.5t-45.5 -31
t-30.5 -45.5t-11 -56q0 -29 11.5 -55t31 -45.5t45.5 -31t55 -11.5h151v-89z" />
    <glyph glyph-name="uni063A" unicode="&#x63a;" horiz-adv-x="432" 
d="M260 -384h-1q-50 0 -94 18.5t-76.5 51t-51.5 76.5t-19 94q0 55 23.5 104t65.5 84q-32 25 -51 66.5t-19 81.5t15 74t41 59.5t61 40t74 14.5h110v-97h-108q-40 0 -66.5 -25.5t-26.5 -65.5q0 -39 26.5 -65.5t64.5 -26.5h145v-100h-114q-30 0 -56 -11.5t-45.5 -31
t-30.5 -45.5t-11 -56q0 -29 11.5 -55t31 -45.5t45.5 -31t55 -11.5h151v-89zM206 538h92v-94h-92v94z" />
    <glyph glyph-name="uni0640" unicode="&#x640;" horiz-adv-x="104" 
d="M104 100q22 0 36.5 -13t14.5 -36q0 -24 -13.5 -37.5t-37.5 -13.5h-104q-24 0 -37.5 13.5t-13.5 37.5q0 23 14.5 36t36.5 13h104z" />
    <glyph glyph-name="uni0641" unicode="&#x641;" horiz-adv-x="780" 
d="M580 0h-334q-42 0 -79.5 16.5t-66 45t-45 66t-16.5 79.5v124h100v-124q0 -22 8.5 -41.5t23 -34t34 -23t41.5 -8.5l334 1q25 0 44 12t29 32h-73q-37 0 -69.5 14t-56.5 38.5t-38 57t-14 69.5q0 36 14 69t38 58t56.5 40t69.5 15q38 0 70.5 -14.5t56.5 -39.5t38 -58t14 -70
v-145q0 -37 -14 -70t-38 -57t-56.5 -38t-70.5 -14zM580 405q-16 0 -30.5 -6.5t-25.5 -17.5t-17.5 -25.5t-6.5 -31.5q0 -33 23.5 -56t56.5 -23h81v79q0 33 -24 57t-57 24zM533 644h92v-94h-92v94z" />
    <glyph glyph-name="uni0642" unicode="&#x642;" horiz-adv-x="660" 
d="M340 -282q-63 0 -118 23.5t-95.5 64t-64 95.5t-23.5 118v183h98v-183q0 -42 16 -79t43.5 -64.5t64.5 -43.5t79 -16q39 0 73.5 14t61.5 39t44 58.5t21 72.5h-80q-37 0 -69.5 14t-56.5 38.5t-38 57t-14 69.5q0 36 14 69t38 58t56.5 40t69.5 15q38 0 70.5 -14.5t56.5 -39.5
t38 -58t14 -70v-159q0 -63 -23 -118t-63.5 -96t-95 -64.5t-117.5 -23.5zM461 260q-16 0 -30.5 -6.5t-25.5 -18t-17.5 -26t-6.5 -30.5q0 -33 23.5 -56t56.5 -23h81v79q0 16 -6.5 30.5t-17.5 26t-25.5 18t-31.5 6.5zM581 429h-93v95h93v-95zM426 429h-93v95h93v-95z" />
    <glyph glyph-name="uni0643" unicode="&#x643;" horiz-adv-x="804" 
d="M555 0h-310q-43 0 -80.5 16.5t-65.5 44.5t-44.5 65.5t-16.5 80.5v121h98v-121q0 -22 8.5 -42t23 -34t34.5 -22.5t43 -8.5h310q23 0 43 8.5t34.5 22.5t23 34t8.5 42v383h98v-383q0 -43 -16.5 -80.5t-44.5 -65.5t-65.5 -44.5t-80.5 -16.5zM327 217l-30 55l32 17
q-20 22 -20 50t22 55v1h1q26 26 55 26h2q18 -1 36 -8l19 -6l-16 -55l-20 6h-2q-2 0 -3.5 0.5t-3.5 0.5h-9q-7 0 -13 -7t-6 -13q0 -8 2 -10.5t10 -2.5q4 0 15.5 3t37.5 16l19 9l25 -55z" />
    <glyph glyph-name="uni0644" unicode="&#x644;" horiz-adv-x="600" 
d="M300 -199q-55 0 -102.5 20t-82.5 55t-55 82.5t-20 102.5v154h100v-154q0 -34 12.5 -63t34 -50.5t50.5 -34t63 -12.5q33 0 62 12.5t51 34t34.5 51t12.5 62.5v529h100v-529q0 -54 -20.5 -101t-56 -82.5t-82.5 -56t-101 -20.5z" />
    <glyph glyph-name="uni0645" unicode="&#x645;" horiz-adv-x="583" 
d="M135 -221h-98v416q0 34 12.5 63.5t34.5 51.5t51.5 34.5t63.5 12.5h204q36 -1 67 -16t54.5 -39t36.5 -56t13 -68t-14.5 -68.5t-39 -57t-57 -38.5t-68.5 -14h-1q-37 2 -69 16t-56 37.5t-38 55t-14 69.5q0 46 19 81h-37q-27 0 -45.5 -19t-18.5 -45v-416zM393 259
q-34 -2 -55 -24.5t-21 -56.5q0 -33 22 -55.5t56 -22.5q35 0 58 22.5t23 55.5t-22 56t-55 25h-6z" />
    <glyph glyph-name="uni0646" unicode="&#x646;" horiz-adv-x="600" 
d="M300 -200q-54 0 -101.5 20.5t-82.5 56t-55.5 83t-20.5 100.5v155h100v-155q0 -33 13 -62t34.5 -50.5t50.5 -34.5t62 -13q34 0 63.5 12.5t51.5 34t35 51t13 62.5v217h97v-217q0 -54 -20 -101.5t-55.5 -83t-83 -55.5t-101.5 -20zM259 296h79v-81h-79v81z" />
    <glyph glyph-name="uni0647" unicode="&#x647;" horiz-adv-x="398" 
d="M199 -17q-36 0 -68.5 13.5t-57 37.5t-39 56t-14.5 68q-1 36 13 70t40 60l56 57l-29 29l70 68l155 -155q26 -26 39 -58.5t14 -67.5q0 -37 -14 -69.5t-38.5 -56.5t-57 -38t-69.5 -14zM140 218q-22 -24 -21 -56.5t24 -55.5q24 -24 58 -24q33 0 55 22q12 12 17.5 26.5
t5.5 30.5t-5.5 30.5t-17.5 26.5l-57 57l-17 -16l-10.5 -10.5l-11.5 -11.5l-10 -10t-10 -9z" />
    <glyph glyph-name="uni0648" unicode="&#x648;" horiz-adv-x="437" 
d="M132 -236l-26 86l18 6q6 2 11.5 4t11.5 4q29 9 58 21.5t49 27.5q20 16 34 42.5t12 53.5h-79q-37 0 -69.5 14t-56.5 38.5t-38 57t-14 69.5q0 36 14 69t38 57.5t56.5 39t69.5 14.5t69.5 -14.5t57 -39t38.5 -57t14 -69.5v-160q0 -56 -18.5 -102.5t-60.5 -84.5
q-15 -13 -33.5 -22.5t-38.5 -17.5t-39.5 -14t-36.5 -11q-6 -2 -11 -3.5t-10 -3.5zM221 269q-16 0 -31 -6.5t-25.5 -18t-17 -26t-6.5 -30.5q0 -33 23.5 -56t56.5 -23h81v79q0 16 -6.5 30.5t-17.5 26t-25.5 18t-31.5 6.5z" />
    <glyph glyph-name="uni0649" unicode="&#x649;" horiz-adv-x="639" 
d="M455 -198h-235q-39 0 -73.5 15t-60.5 41t-41 60.5t-15 73.5v214h100v-214q0 -38 26.5 -64t63.5 -26h235q28 0 46 18.5t18 45.5q0 21 -12 38t-29 22l-223 57v94q0 35 12 66.5t33.5 55.5t52 38.5t66.5 14.5l160 -3v-96h-160q-14 0 -26.5 -5.5t-21.5 -14t-14.5 -19
t-5.5 -20.5v-41q38 -7 72.5 -15t78.5 -19q53 -14 85 -56t32 -97q0 -35 -12.5 -64.5t-35 -52t-52 -35t-64.5 -12.5z" />
    <glyph glyph-name="uni064A" unicode="&#x64a;" horiz-adv-x="640" 
d="M455 -198h-235q-39 0 -73.5 15t-60.5 41t-41 60.5t-15 73.5v214h100v-214q0 -38 26.5 -64t63.5 -26h235q28 0 46 18.5t18 45.5q0 21 -12 38t-29 22l-223 57v94q0 35 12 66.5t33.5 55.5t52 38.5t66.5 14.5l160 -3v-96h-160q-14 0 -26.5 -5.5t-21.5 -14t-14.5 -19
t-5.5 -20.5v-41q38 -7 72.5 -15t78.5 -19q53 -14 85 -56t32 -97q0 -35 -12.5 -64.5t-35 -52t-52 -35t-64.5 -12.5zM207 -268h93v-95h-93v95zM362 -268h93v-95h-93v95z" />
    <glyph glyph-name="uni064B" unicode="&#x64b;" horiz-adv-x="233" 
d="M82 592l-37 58l152 104l36 -46zM37 670l-37 58l153 105l36 -47z" />
    <glyph glyph-name="uni064C" unicode="&#x64c;" horiz-adv-x="264" 
d="M77 591l-39 54l24 18q5 5 4.5 9.5t-2.5 7.5q-3 6 -11 6q-2 0 -10 -4l-6 -4l-37 51l8 6q23 16 46 16q41 0 62 -32q1 -1 5 -7q1 -3 3 -6l15 10l-8 10q-18 23 -14 53q1 12 8 23.5t17 21t22.5 15t24.5 5.5q13 0 26 -4.5t24 -13t18 -22t7 -31.5q0 -24 -12 -42t-23 -26
q-19 -14 -45 -33t-50 -37q-28 -22 -57 -44zM185 742l16 12q5 5 8 9.5t3 12.5t-8 16t-16 7q-11 -2 -16.5 -9.5t-5.5 -15.5q0 -5 1 -10t6 -10q4 -3 6 -6.5t6 -5.5z" />
    <glyph glyph-name="uni064D" unicode="&#x64d;" horiz-adv-x="233" 
d="M82 -329l-37 58l152 104l36 -46zM37 -251l-37 58l153 105l36 -47z" />
    <glyph glyph-name="uni064E" unicode="&#x64e;" horiz-adv-x="189" 
d="M37 591l-37 57l153 105l36 -47z" />
    <glyph glyph-name="uni064F" unicode="&#x64f;" horiz-adv-x="209" 
d="M38 590l-38 55l83 58l-8 11q-19 24 -14 53q4 27 25 45.5t48 18.5q39 0 61 -32q17 -23 14 -52q-5 -29 -27 -49q-2 -2 -6.5 -5.5t-9.5 -7.5q-6 -4 -13 -9q-29 -22 -57 -42.5t-58 -43.5zM136 778q-6 0 -13.5 -4.5t-7.5 -15.5q0 -10 6 -15l10 -13l15 9q10 10 10 19
q0 20 -20 20z" />
    <glyph glyph-name="uni0650" unicode="&#x650;" horiz-adv-x="189" 
d="M37 -252l-37 57l153 105l36 -47z" />
    <glyph glyph-name="uni0651" unicode="&#x651;" horiz-adv-x="248" 
d="M168 593q-27 0 -43 13q-19 -13 -45 -13q-34 0 -57 21t-23 56v58h68v-58q0 -5 3.5 -8.5t8.5 -3.5q11 0 11 12v48h66v-48q0 -12 11 -12q12 0 12 12v63h68v-63q0 -35 -23 -56t-57 -21z" />
    <glyph glyph-name="uni0652" unicode="&#x652;" horiz-adv-x="168" 
d="M84 594q-17 0 -32.5 6.5t-27 18t-18 27t-6.5 33.5q0 15 6 30t17 26.5t26.5 19t34.5 7.5q38 0 61 -24.5t23 -58.5q0 -35 -24.5 -60t-59.5 -25zM83 706q-10 0 -18.5 -8.5t-8.5 -18.5q0 -14 9 -22q8 -8 19 -8q14 0 21 9t7 22q0 9 -7.5 17.5t-21.5 8.5z" />
    <glyph glyph-name="uni0653" unicode="&#x653;" horiz-adv-x="328" 
d="M84 603q-1 -2 -2 -3.5t-2 -3.5q0 -2 -1 -3l-79 30l5 10q20 39 53 65.5t77 26.5l193 1v-84h-172q-16 0 -38 -6.5t-34 -32.5z" />
    <glyph glyph-name="uni0654" unicode="&#x654;" horiz-adv-x="156" 
d="M35 651q-27 20 -27 52t21 52.5t47 19.5q11 0 23.5 -3.5t21.5 -6.5l-11 -37q-1 0 -9.5 2t-21.5 3q-11 0 -20 -9.5t-9 -20.5q0 -23 22 -23q5 0 18.5 3.5t39.5 16.5l9 5l17 -37l-136 -73l-20 37z" />
    <glyph glyph-name="uni0655" unicode="&#x655;" horiz-adv-x="156" 
d="M35 -216q-27 19 -27 52q0 32 21 52.5t47 19.5q11 0 23.5 -3.5t21.5 -6.5l-11 -37q-1 0 -9.5 2t-21.5 3q-11 0 -20 -9.5t-9 -20.5q0 -23 22 -23q5 0 18.5 3.5t39.5 16.5l9 5l17 -37l-136 -73l-20 37z" />
    <glyph glyph-name="uni0656" unicode="&#x656;" horiz-adv-x="82" 
d="M82 -277h-82v189h82v-189z" />
    <glyph glyph-name="uni0660" unicode="&#x660;" horiz-adv-x="274" 
d="M136 224q26 0 44.5 -17.5t18.5 -43.5t-18.5 -44.5t-44.5 -18.5t-43.5 18.5t-17.5 44.5t17.5 43.5t43.5 17.5z" />
    <glyph glyph-name="uni0661" unicode="&#x661;" horiz-adv-x="260" 
d="M200 -60h-98v401q0 31 -8.5 60t-23.5 52l-10 15l75 52q10 -10 18.5 -22t15.5 -23q31 -63 31 -134v-401z" />
    <glyph glyph-name="uni0662" unicode="&#x662;" horiz-adv-x="579" 
d="M190 -61h-98v402q0 29 -9 57t-26 54l-7 9l74 63l13 -18q38 -50 50 -122l1 -9q5 -42 35.5 -69t71.5 -27h17q22 0 41.5 8.5t34 23t23 34t8.5 41.5v119h100v-119q0 -43 -16 -81t-44 -66t-66 -44t-81 -16h-17q-57 0 -105 30v-270z" />
    <glyph glyph-name="uni0663" unicode="&#x663;" horiz-adv-x="716" 
d="M195 -62h-97v399q0 28 -9.5 56.5t-26.5 54.5l-12 18l83 51l30 -45q32 -58 32 -130q0 -28 19.5 -47.5t47.5 -19.5q27 0 46.5 19.5t19.5 47.5v140h98v-140q0 -28 19.5 -47.5t46.5 -19.5t45.5 19t18.5 48v161h100v-161q0 -34 -13 -64t-35 -52t-52 -35t-64 -13q-70 0 -115 47
q-45 -47 -115 -47q-18 0 -35 3.5t-32 9.5v-253z" />
    <glyph glyph-name="uni0664" unicode="&#x664;" horiz-adv-x="450" 
d="M400 -60h-186q-33 0 -63 12.5t-52.5 34.5t-35.5 51t-13 63q0 36 15 68.5t43 57.5q-22 21 -34 50.5t-12 63.5t12.5 63.5t34.5 51.5t51.5 34.5t63.5 12.5h106v-98h-106q-27 0 -45.5 -18.5t-18.5 -45.5q0 -26 18 -44.5t44 -19.5q26 4 48 8t39 8q19 4 34 8l31 -89l-181 -49
q-20 -8 -31.5 -24.5t-11.5 -37.5q0 -26 18.5 -43.5t45.5 -17.5h186v-100z" />
    <glyph glyph-name="uni0665" unicode="&#x665;" horiz-adv-x="550" 
d="M331 -62h-115q-42 0 -74.5 18t-55 47t-34.5 65.5t-12 74.5q0 42 14 83t39 69q11 13 35 37.5t57 56.5q5 5 10 10.5t10 10.5l-13.5 13.5t-16.5 17.5l-21 21l61 64q65 -61 116 -111q22 -21 43.5 -41.5t39 -37.5t28.5 -28t13 -14q8 -9 17.5 -23t18 -32.5t14 -41t5.5 -49.5
q0 -62 -21.5 -101.5t-43.5 -59.5q-29 -27 -60.5 -38t-53.5 -11zM163 229v-1l-1 -1q-19 -25 -24 -46t-5 -33q0 -35 8 -57t20 -34t27 -16.5t30 -4.5h111q10 0 24.5 3t28 14t23 32.5t9.5 57.5q0 43 -27 85l-1 1q-3 3 -13 13.5t-25 25.5l-34 34t-40 39q-45 -44 -75.5 -75
t-35.5 -37z" />
    <glyph glyph-name="uni0666" unicode="&#x666;" horiz-adv-x="512" 
d="M35 488q32 -5 64 -9q28 -3 59 -6t56 -3t55 1.5t58.5 4t51 4t32.5 1.5l1 -368q0 -26 13.5 -59t36.5 -68l-75 -43q-13 13 -26.5 32.5t-23.5 42t-16.5 47.5t-6.5 48v263q-20 -1 -45 -2t-53 -1q-27 0 -58.5 2.5t-58.5 6.5q-32 3 -64 8v98z" />
    <glyph glyph-name="uni0667" unicode="&#x667;" horiz-adv-x="532" 
d="M314 -57h-98l-104 399q-8 26 -21 56t-36 50l-15 15l62 66q10 -10 19 -18q7 -7 13 -13.5t8 -8.5q47 -50 65 -122l58 -220l60 220q15 71 64 123q3 4 9.5 10t13.5 12q8 8 17 16l63 -65l-6 -6q-2 -3 -4.5 -5.5l-4.5 -4.5q-20 -18 -35 -45.5t-24 -59.5z" />
    <glyph glyph-name="uni0668" unicode="&#x668;" horiz-adv-x="532" 
d="M418 130q6 -22 13 -37.5t16 -29t20 -26.5t25 -28l-63 -65q-9 8 -17 16q-7 6 -13.5 12t-9.5 10q-49 52 -64 123l-60 220l-58 -220q-18 -72 -65 -122q-2 -2 -8 -8.5t-13 -13.5q-9 -8 -19 -18l-62 66l15 15q23 20 36 50t21 56l104 399h98z" />
    <glyph glyph-name="uni0669" unicode="&#x669;" horiz-adv-x="482" 
d="M365 -59q-7 8 -13 16q-5 8 -11 15.5t-10 15.5q-17 31 -24 64t-7 70l-1 56q-23 -2 -44.5 -2.5t-36.5 -0.5q-37 0 -69.5 14t-56.5 38.5t-38 57t-14 69.5q0 36 14.5 68.5t38.5 56.5t56.5 38.5t68.5 14.5q37 0 69.5 -14t57 -38t38.5 -56.5t14 -69.5l1 -232q0 -38 11.5 -66
t32.5 -58zM218 432q-34 0 -56 -22t-22 -56t22.5 -57.5t55.5 -23.5h81v81q0 33 -23.5 55.5t-57.5 22.5z" />
    <glyph glyph-name="uni066A" unicode="&#x66a;" horiz-adv-x="404" 
d="M97 -40l-57 80l283 514l41 -111zM311 36q-23 0 -38 14.5t-15 36.5q0 21 15 35.5t38 14.5t38 -14.5t15 -35.5q0 -22 -15 -36.5t-38 -14.5zM110 336q-23 0 -38 14.5t-15 36.5q0 21 15 35.5t38 14.5t38 -14.5t15 -35.5q0 -22 -15 -36.5t-38 -14.5z" />
    <glyph glyph-name="uni066B" unicode="&#x66b;" horiz-adv-x="287" 
d="M102 4q-30 21 -30 55q0 32 22 52.5t54 20.5t55 -20.5t23 -52.5q0 -16 -7.5 -33t-23.5 -48q-7 -13 -17.5 -35.5t-21.5 -44.5h-96z" />
    <glyph glyph-name="uni0670" unicode="&#x670;" horiz-adv-x="82" 
d="M82 593h-82v189h82v-189z" />
    <glyph glyph-name="uni0671" unicode="&#x671;" horiz-adv-x="259" 
 />
    <glyph glyph-name="uni0674" unicode="&#x674;" horiz-adv-x="215" 
 />
    <glyph glyph-name="uni067E" unicode="&#x67e;" horiz-adv-x="804" 
d="M557 0h-310q-43 0 -81 16t-66 44t-44 66t-16 81v121h98v-121q0 -22 8.5 -42t23 -34t34.5 -22.5t43 -8.5h310q23 0 43 8.5t34.5 23t23 34t8.5 42.5v120h98v-121q0 -43 -16 -81t-44 -66t-66 -44t-81 -16zM366 -270h92v-94h-92v94zM288 -116h93v-95h-93v95zM443 -116h93v-95
h-93v95z" />
    <glyph glyph-name="uni0686" unicode="&#x686;" horiz-adv-x="580" 
d="M20 -109q0 48 19.5 89.5t54.5 70.5h1l252 187l-84 44q-19 10 -48 10q-35 0 -63 -15.5t-43 -44.5l-10 -18l-75 43l8 17q25 54 75.5 86t111.5 32q49 0 89 -20h1l126 -68q11 -5 26.5 -8.5t28.5 -3.5h70v-93q-19 -3 -36 -4.5t-43 -1.5q-3 0 -14 0.5t-18 2.5
q-35 -28 -73.5 -57.5t-76 -58t-72.5 -54.5t-64 -47q-42 -35 -45 -85q0 -23 9 -43t24 -35t35.5 -23.5t43.5 -8.5h269v-92l-272 -8q-43 0 -81 16t-66 44t-44 66t-16 81zM251 -100v81h79v-81h79v81h79v-81h-79v-81h-79v81h-79z" />
    <glyph glyph-name="uni0698" unicode="&#x698;" horiz-adv-x="326" 
d="M-5 -244l-25 86l17 6q31 13 60.5 26t51.5 32q44 37 44 102v336h100v-337q-3 -57 -20.5 -96.5t-47 -67.5t-70.5 -47t-91 -34zM235 543h-92v94h92v-94zM313 389h-93v95h93v-95zM158 389h-93v95h93v-95z" />
    <glyph glyph-name="uni06A4" unicode="&#x6a4;" horiz-adv-x="780" 
d="M580 0h-334q-42 0 -79.5 16.5t-66 45t-45 66t-16.5 79.5v124h100v-124q0 -22 8.5 -41.5t23 -34t34 -23t41.5 -8.5l334 1q25 0 44 12t29 32h-73q-37 0 -69.5 14t-56.5 38.5t-38 57t-14 69.5q0 36 14 69t38 58t56.5 40t69.5 15q38 0 70.5 -14.5t56.5 -39.5t38 -58t14 -70
v-145q0 -37 -14 -70t-38 -57t-56.5 -38t-70.5 -14zM580 405q-16 0 -30.5 -6.5t-25.5 -17.5t-17.5 -25.5t-6.5 -31.5q0 -33 23.5 -56t56.5 -23h81v79q0 33 -24 57t-57 24zM610 704h-92v94h92v-94zM688 550h-93v95h93v-95zM533 550h-93v95h93v-95z" />
    <glyph glyph-name="uni06A9" unicode="&#x6a9;" horiz-adv-x="722" 
d="M551 0h-304q-43 0 -81 16t-66 44t-44 66t-16 81v121h100v-121q0 -22 8.5 -41.5t23 -34t34 -23t41.5 -8.5h304q26 0 45 19t19 45q0 17 -4 29.5t-12 22t-19 17.5t-25 17l-207 134v76l181 179l69 -69l-136 -142l144 -91q8 -6 19 -13.5t21.5 -16.5t20 -18t15.5 -18
q8 -11 19 -39t11 -68q0 -34 -12.5 -63.5t-34 -52t-51 -35.5t-63.5 -13z" />
    <glyph glyph-name="uni06AF" unicode="&#x6af;" horiz-adv-x="722" 
d="M613 639l69 -69l-165 -175l89 -58q26 -18 45.5 -34.5t33 -36t20.5 -44t7 -57.5q1 -7 -1 -20t-7 -29t-13.5 -33t-21.5 -32q-46 -51 -118 -51h-304q-43 0 -81 16t-66 44t-44 66t-16 81v121h100v-121q0 -22 8.5 -41.5t23 -34t34 -23t41.5 -8.5h304q5 0 15.5 3.5t21.5 11
t19 19.5t8 30q0 35 -16 51.5t-42 33.5l-154 103v76zM381 469l-57 62l163 160l57 -58z" />
    <glyph glyph-name="uni06C0" unicode="&#x6c0;" horiz-adv-x="398" 
d="M199 -17q-36 0 -68.5 13.5t-57 37.5t-39 56t-14.5 68q-1 36 13 70t40 60l56 57l-29 29l70 68l155 -155q26 -26 39 -58.5t14 -67.5q0 -37 -14 -69.5t-38.5 -56.5t-57 -38t-69.5 -14zM140 218q-22 -24 -21 -56.5t24 -55.5q24 -24 58 -24q33 0 55 22q12 12 17.5 26.5
t5.5 30.5t-5.5 30.5t-17.5 26.5l-57 57l-17 -16l-10.5 -10.5l-11.5 -11.5l-10 -10t-10 -9zM241 583l11 32l-8 3q-5 3 -13.5 6t-22.5 3q-24 0 -42 -18t-18 -42q0 -11 5 -23.5t19 -24.5l-32 -16l19 -36l117 63l-18 35l-8 -5q-17 -9 -24 -10.5t-16 -1.5q-10 1 -15.5 7.5
t-5.5 11.5q0 9 6.5 14.5t14.5 5.5q3 0 8.5 -0.5t10.5 -1.5t12 -2z" />
    <glyph glyph-name="uni06CC" unicode="&#x6cc;" horiz-adv-x="639" 
d="M455 -198h-235q-39 0 -73.5 15t-60.5 41t-41 60.5t-15 73.5v214h100v-214q0 -38 26.5 -64t63.5 -26h235q28 0 46 18.5t18 45.5q0 21 -12 38t-29 22l-223 57v94q0 35 12 66.5t33.5 55.5t52 38.5t66.5 14.5l160 -3v-96h-160q-14 0 -26.5 -5.5t-21.5 -14t-14.5 -19
t-5.5 -20.5v-41q38 -7 72.5 -15t78.5 -19q53 -14 85 -56t32 -97q0 -35 -12.5 -64.5t-35 -52t-52 -35t-64.5 -12.5z" />
    <glyph glyph-name="uni06E4" unicode="&#x6e4;" horiz-adv-x="367" 
 />
    <glyph glyph-name="uni06F0" unicode="&#x6f0;" horiz-adv-x="446" 
d="M222 -1q-34 0 -63.5 13t-51.5 35.5t-34.5 52t-12.5 63.5q0 35 12.5 64.5t34.5 52t51.5 35t63.5 12.5q35 0 64.5 -12.5t52 -35t35 -52t12.5 -64.5q0 -34 -13 -64t-35 -52t-52 -35t-64 -13zM222 227q-27 0 -45.5 -18.5t-18.5 -45.5q0 -26 19 -45t45 -19t45 19t19 45t-19 45
t-45 19z" />
    <glyph glyph-name="uni06F1" unicode="&#x6f1;" horiz-adv-x="260" 
d="M200 -60h-98v401q0 31 -8.5 60t-23.5 52l-10 15l75 52q10 -10 18.5 -22t15.5 -23q31 -63 31 -134v-401z" />
    <glyph glyph-name="uni06F2" unicode="&#x6f2;" horiz-adv-x="579" 
d="M190 -61h-98v402q0 29 -9 57t-26 54l-7 9l74 63l13 -18q38 -50 50 -122l1 -9q5 -42 35.5 -69t71.5 -27h17q22 0 41.5 8.5t34 23t23 34t8.5 41.5v119h100v-119q0 -43 -16 -81t-44 -66t-66 -44t-81 -16h-17q-57 0 -105 30v-270z" />
    <glyph glyph-name="uni06F3" unicode="&#x6f3;" horiz-adv-x="716" 
d="M195 -62h-97v399q0 28 -9.5 56.5t-26.5 54.5l-12 18l83 51l30 -45q32 -58 32 -130q0 -28 19.5 -47.5t47.5 -19.5q27 0 46.5 19.5t19.5 47.5v140h98v-140q0 -28 19.5 -47.5t46.5 -19.5t45.5 19t18.5 48v161h100v-161q0 -34 -13 -64t-35 -52t-52 -35t-64 -13q-70 0 -115 47
q-45 -47 -115 -47q-18 0 -35 3.5t-32 9.5v-253z" />
    <glyph glyph-name="uni06F4" unicode="&#x6f4;" horiz-adv-x="605" 
d="M97 -60v402q0 57 -36 110q-1 2 -7 10q-2 3 -4 7l77 50q8 -13 14 -23q5 -8 9.5 -15.5t5.5 -9.5q14 -27 26 -57t12 -72v-61q3 -2 15.5 -5t17.5 -5q-6 22 -5 50.5t9 56t22 52t33 37.5q47 35 106 35q14 0 31.5 -3.5t33.5 -8.5q18 -5 36 -12l-21 -88l-60 11q-3 0 -5 1h-10
q-32 0 -53.5 -15t-29.5 -42q-9 -31 6 -59.5t47 -39.5q15 -3 28 -3q34 0 62.5 14t52.5 31l35 -76l-48 -34q-13 -8 -31 -14.5t-36.5 -10.5t-37.5 -6t-35 -2q-37 0 -80.5 6.5t-82.5 20.5v-232h-97z" />
    <glyph glyph-name="uni06F5" unicode="&#x6f5;" horiz-adv-x="622" 
d="M399 -65q-52 0 -89 34q-36 -34 -89 -34q-40 0 -72.5 17t-55.5 45t-35.5 63.5t-12.5 72.5q0 45 14 87.5t40 71.5q6 7 19 21t31.5 33.5t42 43l49.5 49.5l-36 41l65 65q63 -62 116 -113q23 -22 45 -44l41 -41t32.5 -33.5t19.5 -21.5q19 -23 32 -53.5t18 -65.5q5 -29 1.5 -69
t-27.5 -82q-25 -42 -64.5 -64.5t-84.5 -22.5zM266 122h91v-46q0 -19 11 -31t29 -12q11 0 26 5t29 16q33 31 33 89q0 14 -6 35.5t-24 46.5l-2 1q-3 4 -15 17t-30.5 32.5t-43.5 43.5t-54 51l-42.5 -42.5t-40 -40.5t-33 -34t-22.5 -23q-2 -2 -3 -3.5t-2 -2.5q-26 -35 -26 -81
q0 -110 83 -110q17 0 29.5 13t12.5 30v46z" />
    <glyph glyph-name="uni06F6" unicode="&#x6f6;" horiz-adv-x="567" 
d="M254 -61l-89 45l95 168q-6 -1 -12 -1h-13q-36 0 -68.5 14t-58 37.5t-41 55.5t-17.5 68q-1 33 14.5 69.5t41.5 63.5l84 88l57 -66l-76 -85q-8 -8 -16.5 -24t-6.5 -45q1 -15 9 -29.5t20.5 -26t27.5 -18t30 -6.5q22 0 38 6t29.5 16.5t25 24t23.5 29.5q26 35 55 63.5t71 42.5
l40 -76l-14 -6q-6 -4 -13.5 -8.5t-14.5 -10.5q-10 -9 -24.5 -26.5t-28.5 -48.5z" />
    <glyph glyph-name="uni06F7" unicode="&#x6f7;" horiz-adv-x="532" 
d="M314 -57h-98l-104 399q-8 26 -21 56t-36 50l-15 15l62 66q10 -10 19 -18q7 -7 13 -13.5t8 -8.5q47 -50 65 -122l58 -220l60 220q15 71 64 123q3 4 9.5 10t13.5 12q8 8 17 16l63 -65l-6 -6q-2 -3 -4.5 -5.5l-4.5 -4.5q-20 -18 -35 -45.5t-24 -59.5z" />
    <glyph glyph-name="uni06F8" unicode="&#x6f8;" horiz-adv-x="532" 
d="M418 130q6 -22 13 -37.5t16 -29t20 -26.5t25 -28l-63 -65q-9 8 -17 16q-7 6 -13.5 12t-9.5 10q-49 52 -64 123l-60 220l-58 -220q-18 -72 -65 -122q-2 -2 -8 -8.5t-13 -13.5q-9 -8 -19 -18l-62 66l15 15q23 20 36 50t21 56l104 399h98z" />
    <glyph glyph-name="uni06F9" unicode="&#x6f9;" horiz-adv-x="492" 
d="M365 -59q-7 8 -13 16q-5 8 -11 15.5t-10 15.5q-17 31 -24 64t-7 70l-1 56q-23 -2 -44.5 -2.5t-36.5 -0.5q-37 0 -69.5 14t-56.5 38.5t-38 57t-14 69.5q0 36 14.5 68.5t38.5 56.5t56.5 38.5t68.5 14.5q37 0 69.5 -14t57 -38t38.5 -56.5t14 -69.5l1 -232q0 -38 11.5 -66
t32.5 -58zM218 432q-34 0 -56 -22t-22 -56t22.5 -57.5t55.5 -23.5h81v81q0 33 -23.5 55.5t-57.5 22.5z" />
    <glyph glyph-name="uni200C" unicode="&#x200c;" horiz-adv-x="0" 
 />
    <glyph glyph-name="uni200D" unicode="&#x200d;" horiz-adv-x="44" 
d="M53 -113h-62v552l-42 -42l-43 42l73 70l-73 69l43 41l73 -70l73 70l43 -41l-73 -69l73 -70l-43 -42l-42 42v-552z" />
    <glyph glyph-name="uni200E" unicode="&#x200e;" horiz-adv-x="38" 
d="M223 510l-115 -110l-45 42l43 38h-59v-593h-62v653h121l-43 38l45 41z" />
    <glyph glyph-name="uni200F" unicode="&#x200f;" horiz-adv-x="38" 
d="M53 -113h-62v593h-60l42 -38l-43 -42l-115 110l115 109l43 -41l-42 -38h122v-653z" />
    <glyph glyph-name="endash" unicode="&#x2013;" horiz-adv-x="368" 
d="M368 173h-368v94h368v-94z" />
    <glyph glyph-name="emdash" unicode="&#x2014;" horiz-adv-x="630" 
d="M630 173h-630v94h630v-94z" />
    <glyph glyph-name="quoteleft" unicode="&#x2018;" horiz-adv-x="219" 
d="M60 480q0 20 5.5 46.5t11.5 51.5q4 17 6.5 31.5t2.5 27.5h73q0 -15 -1.5 -30.5t-3.5 -33.5q-2 -24 -4.5 -49.5t-2.5 -43.5h-87z" />
    <glyph glyph-name="quoteright" unicode="&#x2019;" horiz-adv-x="219" 
d="M159 637q0 -19 -5.5 -44.5t-11.5 -49.5q-4 -18 -7 -33.5t-3 -29.5h-72q0 15 1.5 32t3.5 36q3 23 5 47.5t2 41.5h87z" />
    <glyph glyph-name="quotesinglbase" unicode="&#x201a;" horiz-adv-x="227" 
d="M167 124l-46 -210h-61l5 210h102z" />
    <glyph glyph-name="quotedblleft" unicode="&#x201c;" horiz-adv-x="294" 
d="M166 480l7 157h73l7 -157h-87zM41 480l7 157h73l7 -157h-87z" />
    <glyph glyph-name="quotedblright" unicode="&#x201d;" horiz-adv-x="294" 
d="M132 637l-7 -157h-73l-7 157h87zM257 637l-7 -157h-73l-7 157h87z" />
    <glyph glyph-name="quotedblbase" unicode="&#x201e;" horiz-adv-x="326" 
d="M306 124l-47 -210h-60l5 210h102zM167 124l-47 -210h-60l5 210h102z" />
    <glyph glyph-name="dagger" unicode="&#x2020;" horiz-adv-x="384" 
d="M153 -188v422h-55l-38 36l38 36h55v290h84v-290h87v-72h-87v-422h-84z" />
    <glyph glyph-name="daggerdbl" unicode="&#x2021;" horiz-adv-x="356" 
d="M136 -188v371h-76v72h76v24h-76v75h76v242h84v-242h76v-75h-76v-24h76v-72h-76v-371h-84z" />
    <glyph glyph-name="bullet" unicode="&#x2022;" horiz-adv-x="247" 
d="M126 491q26 0 43.5 -17t17.5 -42t-17.5 -42t-43.5 -17q-25 0 -45.5 17t-20.5 42t20.5 42t45.5 17z" />
    <glyph glyph-name="ellipsis" unicode="&#x2026;" horiz-adv-x="652" 
d="M121 117q28 0 44 -16.5t16 -42.5q0 -24 -16 -40t-44 -16q-26 0 -43.5 16t-17.5 40q0 26 17.5 42.5t43.5 16.5zM317 117q28 0 44 -16.5t16 -42.5q0 -24 -16 -40t-44 -16q-24 0 -42.5 16t-18.5 40q0 26 18.5 42.5t42.5 16.5zM532 117q28 0 44 -16.5t16 -42.5q0 -24 -16 -40
t-44 -16q-26 0 -43.5 16t-17.5 40q0 26 17.5 42.5t43.5 16.5z" />
    <glyph glyph-name="perthousand" unicode="&#x2030;" horiz-adv-x="1052" 
d="M164 371q0 -46 12 -60.5t29 -14.5t29 14.5t12 60.5q0 44 -12 58t-29 14t-29 -14t-12 -58zM335 371q0 -45 -9.5 -75.5t-27 -49.5t-41 -27t-52.5 -8q-28 0 -52 8t-41 27t-27 49.5t-10 75.5q0 44 10 74.5t27 49t41 26.5t52 8q29 0 52.5 -8t41 -26.5t27 -49t9.5 -74.5z
M549 150q0 -45 11.5 -59t28.5 -14t29.5 14t12.5 59q0 46 -12.5 60t-29.5 14t-28.5 -14t-11.5 -60zM719 150q0 -89 -34.5 -124t-95.5 -35q-28 0 -51.5 8t-41 27t-27 49t-9.5 75t9.5 75.5t27 49t41 26.5t51.5 8q30 0 54.5 -8t41 -26.5t25.5 -49t9 -75.5zM605 533l-302 -520
l-98 3l301 512zM842 150q0 -45 12.5 -59t29.5 -14t29.5 14t12.5 59q0 23 -3.5 37.5t-9.5 22.5t-13.5 11t-15.5 3q-16 0 -29 -14t-13 -60zM1014 150q0 -45 -9 -75t-26 -49t-41 -27t-54 -8q-29 0 -53 8t-41 27t-26.5 49t-9.5 75t9.5 75.5t26.5 49t41 26.5t53 8q30 0 54 -8
t41 -26.5t26 -49t9 -75.5z" />
    <glyph glyph-name="guilsinglleft" unicode="&#x2039;" horiz-adv-x="478" 
d="M40 166v72l398 191v-91l-284 -136l284 -136v-91z" />
    <glyph glyph-name="guilsinglright" unicode="&#x203a;" horiz-adv-x="478" 
d="M40 -25v91l283 136l-283 136v91l398 -191v-72z" />
    <glyph glyph-name="fraction" unicode="&#x2044;" horiz-adv-x="442" 
d="M402 493l-289 -493l-73 39l288 490z" />
    <glyph glyph-name="Euro" unicode="&#x20ac;" horiz-adv-x="679" 
d="M32 295v63h70q23 96 96.5 149.5t187.5 53.5q45 0 95.5 -9t99.5 -26l-15 -69q-51 12 -96 19t-77 7q-76 0 -128 -33t-72 -92h253l-17 -63h-250q-1 -5 -1 -10v-10q0 -8 0.5 -16t1.5 -16h236l-17 -64h-200q22 -52 69.5 -81.5t115.5 -29.5q33 0 82.5 7t109.5 23l16 -69
q-57 -19 -111.5 -28.5t-98.5 -9.5q-104 0 -176 51.5t-100 136.5h-74v64h61q-1 8 -1.5 15.5t-0.5 15.5v10.5t1 10.5h-60z" />
    <glyph glyph-name="trademark" unicode="&#x2122;" horiz-adv-x="445" 
d="M272 587l29 -81l39 81h65v-241h-58v132l-18 -132h-46l-18 132v-132h-68v241h75zM30 532v55h153v-55h-46v-186h-57v186h-50z" />
    <glyph glyph-name="minus" unicode="&#x2212;" horiz-adv-x="457" 
d="M60 302h337v-85h-337v85z" />
    <glyph glyph-name="uniFE00" unicode="&#xfe00;" horiz-adv-x="253" 
d="M253 0h-49q-34 0 -64 13t-52 35t-35 52t-13 64v426h98v-427q0 -26 19 -44.5t47 -18.5h49q23 0 37 -13t14 -36q0 -24 -13.5 -37.5t-37.5 -13.5z" />
    <glyph glyph-name="uniFE01" unicode="&#xfe01;" horiz-adv-x="279" 
d="M292 0h-49q-34 0 -64 13t-52 35t-35 52t-13 64v386h98v-387q0 -26 19 -44.5t47 -18.5h49q23 0 37 -13t14 -36q0 -24 -13.5 -37.5t-37.5 -13.5zM39 563l-79 30l5 10q20 39 53 65.5t77 26.5l177 1v-84h-156q-30 0 -46.5 -11t-30.5 -38z" />
    <glyph glyph-name="uniFE03" unicode="&#xfe03;" horiz-adv-x="253" 
d="M253 0h-49q-34 0 -64 13t-52 35t-35 52t-13 64v386h98v-387q0 -26 19 -44.5t47 -18.5h49q23 0 37 -13t14 -36q0 -24 -13.5 -37.5t-37.5 -13.5zM154 691l11 32l-8 3q-5 3 -13.5 6t-22.5 3q-24 0 -42 -18t-18 -42q0 -11 5 -23.5t19 -24.5l-32 -16l19 -36l117 63l-18 35
l-8 -5q-17 -9 -24 -10.5t-16 -1.5q-10 1 -15.5 7.5t-5.5 11.5q0 9 6.5 14.5t14.5 5.5q3 0 8.5 -0.5t10.5 -1.5t12 -2z" />
    <glyph glyph-name="uniFE05" unicode="&#xfe05;" horiz-adv-x="253" 
d="M253 0h-49q-34 0 -64 13t-52 35t-35 52t-13 64v386h98v-387q0 -26 19 -44.5t47 -18.5h49q23 0 37 -13t14 -36q0 -24 -13.5 -37.5t-37.5 -13.5zM154 -86l11 32l-8 3q-5 3 -13.5 6t-22.5 3q-24 0 -42 -18t-18 -42q0 -11 5 -23.5t19 -24.5l-32 -16l19 -36l117 63l-18 35
l-8 -5q-17 -9 -24 -10.5t-16 -1.5q-10 1 -15.5 7.5t-5.5 11.5q0 9 6.5 14.5t14.5 5.5q3 0 8.5 -0.5t10.5 -1.5t12 -2z" />
    <glyph glyph-name="uniFE06" unicode="&#xfe06;" horiz-adv-x="275" 
 />
    <glyph glyph-name="uniFE07" unicode="&#xfe07;" horiz-adv-x="275" 
 />
    <glyph glyph-name="uniFE08" unicode="&#xfe08;" horiz-adv-x="275" 
 />
    <glyph glyph-name="uniFE09" unicode="&#xfe09;" horiz-adv-x="849" 
d="M849 0h-21q-37 0 -69 16.5t-55 45.5q-29 -30 -67 -46t-80 -16h-310q-43 0 -81 16t-66 44t-44 66t-16 81v121h98v-120q0 -22 8.5 -42t23 -34.5t34.5 -23t43 -8.5l310 1q23 0 43 8t34.5 22.5t23 34t8.5 41.5v121h98v-169q0 -23 19 -41t45 -18h21q24 0 37 -13q14 -12 14 -36
t-13.5 -37.5t-37.5 -13.5zM365 -115h92v-94h-92v94z" />
    <glyph glyph-name="uniFE0A" unicode="&#xfe0a;" horiz-adv-x="304" 
d="M304 0q-42 0 -74.5 8.5t-60.5 36.5q-48 -45 -112 -45h-57q-24 0 -37.5 13.5t-13.5 37.5t13 36q13 13 38 13h57q26 0 45 19.5t19 47.5v158h100v-161q0 -26 18.5 -45t45.5 -19h19q24 0 37 -13q14 -12 14 -36t-14 -37.5t-37 -13.5zM115 -115h92v-94h-92v94z" />
    <glyph glyph-name="uniFE0B" unicode="&#xfe0b;" horiz-adv-x="270" 
d="M66 0h-66q-24 0 -38 14q-14 13 -14 37q0 23 14 36t38 13h66q13 0 24.5 5.5t20.5 15t14 21.5t5 25v159h100v-162q0 -33 -13 -62.5t-35.5 -52t-52.5 -36t-63 -13.5zM45 -115h92v-94h-92v94z" />
    <glyph glyph-name="uniFE0C" unicode="&#xfe0c;" horiz-adv-x="849" 
d="M849 0h-21q-37 0 -69 16.5t-55 45.5q-29 -30 -67 -46t-80 -16h-310q-43 0 -81 16t-66 44t-44 66t-16 81v121h98v-120q0 -22 8.5 -42t23 -34.5t34.5 -23t43 -8.5l310 1q23 0 43 8t34.5 22.5t23 34t8.5 41.5v121h98v-169q0 -23 19 -41t45 -18h21q24 0 37 -13q14 -12 14 -36
t-13.5 -37.5t-37.5 -13.5zM367 -270h92v-94h-92v94zM289 -116h93v-95h-93v95zM444 -116h93v-95h-93v95z" />
    <glyph glyph-name="uniFE0D" unicode="&#xfe0d;" horiz-adv-x="364" 
d="M364 0q-21 0 -45.5 2t-48.5 7t-45.5 13.5t-35.5 22.5q-48 -45 -112 -45h-77q-24 0 -37.5 13.5t-13.5 37.5t13 36q13 13 38 13h77q26 0 45 19.5t19 47.5v158h100v-161q0 -26 18.5 -45t45.5 -19h59q24 0 37 -13q14 -12 14 -36t-14 -37.5t-37 -13.5zM117 -270h92v-94h-92v94
zM39 -116h93v-95h-93v95zM194 -116h93v-95h-93v95z" />
    <glyph glyph-name="uniFE0E" unicode="&#xfe0e;" horiz-adv-x="300" 
d="M106 0h-106q-24 0 -38 14q-14 13 -14 37q0 23 14 36t38 13h106q13 0 24.5 5.5t20.5 15t14 21.5t5 25v159h100v-162q0 -33 -13 -62.5t-35.5 -52t-52.5 -36t-63 -13.5zM78 -270h92v-94h-92v94zM0 -116h93v-95h-93v95zM155 -116h93v-95h-93v95z" />
    <glyph glyph-name="uniFE0F" unicode="&#xfe0f;" horiz-adv-x="849" 
d="M849 0h-21q-37 0 -69 16.5t-55 45.5q-29 -30 -67 -46t-80 -16h-310q-43 0 -81 16t-66 44t-44 66t-16 81v121h98v-120q0 -22 8.5 -42t23 -34.5t34.5 -23t43 -8.5l310 1q23 0 43 8t34.5 22.5t23 34t8.5 41.5v121h98v-169q0 -23 19 -41t45 -18h21q24 0 37 -13q14 -12 14 -36
t-13.5 -37.5t-37.5 -13.5zM538 328h-93v95h93v-95zM383 328h-93v95h93v-95z" />
    <glyph glyph-name="uniFE10" unicode="&#xfe10;" horiz-adv-x="384" 
d="M384 0q-21 0 -48.5 2t-55.5 7t-52.5 13.5t-38.5 22.5q-48 -45 -112 -45h-77q-24 0 -37.5 13.5t-13.5 37.5t13 36q13 13 38 13h77q26 0 45 19.5t19 47.5v158h100v-161q0 -26 18.5 -45t45.5 -19h79q24 0 37 -13q14 -12 14 -36t-14 -37.5t-37 -13.5zM313 389h-93v95h93v-95z
M158 389h-93v95h93v-95z" />
    <glyph glyph-name="uniFE11" unicode="&#xfe11;" horiz-adv-x="285" 
d="M81 0h-81q-24 0 -38 14q-14 13 -14 37q0 23 14 36t38 13h81q13 0 24.5 5.5t20.5 15t14 21.5t5 25v159h100v-162q0 -33 -13 -62.5t-35.5 -52t-52.5 -36t-63 -13.5zM248 389h-93v95h93v-95zM93 389h-93v95h93v-95z" />
    <glyph glyph-name="uniFE12" unicode="&#xfe12;" horiz-adv-x="849" 
d="M849 0h-21q-37 0 -69 16.5t-55 45.5q-29 -30 -67 -46t-80 -16h-310q-43 0 -81 16t-66 44t-44 66t-16 81v121h98v-120q0 -22 8.5 -42t23 -34.5t34.5 -23t43 -8.5l310 1q23 0 43 8t34.5 22.5t23 34t8.5 41.5v121h98v-169q0 -23 19 -41t45 -18h21q24 0 37 -13q14 -12 14 -36
t-13.5 -37.5t-37.5 -13.5zM459 482h-92v94h92v-94zM537 328h-93v95h93v-95zM382 328h-93v95h93v-95z" />
    <glyph glyph-name="uniFE13" unicode="&#xfe13;" horiz-adv-x="402" 
d="M404 0q-21 0 -52 2t-62.5 7t-59 13.5t-41.5 22.5q-48 -45 -112 -45h-77q-24 0 -37.5 13.5t-13.5 37.5t13 36q13 13 38 13h77q26 0 45 19.5t19 47.5v158h100v-161q0 -26 18.5 -45t45.5 -19h99q24 0 37 -13q14 -12 14 -36t-14 -37.5t-37 -13.5zM234 543h-92v94h92v-94z
M312 389h-93v95h93v-95zM157 389h-93v95h93v-95z" />
    <glyph glyph-name="uniFE14" unicode="&#xfe14;" horiz-adv-x="286" 
d="M66 0h-66q-24 0 -38 14q-14 13 -14 37q0 23 14 36t38 13h66q13 0 24.5 5.5t20.5 15t14 21.5t5 25v159h100v-162q0 -33 -13 -62.5t-35.5 -52t-52.5 -36t-63 -13.5zM177 543h-92v94h92v-94zM255 389h-93v95h93v-95zM100 389h-93v95h93v-95z" />
    <glyph glyph-name="uniFE15" unicode="&#xfe15;" horiz-adv-x="595" 
d="M560 199q-9 -2 -28.5 -4t-37.5 -2h-13q-9 1 -16.5 1t-14.5 2l-58 -50q5 -20 22 -33t40 -13h141q23 0 37 -13.5t14 -36.5t-13.5 -36.5t-37.5 -13.5h-141q-48 0 -83 23t-55 66q-32 -23 -63 -46l-62 -46q-20 -14 -36 -30q-14 -14 -25.5 -33t-11.5 -40q0 -23 9 -43t24.5 -35
t35.5 -23.5t43 -8.5h269v-92l-271 -8h-1q-42 0 -80 16.5t-66 44.5t-44.5 66t-16.5 80q0 48 19.5 89.5t55.5 70.5l253 187l-84 44q-19 10 -49 10q-35 0 -63 -15.5t-43 -44.5l-10 -19l-74 44l7 17q25 54 76 86t111 32q49 0 90 -20h1l125 -68q11 -5 27 -8.5t28 -3.5h70v-93z
M261 -66h79v-81h-79v81z" />
    <glyph glyph-name="uniFE16" unicode="&#xfe16;" horiz-adv-x="645" 
d="M645 0h-107q-80 0 -125 71q-30 -30 -72 -49.5t-86 -21.5h-255q-24 0 -37.5 13.5t-13.5 36.5t14 36.5t37 13.5h257q51 0 90 48l62 81l-117 56q-21 10 -47 10q-16 0 -28.5 -3.5t-24.5 -11t-24.5 -20t-29.5 -30.5l-10 -11l-82 40l11 18q31 54 77 85.5t110 31.5q46 0 89 -20
l153 -73q24 -9 44 -9h68v-95l-58 -5h-1q-20 0 -38 3l-26 -39q2 -23 19.5 -38.5t44.5 -17.5h106q25 0 38 -13q13 -12 13 -36t-13.5 -37.5t-37.5 -13.5zM241 -116h79v-81h-79v81z" />
    <glyph glyph-name="uniFE17" unicode="&#xfe17;" horiz-adv-x="611" 
d="M247 0h-247q-23 0 -37.5 13.5t-14.5 36.5q0 22 14.5 36t37.5 14h246q26 0 49.5 13t41.5 36l63 80l-119 56q-19 10 -44 10q-60 0 -109 -64l-10 -14l-79 42l11 18q31 54 76.5 85t109.5 31q48 0 89 -19q23 -11 49.5 -23.5t49.5 -23.5l54 -26q17 -9 43 -9h70v-96
q-17 -2 -36 -3.5t-36 -1.5q-15 0 -26 3l-76 -107q-61 -87 -170 -87zM251 -116h79v-81h-79v81z" />
    <glyph glyph-name="uniFE18" unicode="&#xfe18;" horiz-adv-x="595" 
d="M95 51l253 187l-84 44q-19 10 -49 10q-35 0 -63 -15.5t-43 -44.5l-10 -19l-74 44l7 17q25 54 76 86t111 32q49 0 90 -20h1l125 -68q11 -5 27 -8.5t28 -3.5h70v-93q-9 -2 -28.5 -4t-37.5 -2h-13q-9 1 -16.5 1t-14.5 2l-58 -50q5 -20 22 -33t40 -13h141q23 0 37 -13.5
t14 -36.5t-13.5 -36.5t-37.5 -13.5h-141q-48 0 -83 23t-55 66q-32 -23 -63 -46l-62 -46q-20 -14 -36 -30q-14 -14 -25.5 -33t-11.5 -40q0 -23 9 -43t24.5 -35t35.5 -23.5t43 -8.5h269v-92l-271 -8h-1q-42 0 -80 16.5t-66 44.5t-44.5 66t-16.5 80q0 48 19.5 89.5t55.5 70.5z
M286 -110h-69v71h69v-71h69v71h68v-71h-68v-70h-69v70z" />
    <glyph glyph-name="uniFE19" unicode="&#xfe19;" horiz-adv-x="645" 
d="M645 0h-107q-80 0 -125 71q-30 -30 -72 -49.5t-86 -21.5h-255q-24 0 -37.5 13.5t-13.5 36.5t14 36.5t37 13.5h257q51 0 90 48l62 81l-117 56q-21 10 -47 10q-16 0 -28.5 -3.5t-24.5 -11t-24.5 -20t-29.5 -30.5l-10 -11l-82 40l11 18q31 54 77 85.5t110 31.5q46 0 89 -20
l153 -73q24 -9 44 -9h68v-95l-58 -5h-1q-20 0 -38 3l-26 -39q2 -23 19.5 -38.5t44.5 -17.5h106q25 0 38 -13q13 -12 13 -36t-13.5 -37.5t-37.5 -13.5zM263 -247h79v-81h-79v81zM184 -116h79v-81h-79v81zM342 -116h79v-81h-79v81z" />
    <glyph glyph-name="uniFE1A" unicode="&#xfe1a;" horiz-adv-x="611" 
d="M247 0h-247q-23 0 -37.5 13.5t-14.5 36.5q0 22 14.5 36t37.5 14h246q26 0 49.5 13t41.5 36l63 80l-119 56q-19 10 -44 10q-60 0 -109 -64l-10 -14l-79 42l11 18q31 54 76.5 85t109.5 31q48 0 89 -19q23 -11 49.5 -23.5t49.5 -23.5l54 -26q17 -9 43 -9h70v-96
q-17 -2 -36 -3.5t-36 -1.5q-15 0 -26 3l-76 -107q-61 -87 -170 -87zM256 -270h92v-94h-92v94zM178 -116h93v-95h-93v95zM333 -116h93v-95h-93v95z" />
    <glyph glyph-name="uniFE1B" unicode="&#xfe1b;" horiz-adv-x="574" 
d="M560 199q-9 -2 -28.5 -4t-37.5 -2h-13q-9 1 -16.5 1t-14.5 2l-58 -50q5 -20 22 -33t40 -13h141q23 0 37 -13.5t14 -36.5t-13.5 -36.5t-37.5 -13.5h-141q-48 0 -83 23t-55 66q-32 -23 -63 -46l-62 -46q-20 -14 -36 -30q-14 -14 -25.5 -33t-11.5 -40q0 -23 9 -43t24.5 -35
t35.5 -23.5t43 -8.5h269v-92l-271 -8h-1q-42 0 -80 16.5t-66 44.5t-44.5 66t-16.5 80q0 48 19.5 89.5t55.5 70.5l253 187l-84 44q-19 10 -49 10q-35 0 -63 -15.5t-43 -44.5l-10 -19l-74 44l7 17q25 54 76 86t111 32q49 0 90 -20h1l125 -68q11 -5 27 -8.5t28 -3.5h70v-93z
" />
    <glyph glyph-name="uniFE1C" unicode="&#xfe1c;" horiz-adv-x="645" 
d="M645 0h-107q-80 0 -125 71q-30 -30 -72 -49.5t-86 -21.5h-255q-24 0 -37.5 13.5t-13.5 36.5t14 36.5t37 13.5h257q51 0 90 48l62 81l-117 56q-21 10 -47 10q-16 0 -28.5 -3.5t-24.5 -11t-24.5 -20t-29.5 -30.5l-10 -11l-82 40l11 18q31 54 77 85.5t110 31.5q46 0 89 -20
l153 -73q24 -9 44 -9h68v-95l-58 -5h-1q-20 0 -38 3l-26 -39q2 -23 19.5 -38.5t44.5 -17.5h106q25 0 38 -13q13 -12 13 -36t-13.5 -37.5t-37.5 -13.5z" />
    <glyph glyph-name="uniFE1D" unicode="&#xfe1d;" horiz-adv-x="611" 
d="M247 0h-247q-23 0 -37.5 13.5t-14.5 36.5q0 22 14.5 36t37.5 14h246q26 0 49.5 13t41.5 36l63 80l-119 56q-19 10 -44 10q-60 0 -109 -64l-10 -14l-79 42l11 18q31 54 76.5 85t109.5 31q48 0 89 -19q23 -11 49.5 -23.5t49.5 -23.5l54 -26q17 -9 43 -9h70v-96
q-17 -2 -36 -3.5t-36 -1.5q-15 0 -26 3l-76 -107q-61 -87 -170 -87z" />
    <glyph glyph-name="uniFE1E" unicode="&#xfe1e;" horiz-adv-x="595" 
d="M560 199q-9 -2 -28.5 -4t-37.5 -2h-13q-9 1 -16.5 1t-14.5 2l-58 -50q5 -20 22 -33t40 -13h141q23 0 37 -13.5t14 -36.5t-13.5 -36.5t-37.5 -13.5h-141q-48 0 -83 23t-55 66q-32 -23 -63 -46l-62 -46q-20 -14 -36 -30q-14 -14 -25.5 -33t-11.5 -40q0 -23 9 -43t24.5 -35
t35.5 -23.5t43 -8.5h269v-92l-271 -8h-1q-42 0 -80 16.5t-66 44.5t-44.5 66t-16.5 80q0 48 19.5 89.5t55.5 70.5l253 187l-84 44q-19 10 -49 10q-35 0 -63 -15.5t-43 -44.5l-10 -19l-74 44l7 17q25 54 76 86t111 32q49 0 90 -20h1l125 -68q11 -5 27 -8.5t28 -3.5h70v-93z
M175 537h92v-94h-92v94z" />
    <glyph glyph-name="uniFE1F" unicode="&#xfe1f;" horiz-adv-x="645" 
d="M645 0h-107q-80 0 -125 71q-30 -30 -72 -49.5t-86 -21.5h-255q-24 0 -37.5 13.5t-13.5 36.5t14 36.5t37 13.5h257q51 0 90 48l62 81l-117 56q-21 10 -47 10q-16 0 -28.5 -3.5t-24.5 -11t-24.5 -20t-29.5 -30.5l-10 -11l-82 40l11 18q31 54 77 85.5t110 31.5q46 0 89 -20
l153 -73q24 -9 44 -9h68v-95l-58 -5h-1q-20 0 -38 3l-26 -39q2 -23 19.5 -38.5t44.5 -17.5h106q25 0 38 -13q13 -12 13 -36t-13.5 -37.5t-37.5 -13.5zM196 537h92v-94h-92v94z" />
    <glyph glyph-name="uniFE20" unicode="&#xfe20;" horiz-adv-x="611" 
d="M247 0h-247q-23 0 -37.5 13.5t-14.5 36.5q0 22 14.5 36t37.5 14h246q26 0 49.5 13t41.5 36l63 80l-119 56q-19 10 -44 10q-60 0 -109 -64l-10 -14l-79 42l11 18q31 54 76.5 85t109.5 31q48 0 89 -19q23 -11 49.5 -23.5t49.5 -23.5l54 -26q17 -9 43 -9h70v-96
q-17 -2 -36 -3.5t-36 -1.5q-15 0 -26 3l-76 -107q-61 -87 -170 -87zM196 537h92v-94h-92v94z" />
    <glyph glyph-name="uniFE21" unicode="&#xfe21;" horiz-adv-x="501" 
d="M501 0h-21q-44 0 -69.5 18.5t-46.5 48.5l-6 8q-23 -37 -59.5 -56t-79.5 -19h-189v100h189q26 0 45 18.5t19 42.5q0 9 -2 18.5t-7 17.5l-116 171l80 57l197 -287l6 -9q11 -18 16.5 -23.5t13.5 -5.5h30q25 0 38 -13q13 -12 13 -36t-13.5 -37.5t-37.5 -13.5z" />
    <glyph glyph-name="uniFE22" unicode="&#xfe22;" horiz-adv-x="500" 
d="M501 0h-21q-44 0 -69.5 18.5t-46.5 48.5l-6 8q-23 -37 -59.5 -56t-79.5 -19h-189v100h189q26 0 45 18.5t19 42.5q0 9 -2 18.5t-7 17.5l-116 171l80 57l197 -287l6 -9q11 -18 16.5 -23.5t13.5 -5.5h30q25 0 38 -13q13 -12 13 -36t-13.5 -37.5t-37.5 -13.5zM164 579h92v-94
h-92v94z" />
    <glyph glyph-name="uniFE23" unicode="&#xfe23;" horiz-adv-x="328" 
d="M314 0q-17 0 -34.5 2.5t-36.5 10.5v-13q-3 -56 -20.5 -95.5t-47.5 -68t-70.5 -47.5t-90.5 -34l-20 -6l-24 86l16 7q31 12 60.5 25.5t51.5 31.5q45 38 45 102v343h100v-182q0 -18 7.5 -30t20 -19t27.5 -10t30 -3q24 0 37 -13q14 -12 14 -36q0 -33 -18.5 -42t-46.5 -9z" />
    <glyph glyph-name="uniFE24" unicode="&#xfe24;" horiz-adv-x="328" 
d="M314 0q-17 0 -34.5 2.5t-36.5 10.5v-13q-3 -56 -20.5 -95.5t-47.5 -68t-70.5 -47.5t-90.5 -34l-20 -6l-24 86l16 7q31 12 60.5 25.5t51.5 31.5q45 38 45 102v343h100v-182q0 -18 7.5 -30t20 -19t27.5 -10t30 -3q24 0 37 -13q14 -12 14 -36q0 -33 -18.5 -42t-46.5 -9z
M149 538h92v-94h-92v94z" />
    <glyph glyph-name="uniFE25" unicode="&#xfe25;" horiz-adv-x="328" 
d="M314 0q-17 0 -34.5 2.5t-36.5 10.5v-13q-3 -56 -20.5 -95.5t-47.5 -68t-70.5 -47.5t-90.5 -34l-20 -6l-24 86l16 7q31 12 60.5 25.5t51.5 31.5q45 38 45 102v343h100v-182q0 -18 7.5 -30t20 -19t27.5 -10t30 -3q24 0 37 -13q14 -12 14 -36q0 -33 -18.5 -42t-46.5 -9z
M252 543h-92v94h92v-94zM330 389h-93v95h93v-95zM175 389h-93v95h93v-95z" />
    <glyph glyph-name="uniFE26" unicode="&#xfe26;" horiz-adv-x="1121" 
d="M300 -175q-54 0 -101 20.5t-82.5 56t-56 82.5t-20.5 101v154h97v-154q0 -34 13 -63.5t35 -51.5t52 -35t63 -13t62.5 13t51 35t34 51.5t12.5 63.5v217h100v-138q0 -28 18.5 -47t45.5 -19q28 0 47 19t19 47v138h98v-138q0 -28 19 -47t47 -19t47 19t19 47v159h98v-157
q0 -28 19.5 -47t47.5 -19h36q25 0 38 -13q13 -12 13 -36t-13.5 -37.5t-37.5 -13.5h-36q-32 0 -62.5 12t-53.5 34q-23 -22 -53 -34t-62 -12t-61.5 13t-51.5 36q-23 -23 -53.5 -36t-63.5 -13q-40 0 -73 18q-11 -43 -35 -78.5t-57.5 -61t-74 -39.5t-84.5 -14z" />
    <glyph glyph-name="uniFE27" unicode="&#xfe27;" horiz-adv-x="765" 
d="M765 0h-26q-33 0 -63.5 12.5t-53.5 35.5q-24 -23 -54.5 -35.5t-64.5 -12.5q-32 0 -63.5 12.5t-54.5 35.5q-50 -48 -120 -48q-39 0 -74 18q-23 10 -43 30q-50 -48 -119 -48h-30q-23 0 -37 14t-14 37t14 36t37 13h30q29 0 48.5 19.5t19.5 48.5v142h102v-142q0 -29 19 -48.5
t47 -19.5q30 0 50 19.5t20 48.5v142h99v-142q0 -28 20 -48t49 -20t49 20t20 48v164h100v-166q0 -27 20 -46.5t47 -19.5h26q25 0 38 -13q13 -12 13 -36t-13.5 -37.5t-37.5 -13.5z" />
    <glyph glyph-name="uniFE28" unicode="&#xfe28;" horiz-adv-x="718" 
d="M678 0h-142q-67 0 -114 47q-45 -47 -115 -47q-32 0 -61.5 12.5t-52.5 35.5q-48 -48 -116 -48h-77q-23 0 -37 13.5t-14 37.5t14 36q13 13 37 13h77q29 0 47.5 18.5t18.5 45.5v140h100v-152q0 -18 7.5 -28t18 -15.5t22 -7t18.5 -1.5q27 0 45 18.5t20 46.5v139h97l1 -147
q0 -26 15 -41.5t41 -15.5h50v228h100v-328z" />
    <glyph glyph-name="uniFE29" unicode="&#xfe29;" horiz-adv-x="1120" 
d="M301 -175q-54 0 -101 20.5t-82.5 56t-56 82.5t-20.5 101v154h97v-154q0 -34 13 -63.5t35 -51.5t52 -35t63 -13t62.5 13t51 35t34 51.5t12.5 63.5v217h100v-138q0 -28 18.5 -47t45.5 -19q28 0 47 19t19 47v138h98v-138q0 -28 19 -47t47 -19t47 19t19 47v159h98v-157
q0 -28 19.5 -47t47.5 -19h36q23 0 38 -13q13 -13 13 -36q0 -24 -13.5 -37.5t-37.5 -13.5h-36q-32 0 -62.5 12t-53.5 34q-23 -22 -53 -34t-62 -12t-61.5 13t-51.5 36q-23 -23 -53.5 -36t-63.5 -13q-40 0 -73 18q-11 -43 -35 -78.5t-57.5 -61t-74 -39.5t-84.5 -14zM789 543
h-92v94h92v-94zM867 389h-93v95h93v-95zM712 389h-93v95h93v-95z" />
    <glyph glyph-name="uniFE2A" unicode="&#xfe2a;" horiz-adv-x="766" 
d="M765 0h-26q-33 0 -63.5 12.5t-53.5 35.5q-24 -23 -54.5 -35.5t-64.5 -12.5q-32 0 -63.5 12.5t-54.5 35.5q-50 -48 -120 -48q-39 0 -74 18q-23 10 -43 30q-50 -48 -119 -48h-30q-23 0 -37 14t-14 37t14 36t37 13h30q29 0 48.5 19.5t19.5 48.5v142h102v-142q0 -29 19 -48.5
t47 -19.5q30 0 50 19.5t20 48.5v142h99v-142q0 -28 20 -48t49 -20t49 20t20 48v164h100v-166q0 -27 20 -46.5t47 -19.5h26q25 0 38 -13q13 -12 13 -36t-13.5 -37.5t-37.5 -13.5zM427 543h-92v94h92v-94zM505 389h-93v95h93v-95zM350 389h-93v95h93v-95z" />
    <glyph glyph-name="uniFE2B" unicode="&#xfe2b;" horiz-adv-x="718" 
d="M678 0h-142q-67 0 -114 47q-45 -47 -115 -47q-32 0 -61.5 12.5t-52.5 35.5q-48 -48 -116 -48h-77q-23 0 -37 13.5t-14 37.5t14 36q13 13 37 13h77q29 0 47.5 18.5t18.5 45.5v140h100v-152q0 -18 7.5 -28t18 -15.5t22 -7t18.5 -1.5q27 0 45 18.5t20 46.5v139h97l1 -147
q0 -26 15 -41.5t41 -15.5h50v228h100v-328zM470 543h-92v94h92v-94zM548 389h-93v95h93v-95zM393 389h-93v95h93v-95z" />
    <glyph glyph-name="uniFE2C" unicode="&#xfe2c;" horiz-adv-x="1119" 
d="M298 -149q-54 0 -101 20.5t-82 56t-55 82.5t-20 101v155h98v-155q0 -34 12.5 -63t34 -50.5t50.5 -34t63 -12.5q33 0 62.5 12.5t51.5 34.5t35 51t13 62v217h98v-59l179 83q41 21 90 21q41 0 78 -14.5t64.5 -41t44 -62t16.5 -77.5v-16q-1 -25 16 -43q19 -19 47 -19h26
q24 0 37 -13q14 -12 14 -36t-13.5 -37.5t-37.5 -13.5h-26q-35 0 -64.5 12t-52.5 39q-26 -23 -57.5 -37t-66.5 -14h-230q-47 0 -79 22q-13 -37 -37 -68.5t-56 -54t-71 -35.5t-81 -13zM558 165v-1q0 -27 18 -45.5t46 -18.5h230q34 0 56 22t22 56q0 22 -9 39.5t-24 29.5
t-34 18.5t-38 6.5q-26 0 -47 -10z" />
    <glyph glyph-name="uniFE2D" unicode="&#xfe2d;" horiz-adv-x="748" 
d="M748 0h-26q-32 0 -62 13t-54 36q-30 -25 -57 -37t-68 -12h-230q-58 0 -97 32q-9 6 -16 13q-48 -45 -112 -45h-26q-23 0 -36.5 13.5t-13.5 36.5t13.5 36.5t36.5 13.5h26q27 0 45 17t18 44v167h98v-59l179 83q41 21 90 21q41 0 78 -14.5t64.5 -40.5t44 -61.5t16.5 -77.5
v-18q0 -27 17.5 -44t45.5 -17h26q23 0 36.5 -13.5t13.5 -36.5t-13.5 -36.5t-36.5 -13.5zM187 165v-1q0 -28 18 -46t46 -18h230q34 0 56 22t22 56q0 22 -9.5 40t-24.5 30.5t-33.5 19t-37.5 6.5q-23 0 -47 -11z" />
    <glyph glyph-name="uniFE2E" unicode="&#xfe2e;" horiz-adv-x="679" 
d="M481 0h-230q-58 0 -97 32q-10 7 -15 13q-48 -45 -113 -45h-26q-22 0 -36 14.5t-14 37.5t13.5 35.5t36.5 12.5h26q28 0 45.5 17t17.5 44v167h98v-59l179 83q41 21 90 21q41 0 78 -14.5t65 -41t44 -62t16 -77.5q0 -37 -14 -69.5t-38 -56.5t-56.5 -38t-69.5 -14zM187 165v-1
q0 -28 18.5 -46t45.5 -18h230q34 0 56 22t22 56q0 22 -9 40t-24 30.5t-34 19t-38 6.5q-22 0 -47 -11z" />
    <glyph glyph-name="uniFE30" unicode="&#xfe30;" horiz-adv-x="1119" 
d="M298 -149q-54 0 -101 20.5t-82 56t-55 82.5t-20 101v155h98v-155q0 -34 12.5 -63t34 -50.5t50.5 -34t63 -12.5q33 0 62.5 12.5t51.5 34.5t35 51t13 62v217h98v-59l179 83q41 21 90 21q41 0 78 -14.5t64.5 -41t44 -62t16.5 -77.5v-16q-1 -25 16 -43q19 -19 47 -19h26
q24 0 37 -13q14 -12 14 -36t-13.5 -37.5t-37.5 -13.5h-26q-35 0 -64.5 12t-52.5 39q-26 -23 -57.5 -37t-66.5 -14h-230q-47 0 -79 22q-13 -37 -37 -68.5t-56 -54t-71 -35.5t-81 -13zM558 165v-1q0 -27 18 -45.5t46 -18.5h230q34 0 56 22t22 56q0 22 -9 39.5t-24 29.5
t-34 18.5t-38 6.5q-26 0 -47 -10zM797 538h92v-94h-92v94z" />
    <glyph glyph-name="uniFE31" unicode="&#xfe31;" horiz-adv-x="748" 
d="M748 0h-26q-32 0 -62 13t-54 36q-30 -25 -57 -37t-68 -12h-230q-58 0 -97 32q-9 6 -16 13q-48 -45 -112 -45h-26q-23 0 -36.5 13.5t-13.5 36.5t13.5 36.5t36.5 13.5h26q27 0 45 17t18 44v167h98v-59l179 83q41 21 90 21q41 0 78 -14.5t64.5 -40.5t44 -61.5t16.5 -77.5
v-18q0 -27 17.5 -44t45.5 -17h26q23 0 36.5 -13.5t13.5 -36.5t-13.5 -36.5t-36.5 -13.5zM187 165v-1q0 -28 18 -46t46 -18h230q34 0 56 22t22 56q0 22 -9.5 40t-24.5 30.5t-33.5 19t-37.5 6.5q-23 0 -47 -11zM417 538h92v-94h-92v94z" />
    <glyph glyph-name="uniFE32" unicode="&#xfe32;" horiz-adv-x="679" 
d="M481 0h-230q-58 0 -97 32q-10 7 -15 13q-48 -45 -113 -45h-26q-22 0 -36 14.5t-14 37.5t13.5 35.5t36.5 12.5h26q28 0 45.5 17t17.5 44v167h98v-59l179 83q41 21 90 21q41 0 78 -14.5t65 -41t44 -62t16 -77.5q0 -37 -14 -69.5t-38 -56.5t-56.5 -38t-69.5 -14zM187 165v-1
q0 -28 18.5 -46t45.5 -18h230q34 0 56 22t22 56q0 22 -9 40t-24 30.5t-34 19t-38 6.5q-22 0 -47 -11zM407 538h92v-94h-92v94z" />
    <glyph glyph-name="uniFE33" unicode="&#xfe33;" horiz-adv-x="619" 
d="M619 0h-22q-35 0 -67 14.5t-54 42.5q-57 -57 -133 -57h-311v100h40l-60 80l72 57q23 23 23 50v303h97v-255l1 1q27 23 61 34.5t71 11.5q50 0 87 -17t61 -44t36 -61t12 -69v-27q0 -26 19 -45t45 -19h22q23 0 37 -13t14 -36q0 -24 -13.5 -37.5t-37.5 -13.5zM73 100h270
q19 0 35.5 7.5t29 20.5t20 29.5t7.5 35.5q0 39 -28 64.5t-71 25.5q-39 0 -68 -23z" />
    <glyph glyph-name="uniFE34" unicode="&#xfe34;" horiz-adv-x="613" 
d="M613 0h-11q-73 0 -121 56q-27 -28 -61 -42t-72 -14h-348q-24 0 -37.5 13.5t-13.5 37.5q0 22 14 36q15 13 37 13h77l-59 79l72 57q22 23 22 51v304h97v-257l2 1q27 23 61 35t70 12q51 0 88 -17t61 -44t35.5 -61t11.5 -69v-27q0 -26 19 -45t45 -19h11q23 0 37 -13t14 -36
q0 -24 -13.5 -37.5t-37.5 -13.5zM79 100h269q19 0 35.5 7.5t29 20t20 29.5t7.5 36q0 39 -27.5 64.5t-71.5 25.5q-38 0 -67 -24z" />
    <glyph glyph-name="uniFE35" unicode="&#xfe35;" horiz-adv-x="553" 
d="M343 0h-343q-24 0 -37.5 13.5t-13.5 37.5q0 23 14 36t37 13h72l-59 80l72 57q22 23 22 50v303h97v-255l2 1q27 23 61 34.5t70 11.5q51 0 88 -17t61 -44t35.5 -61t11.5 -69q0 -39 -15 -73.5t-41 -60.5t-60.5 -41.5t-73.5 -15.5zM74 100h269q19 0 35.5 7.5t29 20.5t20 29.5
t7.5 35.5q0 39 -27.5 64.5t-71.5 25.5q-38 0 -67 -23z" />
    <glyph glyph-name="uniFE36" unicode="&#xfe36;" horiz-adv-x="610" 
d="M619 0h-22q-35 0 -67 14.5t-54 42.5q-57 -57 -133 -57h-311v100h40l-60 80l72 57q23 23 23 50v303h97v-255l1 1q27 23 61 34.5t71 11.5q50 0 87 -17t61 -44t36 -61t12 -69v-27q0 -26 19 -45t45 -19h22q23 0 37 -13t14 -36q0 -24 -13.5 -37.5t-37.5 -13.5zM73 100h270
q19 0 35.5 7.5t29 20.5t20 29.5t7.5 35.5q0 39 -28 64.5t-71 25.5q-39 0 -68 -23zM296 538h92v-94h-92v94z" />
    <glyph glyph-name="uniFE37" unicode="&#xfe37;" horiz-adv-x="629" 
d="M613 0h-11q-73 0 -121 56q-27 -28 -61 -42t-72 -14h-348q-24 0 -37.5 13.5t-13.5 37.5q0 22 14 36q15 13 37 13h77l-59 79l72 57q22 23 22 51v304h97v-257l2 1q27 23 61 35t70 12q51 0 88 -17t61 -44t35.5 -61t11.5 -69v-27q0 -26 19 -45t45 -19h11q23 0 37 -13t14 -36
q0 -24 -13.5 -37.5t-37.5 -13.5zM79 100h269q19 0 35.5 7.5t29 20t20 29.5t7.5 36q0 39 -27.5 64.5t-71.5 25.5q-38 0 -67 -24zM296 538h92v-94h-92v94z" />
    <glyph glyph-name="uniFE38" unicode="&#xfe38;" horiz-adv-x="553" 
d="M343 0h-343q-24 0 -37.5 13.5t-13.5 37.5q0 23 14 36t37 13h72l-59 80l72 57q22 23 22 50v303h97v-255l2 1q27 23 61 34.5t70 11.5q51 0 88 -17t61 -44t35.5 -61t11.5 -69q0 -39 -15 -73.5t-41 -60.5t-60.5 -41.5t-73.5 -15.5zM74 100h269q19 0 35.5 7.5t29 20.5t20 29.5
t7.5 35.5q0 39 -27.5 64.5t-71.5 25.5q-38 0 -67 -23q-34 -28 -69 -57q-29 -24 -63 -52t-63 -51zM286 538h92v-94h-92v94z" />
    <glyph glyph-name="uniFE39" unicode="&#xfe39;" horiz-adv-x="500" 
d="M262 -384h-1q-50 0 -94 18.5t-76.5 51t-51.5 76.5t-19 94q0 55 23.5 104t65.5 84q-32 25 -51 66.5t-19 81.5t15 74t41 59.5t61 40t74 14.5h180v-195h-90l-8 98h-80q-39 0 -66 -25.5t-27 -65.5q0 -39 26.5 -65.5t64.5 -26.5h271q24 0 37 -13q14 -13 14 -36
q0 -24 -13.5 -37.5t-37.5 -13.5h-240q-30 0 -56 -11.5t-45.5 -31t-30.5 -45.5t-11 -56q0 -29 11.5 -55t31 -45.5t45.5 -31t55 -11.5h171v-89z" />
    <glyph glyph-name="uniFE3A" unicode="&#xfe3a;" horiz-adv-x="489" 
d="M489 0h-489q-24 0 -37.5 13.5t-13.5 37.5q0 23 14 36t37 13h88q-22 38 -22 93q0 39 15 73.5t41 60t60.5 40t73.5 14.5h180v-196h-95l-4 98h-78q-41 0 -68 -26t-27 -64q0 -40 26 -66.5t66 -26.5h233q22 0 37 -13q14 -14 14 -36q0 -24 -13.5 -37.5t-37.5 -13.5z" />
    <glyph glyph-name="uniFE3B" unicode="&#xfe3b;" horiz-adv-x="425" 
d="M405 0h-405q-24 0 -37.5 13.5t-13.5 37.5q0 22 14 36q15 13 37 13h88q-22 41 -22 93q0 39 15 73.5t41 60t60.5 40t73.5 14.5h109v-98h-106q-40 0 -67.5 -26t-27.5 -64q0 -40 26.5 -66.5t65.5 -26.5h149v-100z" />
    <glyph glyph-name="uniFE3C" unicode="&#xfe3c;" horiz-adv-x="501" 
d="M262 -384h-1q-50 0 -94 18.5t-76.5 51t-51.5 76.5t-19 94q0 55 23.5 104t65.5 84q-32 25 -51 66.5t-19 81.5t15 74t41 59.5t61 40t74 14.5h180v-195h-90l-8 98h-80q-39 0 -66 -25.5t-27 -65.5q0 -39 26.5 -65.5t64.5 -26.5h271q24 0 37 -13q14 -13 14 -36
q0 -24 -13.5 -37.5t-37.5 -13.5h-240q-30 0 -56 -11.5t-45.5 -31t-30.5 -45.5t-11 -56q0 -29 11.5 -55t31 -45.5t45.5 -31t55 -11.5h171v-89zM214 538h92v-94h-92v94z" />
    <glyph glyph-name="uniFE3D" unicode="&#xfe3d;" horiz-adv-x="489" 
d="M489 0h-489q-24 0 -37.5 13.5t-13.5 37.5q0 23 14 36t37 13h88q-22 38 -22 93q0 39 15 73.5t41 60t60.5 40t73.5 14.5h180v-196h-95l-4 98h-78q-41 0 -68 -26t-27 -64q0 -40 26 -66.5t66 -26.5h233q22 0 37 -13q14 -14 14 -36q0 -24 -13.5 -37.5t-37.5 -13.5zM224 538h92
v-94h-92v94z" />
    <glyph glyph-name="uniFE3E" unicode="&#xfe3e;" horiz-adv-x="443" 
d="M405 0h-405q-24 0 -37.5 13.5t-13.5 37.5q0 22 14 36q15 13 37 13h88q-22 41 -22 93q0 39 15 73.5t41 60t60.5 40t73.5 14.5h109v-98h-106q-40 0 -67.5 -26t-27.5 -64q0 -40 26.5 -66.5t65.5 -26.5h149v-100zM224 538h92v-94h-92v94z" />
    <glyph glyph-name="uniFE3F" unicode="&#xfe3f;" horiz-adv-x="851" 
d="M851 0h-604q-42 0 -79.5 16.5t-66 45t-45 66t-16.5 79.5v124h100v-124q0 -22 8.5 -41.5t23 -34t34 -23t41.5 -8.5h222q-9 19 -14 38.5t-5 41.5q0 37 14 70t38.5 57.5t57.5 38.5t70 14q38 0 70.5 -14t57 -38.5t38.5 -57t14 -70.5q0 -43 -17 -80h58q24 0 37.5 -12.5
t13.5 -35.5t-14 -37.5t-37 -14.5zM630 260q-79 0 -79 -80t79 -80t79 80t-79 80zM576 538h92v-94h-92v94z" />
    <glyph glyph-name="uniFE40" unicode="&#xfe40;" horiz-adv-x="470" 
d="M470 0h-470q-23 0 -36.5 14.5t-13.5 37.5t13.5 35.5t36.5 12.5h81q-19 37 -19 80q0 38 14 70.5t38.5 57t57.5 38.5t70 14q38 0 70.5 -14t57 -38.5t38.5 -57t14 -70.5q0 -44 -18 -80h66q24 0 37.5 -12.5t13.5 -35.5t-14 -37.5t-37 -14.5zM242 260q-79 0 -79 -80t79 -80
t79 80t-79 80zM194 538h92v-94h-92v94z" />
    <glyph glyph-name="uniFE41" unicode="&#xfe41;" horiz-adv-x="391" 
d="M192 0h-192q-24 0 -37.5 13.5t-13.5 37.5q0 22 14 36q15 13 37 13h192q25 0 44.5 12.5t29.5 32.5h-59q-34 0 -63.5 12.5t-51.5 34.5t-34.5 51.5t-12.5 63.5t13 63.5t35 52t51.5 35.5t62.5 13t63 -13t52.5 -35.5t35.5 -52.5t13 -63v-128q0 -37 -14 -70t-38 -57t-56.5 -38
t-70.5 -14zM207 371q-27 0 -45.5 -18.5t-18.5 -45.5t18.5 -45.5t45.5 -18.5h64v64q0 28 -18 46t-46 18zM163 644h92v-94h-92v94z" />
    <glyph glyph-name="uniFE42" unicode="&#xfe42;" horiz-adv-x="851" 
d="M851 0h-604q-42 0 -79.5 16.5t-66 45t-45 66t-16.5 79.5v124h100v-124q0 -22 8.5 -41.5t23 -34t34 -23t41.5 -8.5h222q-9 19 -14 38.5t-5 41.5q0 37 14 70t38.5 57.5t57.5 38.5t70 14q38 0 70.5 -14t57 -38.5t38.5 -57t14 -70.5q0 -43 -17 -80h58q24 0 37.5 -12.5
t13.5 -35.5t-14 -37.5t-37 -14.5zM630 260q-79 0 -79 -80t79 -80t79 80t-79 80zM679 573h-92v94h92v-94zM757 419h-93v95h93v-95zM602 419h-93v95h93v-95z" />
    <glyph glyph-name="uniFE43" unicode="&#xfe43;" horiz-adv-x="502" 
d="M470 0h-470q-23 0 -36.5 14.5t-13.5 37.5t13.5 35.5t36.5 12.5h81q-19 37 -19 80q0 38 14 70.5t38.5 57t57.5 38.5t70 14q38 0 70.5 -14t57 -38.5t38.5 -57t14 -70.5q0 -44 -18 -80h66q24 0 37.5 -12.5t13.5 -35.5t-14 -37.5t-37 -14.5zM242 260q-79 0 -79 -80t79 -80
t79 80t-79 80zM290 573h-92v94h92v-94zM368 419h-93v95h93v-95zM213 419h-93v95h93v-95z" />
    <glyph glyph-name="uniFE44" unicode="&#xfe44;" horiz-adv-x="391" 
d="M192 0h-192q-24 0 -37.5 13.5t-13.5 37.5q0 22 14 36q15 13 37 13h192q25 0 44.5 12.5t29.5 32.5h-59q-34 0 -63.5 12.5t-51.5 34.5t-34.5 51.5t-12.5 63.5t13 63.5t35 52t51.5 35.5t62.5 13t63 -13t52.5 -35.5t35.5 -52.5t13 -63v-128q0 -37 -14 -70t-38 -57t-56.5 -38
t-70.5 -14zM207 371q-27 0 -45.5 -18.5t-18.5 -45.5t18.5 -45.5t45.5 -18.5h64v64q0 28 -18 46t-46 18zM250 704h-92v94h92v-94zM328 550h-93v95h93v-95zM173 550h-93v95h93v-95z" />
    <glyph glyph-name="uniFE45" unicode="&#xfe45;" horiz-adv-x="667" 
d="M341 -282q-63 0 -118 23.5t-95.5 64t-64 95.5t-23.5 118v183h98v-183q0 -42 16 -79t43.5 -64.5t64.5 -43.5t79 -16q39 0 73.5 14t61.5 39t44 58.5t21 72.5h-80q-37 0 -69.5 14t-56.5 38.5t-38 57t-14 69.5q0 36 14 69t38 58t56.5 40t69.5 15q38 0 70.5 -14.5t56.5 -39.5
t38 -58t14 -70v-79h27q24 0 37 -13q8 -7 11 -16t3 -20q0 -24 -13.5 -37.5t-37.5 -13.5h-27q-4 -60 -29 -111.5t-65 -89.5t-92.5 -59.5t-112.5 -21.5zM462 260q-16 0 -30.5 -6.5t-25.5 -18t-17.5 -26t-6.5 -30.5q0 -33 23.5 -56t56.5 -23h81v79q0 16 -6.5 30.5t-17.5 26
t-25.5 18t-31.5 6.5zM581 429h-93v95h93v-95zM426 429h-93v95h93v-95z" />
    <glyph glyph-name="uniFE46" unicode="&#xfe46;" horiz-adv-x="470" 
d="M470 0h-470q-23 0 -36.5 14.5t-13.5 37.5t13.5 35.5t36.5 12.5h81q-19 37 -19 80q0 38 14 70.5t38.5 57t57.5 38.5t70 14q38 0 70.5 -14t57 -38.5t38.5 -57t14 -70.5q0 -44 -18 -80h66q24 0 37.5 -12.5t13.5 -35.5t-14 -37.5t-37 -14.5zM242 260q-79 0 -79 -80t79 -80
t79 80t-79 80zM371 429h-93v95h93v-95zM216 429h-93v95h93v-95z" />
    <glyph glyph-name="uniFE47" unicode="&#xfe47;" horiz-adv-x="391" 
d="M192 0h-192q-24 0 -37.5 13.5t-13.5 37.5q0 22 14 36q15 13 37 13h192q25 0 44.5 12.5t29.5 32.5h-59q-34 0 -63.5 12.5t-51.5 34.5t-34.5 51.5t-12.5 63.5t13 63.5t35 52t51.5 35.5t62.5 13t63 -13t52.5 -35.5t35.5 -52.5t13 -63v-128q0 -37 -14 -70t-38 -57t-56.5 -38
t-70.5 -14zM207 371q-27 0 -45.5 -18.5t-18.5 -45.5t18.5 -45.5t45.5 -18.5h64v64q0 28 -18 46t-46 18zM331 550h-93v95h93v-95zM176 550h-93v95h93v-95z" />
    <glyph glyph-name="uniFE48" unicode="&#xfe48;" horiz-adv-x="845" 
d="M828 0q-37 0 -69.5 16t-55.5 44q-30 -29 -67.5 -44.5t-78.5 -15.5h-309q-42 0 -80 16.5t-66.5 44.5t-45 66t-16.5 80v121h98v-121q0 -22 8.5 -42t23.5 -34t35 -22.5t43 -8.5h309q23 0 43 8.5t35 23t23.5 34t8.5 41.5v385h97v-430q0 -25 19 -43.5t45 -18.5h17q24 0 37 -13
q14 -12 14 -36t-13.5 -37.5t-37.5 -13.5h-17zM296 274l32 16q-19 20 -19 50t21 55l2 2q25 25 55 25h1q10 -1 19 -3t17 -4l19 -6l-16 -56l-19 6q-2 0 -3 1h-6h-9q-8 0 -12 -4q-5 -7 -6 -10.5t-1 -5.5t0.5 -4t0.5 -4q0 -1 1 -2q2 -3 10 -3q3 0 15 3t38 16l18 9l26 -54
l-153 -83z" />
    <glyph glyph-name="uniFE4A" unicode="&#xfe4a;" horiz-adv-x="453" 
d="M453 0h-16q-67 0 -115 45q-46 -45 -110 -45h-212q-24 0 -37.5 13.5t-13.5 37.5q0 23 14 36q13 13 37 13h212q5 0 15.5 3.5t21.5 11t19 19.5t8 30t-4 30.5t-11.5 21.5t-18 16.5t-23.5 15.5l-210 134v76l183 181l69 -69l-138 -144l143 -89q25 -15 44.5 -31t33.5 -36.5
t21.5 -46t7.5 -58.5q2 -29 20 -47t44 -18h16q23 0 37 -13t14 -36q0 -24 -13.5 -37.5t-37.5 -13.5z" />
    <glyph glyph-name="uniFE4B" unicode="&#xfe4b;" horiz-adv-x="372" 
d="M201 0h-201q-24 0 -37.5 13.5t-13.5 37.5q0 22 14 36q15 13 37 13h201q26 0 45 19t19 45q0 35 -16 51.5t-43 33.5l-200 131v76l184 183l69 -69l-139 -146l136 -87q8 -6 19 -13.5t21.5 -16.5t20 -18t15.5 -18q8 -11 19 -39t11 -68q0 -34 -12.5 -63.5t-34 -52t-51 -35.5
t-63.5 -13z" />
    <glyph glyph-name="uniFE4C" unicode="&#xfe4c;" horiz-adv-x="792" 
d="M610 638l69 -69l-165 -173l92 -59q25 -16 45 -32.5t33.5 -37t20.5 -45t7 -57.5q2 -29 20 -47t44 -18h16q23 0 37 -13t14 -36q0 -24 -13.5 -37.5t-37.5 -13.5h-16q-67 0 -114 45q-22 -22 -51.5 -33.5t-59.5 -11.5h-304q-43 0 -81 16t-66 44t-44 66t-16 81v121h100v-121
q0 -22 8.5 -41.5t23 -34t34 -23t41.5 -8.5h304q5 0 15.5 3.5t21.5 11t19 19.5t8 30q0 35 -16 51.5t-42 33.5l-157 103v76zM381 469l-57 62l163 160l57 -58z" />
    <glyph glyph-name="uniFE4D" unicode="&#xfe4d;" horiz-adv-x="443" 
d="M263 639l69 -69l-166 -174l91 -59q25 -16 45 -32.5t33.5 -37t20.5 -45t7 -57.5q2 -29 20 -47t44 -18h16q23 0 37 -13t14 -36q0 -24 -13.5 -37.5t-37.5 -13.5h-16q-67 0 -114 45q-45 -45 -111 -45h-202q-24 0 -37.5 13.5t-13.5 37.5q0 23 14 36t37 13h202q5 0 15.5 3.5
t21.5 11t19 19.5t8 30q0 35 -16 51.5t-42 33.5l-156 103v76zM31 473l-57 62l163 160l57 -58z" />
    <glyph glyph-name="uniFE4E" unicode="&#xfe4e;" horiz-adv-x="379" 
d="M268 641l69 -69l-165 -176l91 -59q25 -16 45 -32.5t33.5 -36.5t20.5 -45t7 -58q1 -7 -1 -20t-7 -29t-13.5 -32.5t-21.5 -31.5q-44 -52 -118 -52h-208q-23 0 -37 13.5t-14 37.5t14 36q13 13 37 13h208q5 0 16 3.5t21.5 11t18.5 19.5t8 30q0 36 -16 52.5t-42 33.5l-157 103
v76zM31 473l-57 62l163 160l57 -58z" />
    <glyph glyph-name="uniFE4F" unicode="&#xfe4f;" horiz-adv-x="640" 
d="M300 -137q-54 0 -101.5 20.5t-83 56t-55.5 82.5t-20 101v155h100v-155q0 -33 12.5 -62t34.5 -51t51 -34.5t62 -12.5t62 12.5t51 34.5t34.5 51t12.5 62v467h100v-428q0 -26 19 -44t45 -18h16q24 0 37 -13q14 -13 14 -36q0 -24 -13.5 -37.5t-37.5 -13.5h-16q-45 0 -83 24
q-15 -36 -39.5 -65.5t-56 -51t-68.5 -33t-77 -11.5z" />
    <glyph glyph-name="uniFE50" unicode="&#xfe50;" horiz-adv-x="450" 
d="M205 0h-145v100h145q22 0 41.5 8.5t34 23t23 34t8.5 41.5v356h100v-356q0 -43 -16 -81t-44 -66t-66 -44t-81 -16zM121 134l-103 415l97 23l102 -415z" />
    <glyph glyph-name="uniFE51" unicode="&#xfe51;" horiz-adv-x="506" 
d="M506 0h-8q-44 0 -84.5 19t-70.5 54q-29 -35 -70.5 -54t-88.5 -19h-157v100h157q45 0 76.5 30.5t33.5 76.5v359h97v-359q0 -22 8.5 -41.5t23 -34t34 -23t41.5 -8.5h8q24 0 37 -13q14 -13 14 -36q0 -24 -13.5 -37.5t-37.5 -13.5zM119 134l-103 415l97 23l102 -415z" />
    <glyph glyph-name="uniFE52" unicode="&#xfe52;" horiz-adv-x="545" 
d="M235 0h-145v100h145q22 0 41.5 8.5t34 23t23 34t8.5 41.5v356h100v-356q0 -43 -16 -81t-44 -66t-66 -44t-81 -16zM151 134l-95 382l97 23l94 -382zM30 563l-79 30l5 10q20 39 53 65.5t77 26.5l177 1v-84h-156q-30 0 -46.5 -11t-30.5 -38z" />
    <glyph glyph-name="uniFE53" unicode="&#xfe53;" horiz-adv-x="493" 
d="M506 0h-8q-44 0 -84.5 19t-70.5 54q-29 -35 -70.5 -54t-88.5 -19h-157v100h157q45 0 76.5 30.5t33.5 76.5v359h97v-359q0 -22 8.5 -41.5t23 -34t34 -23t41.5 -8.5h8q24 0 37 -13q14 -13 14 -36q0 -24 -13.5 -37.5t-37.5 -13.5zM119 134l-94 376l97 23l93 -376zM40 563
l-79 30l5 10q20 39 53 65.5t77 26.5l177 1v-84h-156q-30 0 -46.5 -11t-30.5 -38z" />
    <glyph glyph-name="uniFE54" unicode="&#xfe54;" horiz-adv-x="492" 
d="M170 635l-119 -64l-11 20l42 22q-37 19 -37 53q0 22 17 42q20 20 41 20q8 -1 16 -3l16 -4l-5 -17q-2 1 -5.5 1t-7.5 1h-11q-16 0 -27 -12q-12 -16 -12 -28q0 -33 32 -33q20 0 62 21zM205 0h-145v100h145q22 0 41.5 8.5t34 23t23 34t8.5 41.5v356h100v-356q0 -43 -16 -81
t-44 -66t-66 -44t-81 -16zM121 134l-95 382l97 23l94 -382z" />
    <glyph glyph-name="uniFE55" unicode="&#xfe55;" horiz-adv-x="506" 
d="M164 650q-42 -21 -62 -21q-32 0 -32 33q0 12 12 28q11 12 27 12h11q4 -1 7.5 -1t5.5 -1l5 17l-16 4t-16 3q-21 0 -41 -20q-17 -20 -17 -42q0 -34 37 -53l-42 -22l11 -20l119 64zM506 0h-8q-44 0 -84.5 19t-70.5 54q-29 -35 -70.5 -54t-88.5 -19h-157v100h157
q45 0 76.5 30.5t33.5 76.5v359h97v-359q0 -22 8.5 -41.5t23 -34t34 -23t41.5 -8.5h8q24 0 37 -13q14 -13 14 -36q0 -24 -13.5 -37.5t-37.5 -13.5zM119 134l-94 376l97 23l93 -376z" />
    <glyph glyph-name="uniFE56" unicode="&#xfe56;" horiz-adv-x="451" 
d="M177 -155l-119 -64l-11 20l42 22q-37 19 -37 53q0 22 17 42q20 20 41 20q8 -1 16 -3l16 -4l-5 -17q-2 1 -5.5 1t-7.5 1h-11q-16 0 -27 -12q-12 -17 -12 -28q0 -33 32 -33q20 0 62 21zM205 0h-145v100h145q22 0 41.5 8.5t34 23t23 34t8.5 41.5v356h100v-356q0 -43 -16 -81
t-44 -66t-66 -44t-81 -16zM121 134l-103 415l97 23l102 -415z" />
    <glyph glyph-name="uniFE57" unicode="&#xfe57;" horiz-adv-x="506" 
d="M197 -138q-42 -21 -62 -21q-32 0 -32 33q0 11 12 28q11 12 27 12h11q4 -1 7.5 -1t5.5 -1l5 17l-16 4t-16 3q-21 0 -41 -20q-17 -20 -17 -42q0 -34 37 -53l-42 -22l11 -20l119 64zM506 0h-8q-44 0 -84.5 19t-70.5 54q-29 -35 -70.5 -54t-88.5 -19h-157v100h157
q45 0 76.5 30.5t33.5 76.5v359h97v-359q0 -22 8.5 -41.5t23 -34t34 -23t41.5 -8.5h8q24 0 37 -13q14 -13 14 -36q0 -24 -13.5 -37.5t-37.5 -13.5zM119 134l-103 415l97 23l102 -415z" />
    <glyph glyph-name="uniFE58" unicode="&#xfe58;" horiz-adv-x="450" 
d="M205 0h-145v100h145q22 0 41.5 8.5t34 23t23 34t8.5 41.5v356h100v-356q0 -43 -16 -81t-44 -66t-66 -44t-81 -16zM121 134l-103 415l97 23l102 -415z" />
    <glyph glyph-name="uniFE59" unicode="&#xfe59;" horiz-adv-x="506" 
d="M506 0h-8q-44 0 -84.5 19t-70.5 54q-29 -35 -70.5 -54t-88.5 -19h-157v100h157q45 0 76.5 30.5t33.5 76.5v359h97v-359q0 -22 8.5 -41.5t23 -34t34 -23t41.5 -8.5h8q24 0 37 -13q14 -13 14 -36q0 -24 -13.5 -37.5t-37.5 -13.5zM119 134l-103 415l97 23l102 -415z" />
    <glyph glyph-name="uniFE5A" unicode="&#xfe5a;" horiz-adv-x="274" 
d="M274 0h-18q-35 0 -62 12t-52 35q-47 -47 -114 -47h-28q-24 0 -37.5 13.5t-13.5 37.5q0 22 14 36q15 13 37 13h28q27 0 45.5 20.5t18.5 46.5v423h100v-423q0 -27 19 -47t45 -20h18q22 0 37 -13q14 -14 14 -36q0 -24 -13.5 -37.5t-37.5 -13.5z" />
    <glyph glyph-name="uniFE5B" unicode="&#xfe5b;" horiz-adv-x="274" 
d="M70 0h-70q-24 0 -37.5 13.5t-13.5 37.5q0 23 14 36t37 13h70q26 0 45 20t19 47v423h100v-426q0 -34 -13 -64t-35 -52t-52 -35t-64 -13z" />
    <glyph glyph-name="uniFE5C" unicode="&#xfe5c;" horiz-adv-x="655" 
d="M138 -221h-98v416q0 34 12.5 63.5t34.5 51.5t51.5 34.5t63.5 12.5h205q35 -1 66 -16t54 -39t36.5 -56t13.5 -68v-14q0 -27 18.5 -45.5t45.5 -18.5h14q24 0 37.5 -13.5t13.5 -37.5q0 -22 -14 -36q-14 -13 -37 -13h-14q-34 0 -64.5 13t-53.5 38q-24 -24 -57.5 -37.5
t-67.5 -13.5q-36 0 -68.5 14.5t-56.5 38.5t-38.5 56.5t-14.5 68.5q0 46 19 81h-37q-26 0 -45 -19t-19 -45v-416zM397 259q-34 -2 -55.5 -24.5t-21.5 -56.5q0 -33 22.5 -55.5t55.5 -22.5q35 0 58 22.5t23 55.5t-22 56t-54 25h-6z" />
    <glyph glyph-name="uniFE5D" unicode="&#xfe5d;" horiz-adv-x="512" 
d="M254 -1q-35 0 -67 13.5t-57 38.5q-49 -51 -118 -51h-14q-23 0 -37 13t-14 36q0 24 13.5 37.5t37.5 13.5h14q23 0 43.5 17t20.5 46v185l178 8q38 0 70.5 -14t56.5 -38t38 -56.5t14 -70.5v-11q2 -29 20 -47.5t45 -18.5h12q24 0 37.5 -13.5t13.5 -37.5q0 -23 -14 -36
q-13 -13 -37 -13h-12q-34 0 -64.5 13.5t-53.5 37.5q-54 -52 -126 -52zM173 256v-79q0 -16 6.5 -30.5t17.5 -25.5t26 -17.5t31 -6.5q17 0 31.5 6.5t25.5 17.5t17.5 25.5t6.5 30.5q0 34 -23.5 57.5t-57.5 23.5z" />
    <glyph glyph-name="uniFE5E" unicode="&#xfe5e;" horiz-adv-x="467" 
d="M268 0q-35 0 -67 13.5t-57 38.5q-24 -25 -54.5 -38.5t-63.5 -13.5h-26q-24 0 -37.5 13.5t-13.5 37.5q0 23 14 36t37 13h26q23 0 43.5 17.5t20.5 46.5v95h-53v98h231q38 0 70.5 -14t56.5 -38t38 -56.5t14 -70.5q0 -37 -14 -69.5t-38.5 -56.5t-57 -38t-69.5 -14zM187 259
v-81q0 -16 6.5 -30.5t17.5 -25.5t26 -17.5t31 -6.5q17 0 31.5 6.5t25.5 17.5t17.5 25.5t6.5 30.5q0 34 -23.5 57.5t-57.5 23.5h-81z" />
    <glyph glyph-name="uniFE5F" unicode="&#xfe5f;" horiz-adv-x="635" 
d="M300 -137q-54 0 -101 20.5t-82.5 56t-56 82.5t-20.5 101v155h100v-155q0 -33 12.5 -62.5t34.5 -51t51 -34t62 -12.5q34 0 63.5 12.5t51.5 34t35 51t13 62.5v217h97v-178q0 -26 19 -44t45 -18h11q23 0 37 -13t14 -36q0 -24 -13.5 -37.5t-37.5 -13.5h-11q-41 0 -83 24
q-15 -37 -39.5 -67t-56 -51t-68.5 -32t-77 -11zM268 359h79v-81h-79v81z" />
    <glyph glyph-name="uniFE60" unicode="&#xfe60;" horiz-adv-x="304" 
d="M304 0q-42 0 -74.5 8.5t-60.5 36.5q-48 -45 -112 -45h-57q-24 0 -37.5 13.5t-13.5 37.5t13 36q13 13 38 13h57q26 0 45 19.5t19 47.5v158h100v-161q0 -26 18.5 -45t45.5 -19h19q24 0 37 -13q14 -12 14 -36t-14 -37.5t-37 -13.5zM130 470h79v-81h-79v81z" />
    <glyph glyph-name="uniFE61" unicode="&#xfe61;" horiz-adv-x="270" 
d="M66 0h-66q-24 0 -38 14q-14 13 -14 37q0 23 14 36t38 13h66q13 0 24.5 5.5t20.5 15t14 21.5t5 25v159h100v-162q0 -33 -13 -62.5t-35.5 -52t-52.5 -36t-63 -13.5zM140 470h79v-81h-79v81z" />
    <glyph glyph-name="uniFE62" unicode="&#xfe62;" horiz-adv-x="444" 
d="M218 260q-16 0 -30.5 -6.5t-25.5 -17.5t-17.5 -25.5t-6.5 -31.5q0 -33 23.5 -56t56.5 -23h81v79q0 33 -24 57t-57 24zM295 -22q1 5 2 9q0 3 0.5 7t0.5 6h-80q-37 0 -69.5 14t-56.5 38.5t-38 57t-14 69.5q0 36 14 69t38 58t56.5 39.5t69.5 14.5q38 0 70.5 -14t56.5 -39
t38 -57.5t14 -70.5v-79h48q24 0 37 -13q14 -13 14 -36q0 -24 -13.5 -37.5t-37.5 -13.5h-48q-6 -104 -79 -167q-15 -13 -33.5 -23t-38 -18t-39.5 -14t-37 -11q-5 -2 -10.5 -3t-10.5 -3l-19 -6l-27 86l19 7q5 2 11 4l12 4q28 10 57.5 21t49.5 28q23 18 31.5 39t11.5 34z" />
    <glyph glyph-name="uniFE63" unicode="&#xfe63;" horiz-adv-x="445" 
d="M218 260q-16 0 -30.5 -6.5t-25.5 -17.5t-17.5 -25.5t-6.5 -31.5q0 -33 23.5 -56t56.5 -23h81v79q0 33 -24 57t-57 24zM295 -22q1 5 2 9q0 3 0.5 7t0.5 6h-80q-37 0 -69.5 14t-56.5 38.5t-38 57t-14 69.5q0 36 14 69t38 58t56.5 39.5t69.5 14.5q38 0 70.5 -14t56.5 -39
t38 -57.5t14 -70.5v-79h48q24 0 37 -13q14 -13 14 -36q0 -24 -13.5 -37.5t-37.5 -13.5h-48q-6 -104 -79 -167q-15 -13 -33.5 -23t-38 -18t-39.5 -14t-37 -11q-5 -2 -10.5 -3t-10.5 -3l-19 -6l-27 86l19 7q5 2 11 4l12 4q28 10 57.5 21t49.5 28q23 18 31.5 39t11.5 34z
M245 509l11 32l-8 3q-5 3 -13.5 6t-22.5 3q-24 0 -42 -18t-18 -42q0 -11 5 -23.5t19 -24.5l-32 -16l19 -36l117 63l-18 35l-8 -5q-17 -9 -24 -10.5t-16 -1.5q-10 1 -15.5 7.5t-5.5 11.5q0 9 6.5 14.5t14.5 5.5q3 0 8.5 -0.5t10.5 -1.5t12 -2z" />
    <glyph glyph-name="uniFE64" unicode="&#xfe64;" horiz-adv-x="461" 
d="M461 0h-20q-33 0 -64 12.5t-54 37.5q-25 -25 -57.5 -37.5t-67.5 -12.5q-37 0 -69.5 14t-56.5 38t-38 56.5t-14 69.5q0 38 13.5 70.5t37.5 56.5t56.5 38t70.5 14h1l80 -3v43h98v-233q0 -28 18.5 -46t45.5 -18h20q23 0 37 -13t14 -36q0 -24 -13.5 -37.5t-37.5 -13.5z
M198 259q-16 0 -30.5 -6.5t-25.5 -18t-17.5 -26t-6.5 -30.5t6.5 -31t17.5 -26t25.5 -17.5t30.5 -6.5q33 0 56 23.5t23 57.5l2 81h-81z" />
    <glyph glyph-name="uniFE65" unicode="&#xfe65;" horiz-adv-x="461" 
d="M461 0h-20q-33 0 -64 12.5t-54 37.5q-25 -25 -57.5 -37.5t-67.5 -12.5q-37 0 -69.5 14t-56.5 38t-38 56.5t-14 69.5q0 38 13.5 70.5t37.5 56.5t56.5 38t70.5 14h1l80 -3v43h98v-233q0 -28 18.5 -46t45.5 -18h20q23 0 37 -13t14 -36q0 -24 -13.5 -37.5t-37.5 -13.5z
M198 259q-16 0 -30.5 -6.5t-25.5 -18t-17.5 -26t-6.5 -30.5t6.5 -31t17.5 -26t25.5 -17.5t30.5 -6.5q33 0 56 23.5t23 57.5l2 81h-81zM297 456h-93v95h93v-95zM142 456h-93v95h93v-95z" />
    <glyph glyph-name="uniFE66" unicode="&#xfe66;" horiz-adv-x="461" 
d="M461 0h-20q-33 0 -64 12.5t-54 37.5q-25 -25 -57.5 -37.5t-67.5 -12.5q-37 0 -69.5 14t-56.5 38t-38 56.5t-14 69.5q0 38 13.5 70.5t37.5 56.5t56.5 38t70.5 14h1l80 -3v43h98v-233q0 -28 18.5 -46t45.5 -18h20q23 0 37 -13t14 -36q0 -24 -13.5 -37.5t-37.5 -13.5z
M198 259q-16 0 -30.5 -6.5t-25.5 -18t-17.5 -26t-6.5 -30.5t6.5 -31t17.5 -26t25.5 -17.5t30.5 -6.5q33 0 56 23.5t23 57.5l2 81h-81zM211 523l11 32l-8 3q-5 3 -13.5 6t-22.5 3q-24 0 -42 -18t-18 -42q0 -11 5 -23.5t19 -24.5l-32 -16l19 -36l117 63l-18 35l-8 -5
q-17 -9 -24 -10.5t-16 -1.5q-10 1 -15.5 7.5t-5.5 11.5q0 9 6.5 14.5t14.5 5.5q3 0 8.5 -0.5t10.5 -1.5t12 -2z" />
    <glyph glyph-name="uniFE67" unicode="&#xfe67;" horiz-adv-x="493" 
d="M400 -196h-182q-33 0 -63 13t-52.5 35.5t-35.5 52.5t-13 63v32h-54q-24 0 -37.5 13.5t-13.5 37.5t14 36q13 13 37 13h46v79q0 37 14.5 69.5t39 56.5t57 38t68.5 14q37 0 70 -14t58 -38t39.5 -56.5t14.5 -69.5q0 -49 -24 -90q27 11 52 11h58q25 0 38 -13q13 -12 13 -36
t-13.5 -37.5t-37.5 -13.5h-58q-23 0 -39 -19t-16 -40v-13.5t2 -14.5q1 -5 3 -9h15v-100zM154 0v-32q0 -13 5.5 -24.5t15 -20.5t21.5 -14t25 -5h67q-3 14 -4 25t-1 16q0 38 20 72q-37 -17 -78 -17h-71zM146 97h79q33 0 57 24t24 57t-24 56.5t-57 23.5q-32 0 -55.5 -23.5
t-23.5 -56.5v-81z" />
    <glyph glyph-name="uniFE68" unicode="&#xfe68;" horiz-adv-x="690" 
d="M482 0h-482q-24 0 -37.5 13.5t-13.5 37.5q0 23 14 36t37 13h92q-19 37 -19 79q0 48 28 95q-34 16 -60 54l-9 14l61 58l13 -13q36 -33 73 -33l303 3q36 0 68.5 -14t57 -38.5t38.5 -57t14 -68.5q0 -37 -14 -69.5t-38 -57t-56.5 -38.5t-69.5 -14zM413 100h69q33 0 55.5 22.5
t22.5 56.5q0 33 -22.5 56t-55.5 24l-70 -2q20 -37 20 -78q0 -43 -19 -79zM251 256q-32 0 -55 -23t-23 -54q0 -33 23 -56t55 -23q34 0 57.5 22.5t23.5 56.5q0 31 -24 54t-57 23z" />
    <glyph glyph-name="uniFE69" unicode="&#xfe69;" horiz-adv-x="643" 
d="M424 -281h-214q-40 0 -74.5 15t-60 41t-40.5 60.5t-15 74.5v248h100v-248q0 -40 26 -66.5t64 -26.5h209q18 1 35 7t30.5 17.5t21.5 28t8 37.5q0 35 -22 61t-57 32h-171v100h379q23 0 37 -13t14 -36q0 -24 -13.5 -37.5t-37.5 -13.5h-56q27 -37 27 -93q0 -59 -37 -113
l-1 -1q-28 -35 -67.5 -54.5t-84.5 -19.5z" />
    <glyph glyph-name="uniFE6A" unicode="&#xfe6a;" horiz-adv-x="644" 
d="M425 -281h-214q-40 0 -74.5 15t-60 41t-40.5 60.5t-15 74.5v248h100v-248q0 -40 26 -66.5t64 -26.5h209q18 1 35 7t30.5 17.5t21.5 28t8 37.5q0 35 -22 61t-57 32h-171v100h379q23 0 37 -13t14 -36q0 -24 -13.5 -37.5t-37.5 -13.5h-56q27 -37 27 -93q0 -59 -37 -113
l-1 -1q-28 -35 -67.5 -54.5t-84.5 -19.5zM212 -350h93v-95h-93v95zM367 -350h93v-95h-93v95z" />
    <glyph glyph-name="uniFE6B" unicode="&#xfe6b;" horiz-adv-x="353" 
d="M340 0q-41 0 -83 9t-69 36q-48 -45 -112 -45h-77q-24 0 -37.5 13.5t-13.5 37.5t13 36q13 13 38 13h77q26 0 45 19.5t19 47.5v158h100v-161q0 -26 18.5 -45t45.5 -19h49q24 0 37 -13q14 -12 14 -36q0 -32 -18.5 -41.5t-45.5 -9.5zM45 -116h93v-95h-93v95zM200 -116h93v-95
h-93v95z" />
    <glyph glyph-name="uniFE6C" unicode="&#xfe6c;" horiz-adv-x="361" 
d="M142 0h-141q-24 0 -38 14q-14 13 -14 37q0 23 14 36t38 13h141q13 0 24.5 5.5t20.5 15t14 21.5t5 25v159h100v-162q0 -33 -13 -62.5t-35.5 -52t-52.5 -36t-63 -13.5zM0 -116h93v-95h-93v95zM155 -116h93v-95h-93v95z" />
    <glyph glyph-name="uniFE6D" unicode="&#xfe6d;" horiz-adv-x="643" 
d="M424 -281h-214q-40 0 -74.5 15t-60 41t-40.5 60.5t-15 74.5v248h100v-248q0 -40 26 -66.5t64 -26.5h209q18 1 35 7t30.5 17.5t21.5 28t8 37.5q0 35 -22 61t-57 32h-171v100h379q23 0 37 -13t14 -36q0 -24 -13.5 -37.5t-37.5 -13.5h-56q27 -37 27 -93q0 -59 -37 -113
l-1 -1q-28 -35 -67.5 -54.5t-84.5 -19.5zM253 309l11 32l-8 3q-5 3 -13.5 6t-22.5 3q-24 0 -42 -18t-18 -42q0 -11 5 -23.5t19 -24.5l-32 -16l19 -36l117 63l-18 35l-8 -5q-17 -9 -24 -10.5t-16 -1.5q-10 1 -15.5 7.5t-5.5 11.5q0 9 6.5 14.5t14.5 5.5q3 0 8.5 -0.5
t10.5 -1.5t12 -2z" />
    <glyph glyph-name="uniFE6E" unicode="&#xfe6e;" horiz-adv-x="304" 
d="M304 0q-42 0 -74.5 8.5t-60.5 36.5q-48 -45 -112 -45h-57q-24 0 -37.5 13.5t-13.5 37.5t13 36q13 13 38 13h57q26 0 45 19.5t19 47.5v158h100v-161q0 -26 18.5 -45t45.5 -19h19q24 0 37 -13q14 -12 14 -36t-14 -37.5t-37 -13.5zM130 466l11 32l-8 3q-5 3 -13.5 6t-22.5 3
q-24 0 -42 -18t-18 -42q0 -11 5 -23.5t19 -24.5l-32 -16l19 -36l117 63l-18 35l-8 -5q-17 -9 -24 -10.5t-16 -1.5q-10 1 -15.5 7.5t-5.5 11.5q0 9 6.5 14.5t14.5 5.5q3 0 8.5 -0.5t10.5 -1.5t12 -2z" />
    <glyph glyph-name="uniFE6F" unicode="&#xfe6f;" horiz-adv-x="270" 
d="M66 0h-66q-24 0 -38 14q-14 13 -14 37q0 23 14 36t38 13h66q13 0 24.5 5.5t20.5 15t14 21.5t5 25v159h100v-162q0 -33 -13 -62.5t-35.5 -52t-52.5 -36t-63 -13.5zM130 466l11 32l-8 3q-5 3 -13.5 6t-22.5 3q-24 0 -42 -18t-18 -42q0 -11 5 -23.5t19 -24.5l-32 -16l19 -36
l117 63l-18 35l-8 -5q-17 -9 -24 -10.5t-16 -1.5q-10 1 -15.5 7.5t-5.5 11.5q0 9 6.5 14.5t14.5 5.5q3 0 8.5 -0.5t10.5 -1.5t12 -2z" />
    <glyph glyph-name="uniFE73" unicode="&#xfe73;" horiz-adv-x="550" 
 />
    <glyph glyph-name="_004" horiz-adv-x="810" 
 />
    <glyph glyph-name="kafinitial.alt1" horiz-adv-x="551" 
d="M380 0h-380q-24 0 -37.5 13.5t-13.5 37.5q0 23 14 36t37 13h380q27 0 45.5 19t18.5 45q0 23 -8 38.5t-19.5 25.5t-25 15t-24.5 7q-91 18 -181 35t-181 34v85l201 159l59 -64l-124 -107q58 -11 120 -22.5t126 -23.5q75 -14 114.5 -59t39.5 -123q0 -34 -12 -64t-34 -52
t-51 -35t-64 -13z" />
    <glyph glyph-name="kafmedial.alt1" horiz-adv-x="633" 
d="M633 0h-16q-68 0 -113 45q-47 -45 -112 -45h-392q-23 0 -37 13.5t-14 37.5q0 22 14 36q15 13 37 13h392q27 0 45.5 18.5t18.5 45.5q0 23 -8 38.5t-19.5 25t-25 15t-24.5 7.5q-74 15 -144 28q-60 11 -123 23t-107 20v84l202 160l58 -64l-124 -107q18 -3 49.5 -9
t68.5 -12.5t74.5 -13.5t65.5 -13q75 -17 114.5 -59t39.5 -123q2 -29 20 -46.5t44 -17.5h16q23 0 38 -13q13 -13 13 -36q0 -24 -13.5 -37.5t-37.5 -13.5z" />
    <glyph glyph-name="kaffinal.alt1" horiz-adv-x="868" 
d="M868 0h-16q-67 0 -114 45q-22 -22 -50.5 -33.5t-60.5 -11.5h-402q-43 0 -81 16t-66 44t-44 66t-16 81v121h100v-121q0 -22 8.5 -41.5t23 -34t34 -23t41.5 -8.5h402q26 0 45 19t19 45q0 23 -8 38.5t-19.5 25.5t-25 15t-24.5 7l-374 71v84l201 160l59 -64l-124 -107
q0 -1 15.5 -4t40 -7.5t54 -9.5t58.5 -10t53 -9.5t37 -7.5q75 -14 114.5 -59t39.5 -123q2 -29 20 -46.5t44 -17.5h16q24 0 37 -13q14 -13 14 -36q0 -24 -13.5 -37.5t-37.5 -13.5z" />
    <glyph glyph-name="kafisolate.alt1" horiz-adv-x="830" 
d="M657 0h-402q-43 0 -81 16t-66 44t-44 66t-16 81v121h100v-121q0 -22 8.5 -41.5t23 -34t34 -23t41.5 -8.5h402q26 0 45 18.5t19 45.5q0 23 -8 38.5t-20 25t-25.5 15t-24.5 7.5h-1l-372 69v84l201 160l58 -64l-123 -106q60 -11 111 -20q22 -4 44.5 -8t42 -7.5t35 -6.5
t24.5 -5q75 -17 115 -59t40 -123q0 -34 -12.5 -63.5t-34 -52t-51 -35.5t-63.5 -13z" />
    <glyph glyph-name="gafinitial.alt1" horiz-adv-x="603" 
d="M237 565l58 -64l-124 -107q56 -10 106 -19q21 -4 43.5 -8t42.5 -7.5t37 -7t29 -6.5q75 -17 114.5 -59t39.5 -123q0 -34 -12 -64t-34 -52t-51 -35t-64 -13h-422q-24 0 -37.5 13.5t-13.5 37.5q0 22 14 36q15 13 37 13h422q27 0 45.5 18.5t18.5 45.5q0 23 -8 38.5t-19.5 25
t-25 15t-24.5 7.5l-374 71v84zM23 451l-42 58l135 96l35 -50z" />
    <glyph glyph-name="gafmedial.alt1" horiz-adv-x="673" 
d="M246 565l59 -64l-124 -107q51 -9 99 -18q41 -7 85.5 -15.5t73.5 -14.5q75 -15 114.5 -58.5t39.5 -123.5q2 -29 20 -46.5t44 -17.5h16q22 0 37 -13q14 -14 14 -36q0 -24 -13.5 -37.5t-37.5 -13.5h-16q-67 0 -114 45q-22 -23 -50.5 -34t-60.5 -11h-432q-24 0 -37.5 13.5
t-13.5 37.5q0 22 14 36q15 13 37 13h432q26 0 45 18.5t19 45.5q0 23 -8 38.5t-19.5 25t-25 15t-24.5 7.5l-374 71v84zM33 451l-42 58l135 96l35 -50z" />
    <glyph glyph-name="gaffinal.alt1" horiz-adv-x="890" 
d="M463 565l58 -64l-124 -107q54 -9 103 -18q42 -8 85.5 -16t69.5 -14q75 -14 115 -58.5t40 -122.5q2 -29 20 -47t44 -18h16q23 0 37 -13t14 -36q0 -24 -13.5 -37.5t-37.5 -13.5h-16q-67 0 -114 45q-47 -45 -111 -45h-402q-43 0 -81 16t-66 44t-44 66t-16 81v121h100v-121
q0 -22 8.5 -41.5t23 -34t34 -23t41.5 -8.5h402q26 0 45 19t19 45q0 23 -8 38.5t-20 25.5t-25.5 15t-24.5 7h-1q-72 14 -140 27q-29 6 -60 12t-61.5 11.5t-59 11t-51.5 9.5v85zM248 451l-42 58l135 96l35 -50z" />
    <glyph glyph-name="gafisolate.alt1" horiz-adv-x="830" 
d="M413 565l59 -64l-125 -107q57 -11 107 -20q43 -8 86 -15.5t65 -12.5q75 -14 115 -59t40 -123q0 -34 -12.5 -63.5t-34 -52t-51 -35.5t-63.5 -13h-402q-43 0 -81 16t-66 44t-44 66t-16 81v121h100v-121q0 -22 8.5 -41.5t23 -34t34 -23t41.5 -8.5h402q26 0 45 19t19 45
q0 23 -8 38.5t-20 25.5t-25 15t-24 7q-45 9 -108.5 21t-123.5 23q-69 13 -142 27v85zM203 451l-42 58l135 96l35 -50z" />
  </font>
</defs>
</svg>
