<svg id="Layer_1" data-name="Layer 1" xmlns="http://www.w3.org/2000/svg" xmlns:xlink="http://www.w3.org/1999/xlink" viewBox="0 0 124.22 110.05"><defs><style>.cls-1{fill:url(#linear-gradient);}</style><linearGradient id="linear-gradient" x1="1.39" y1="616.54" x2="1.39" y2="615.54" gradientTransform="matrix(124.22, 0, 0, -110.05, -71.33, 68267.02)" gradientUnits="userSpaceOnUse"><stop offset="0" stop-color="#3490de"/><stop offset="1" stop-color="#fff" stop-opacity="0.33"/><stop offset="1" stop-color="gray"/></linearGradient></defs><path id="Polygon_70" data-name="Polygon 70" class="cls-1" d="M85.14,422a23.79,23.79,0,0,1,33.26,0l20.85,20.38a23.66,23.66,0,0,0,8.74,5.43h0c21.19,7.45,21.19,37.42,0,44.88h0a23.66,23.66,0,0,0-8.74,5.43L118.4,518.46a23.8,23.8,0,0,1-33.26,0L64.29,498.08a23.83,23.83,0,0,0-8.74-5.43h0c-21.19-7.46-21.19-37.43,0-44.88h0a23.83,23.83,0,0,0,8.74-5.43Z" transform="translate(-39.66 -415.18)"/></svg>